<svg width="77" height="77" viewBox="0 0 77 77" fill="none" xmlns="http://www.w3.org/2000/svg">
<path fill-rule="evenodd" clip-rule="evenodd" d="M49.8082 6.88208C51.4392 6.88208 52.7696 8.21236 52.7696 9.84334V64.3322C52.7696 65.9632 51.4394 67.2934 49.8082 67.2934H4.20345C2.57246 67.2934 1.24219 65.9632 1.24219 64.3322V9.84349C1.24219 8.21251 2.57246 6.88224 4.20345 6.88224H49.8082V6.88208Z" fill="#837683"/>
<path fill-rule="evenodd" clip-rule="evenodd" d="M45.9844 67.2937H49.806C51.437 67.2937 52.7674 65.9634 52.7674 64.3324V9.84358C52.7674 8.2126 51.4371 6.88232 49.806 6.88232H45.9844V67.2937Z" fill="#685E68"/>
<path fill-rule="evenodd" clip-rule="evenodd" d="M47.3159 11.0017H6.69105C5.95753 11.0017 5.35938 11.5999 5.35938 12.3334V61.8424C5.35938 62.5759 5.95753 63.174 6.69105 63.174H47.3159C48.0493 63.174 48.6476 62.5759 48.6476 61.8424V12.3334C48.6476 11.5999 48.0495 11.0017 47.3159 11.0017Z" fill="#ECEFF1"/>
<path fill-rule="evenodd" clip-rule="evenodd" d="M45.9844 63.174H47.3162C47.3581 63.174 47.3996 63.172 47.4406 63.1683C48.1162 63.1053 48.6479 62.534 48.6479 61.8424V12.3334C48.6479 11.6418 48.1162 11.0705 47.4406 11.0075C47.3996 11.0037 47.3581 11.0017 47.3162 11.0017H45.9844V63.174Z" fill="#D1D1D6"/>
<path fill-rule="evenodd" clip-rule="evenodd" d="M16.9332 5.09214H21.1543C21.6978 5.09214 22.1623 4.78647 22.3773 4.28721C23.1485 2.49633 24.9292 1.24243 27.0028 1.24243C29.0763 1.24243 30.857 2.49633 31.6282 4.28721C31.8432 4.78647 32.3077 5.09214 32.8512 5.09214H37.0723C37.8058 5.09214 38.4039 5.6903 38.4039 6.42382V11.4601C38.4039 12.1936 37.8058 12.7917 37.0723 12.7917H16.9332C16.1997 12.7917 15.6016 12.1936 15.6016 11.4601V6.42382C15.6016 5.69045 16.1997 5.09214 16.9332 5.09214Z" fill="#E3A76F"/>
<path fill-rule="evenodd" clip-rule="evenodd" d="M35.7404 11.4599L15.6016 11.4601C15.6016 12.1935 16.1997 12.7916 16.9332 12.7916H37.0723C37.8058 12.7916 38.4039 12.1935 38.4039 11.4601V11.0017V6.88215V6.42371C38.4039 5.69035 37.8058 5.09204 37.0721 5.09204V6.88215V10.1283C37.0721 10.4619 36.9484 10.7676 36.7444 11.0017C36.4999 11.2824 36.1402 11.4599 35.7404 11.4599Z" fill="#C48958"/>
<path fill-rule="evenodd" clip-rule="evenodd" d="M39.6278 36.125H43.2584C43.686 36.125 44.0347 36.4737 44.0347 36.9012V58.6913C44.0347 59.1188 43.686 59.4675 43.2584 59.4675H39.6278C39.2002 59.4675 38.8516 59.1188 38.8516 58.6913V36.9012C38.8517 36.4737 39.2004 36.125 39.6278 36.125Z" fill="#8AC9FE"/>
<path fill-rule="evenodd" clip-rule="evenodd" d="M41.7031 36.125H43.2556C43.6831 36.125 44.0318 36.4737 44.0318 36.9012V58.6913C44.0318 59.1188 43.6831 59.4675 43.2556 59.4675H41.7031C42.1307 59.4675 42.4793 59.1188 42.4793 58.6913V36.9012C42.4792 36.4737 42.1305 36.125 41.7031 36.125Z" fill="#60B7FF"/>
<path fill-rule="evenodd" clip-rule="evenodd" d="M30.0028 46.4587H33.6336C34.0611 46.4587 34.4098 46.8074 34.4098 47.2351V58.6913C34.4098 59.1188 34.0611 59.4675 33.6336 59.4675C32.4233 59.4675 31.2131 59.4675 30.0028 59.4675C29.5752 59.4675 29.2266 59.1188 29.2266 58.6913C29.2266 54.0684 29.2266 51.8578 29.2266 47.2351C29.2266 46.8076 29.5752 46.4587 30.0028 46.4587Z" fill="#6CF5C2"/>
<path fill-rule="evenodd" clip-rule="evenodd" d="M32.0781 46.4587H33.6306C34.0581 46.4587 34.4068 46.8074 34.4068 47.2351V58.6913C34.4068 59.1188 34.0581 59.4675 33.6306 59.4675H32.0781C32.5057 59.4675 32.8543 59.1188 32.8543 58.6913C32.8543 54.0684 32.8543 51.8578 32.8543 47.2351C32.8545 46.8076 32.5058 46.4587 32.0781 46.4587Z" fill="#00E499"/>
<path fill-rule="evenodd" clip-rule="evenodd" d="M20.3778 42.9241H24.0084C24.436 42.9241 24.7847 43.2727 24.7847 43.7003V58.6915C24.7847 59.119 24.436 59.4677 24.0084 59.4677H20.3778C19.9502 59.4677 19.6016 59.119 19.6016 58.6915V43.7003C19.6016 43.2727 19.9502 42.9241 20.3778 42.9241Z" fill="#FFE177"/>
<path fill-rule="evenodd" clip-rule="evenodd" d="M22.4609 42.9241H24.0134C24.4409 42.9241 24.7896 43.2727 24.7896 43.7003V58.6915C24.7896 59.119 24.4409 59.4677 24.0134 59.4677H22.4609C22.8885 59.4677 23.2372 59.119 23.2372 58.6915V43.7003C23.237 43.2727 22.8883 42.9241 22.4609 42.9241Z" fill="#FFD064"/>
<path fill-rule="evenodd" clip-rule="evenodd" d="M10.7528 51.6685H14.3834C14.811 51.6685 15.1597 52.0171 15.1597 52.4447V58.6912C15.1597 59.1187 14.811 59.4674 14.3834 59.4674H10.7528C10.3252 59.4674 9.97656 59.1187 9.97656 58.6912V52.4447C9.97656 52.0171 10.3252 51.6685 10.7528 51.6685Z" fill="#FE646F"/>
<path fill-rule="evenodd" clip-rule="evenodd" d="M12.8359 51.6685H14.3884C14.8159 51.6685 15.1646 52.0171 15.1646 52.4447V58.6912C15.1646 59.1187 14.8159 59.4674 14.3884 59.4674H12.8359C13.2635 59.4674 13.6122 59.1187 13.6122 58.6912V52.4447C13.6122 52.0171 13.2635 51.6685 12.8359 51.6685Z" fill="#FD4755"/>
<path d="M28.6676 38.1011C34.6386 37.1894 38.74 31.6099 37.8284 25.6389C36.9167 19.6679 31.3372 15.5664 25.3662 16.4781C19.3952 17.3897 15.2937 22.9692 16.2054 28.9403C17.117 34.9113 22.6965 39.0127 28.6676 38.1011Z" fill="#8AC9FE"/>
<path fill-rule="evenodd" clip-rule="evenodd" d="M27.002 16.3491C33.0394 16.3491 37.9338 21.2435 37.9338 27.2809C37.9338 27.542 37.924 27.8006 37.906 28.0571C37.5078 22.382 32.7785 17.9015 27.002 17.9015C21.2256 17.9015 16.4963 22.382 16.0981 28.0571C16.0801 27.8006 16.0703 27.5418 16.0703 27.2809C16.0705 21.2433 20.9647 16.3491 27.002 16.3491Z" fill="#60B7FF"/>
<path fill-rule="evenodd" clip-rule="evenodd" d="M27 16.3491V27.2809H37.9317C37.9317 21.2433 33.0376 16.3491 27 16.3491Z" fill="#FE646F"/>
<path fill-rule="evenodd" clip-rule="evenodd" d="M27 16.3491V17.9015C32.5103 17.9015 37.0677 21.9788 37.8215 27.2807H37.9317C37.9317 21.2433 33.0376 16.3491 27 16.3491Z" fill="#FD4755"/>
<path fill-rule="evenodd" clip-rule="evenodd" d="M37.9317 27.2808H27L34.7299 35.0106C36.7081 33.0325 37.9317 30.2996 37.9317 27.2808Z" fill="#6CF5C2"/>
<path fill-rule="evenodd" clip-rule="evenodd" d="M60.9013 41.7183C62.5399 42.1083 64.1047 42.7578 65.539 43.641L68.5526 42.3025L72.1044 45.8543L70.7663 48.867C71.6498 50.3014 72.2994 51.8669 72.6893 53.5058L75.7639 54.6892V59.7121L72.6885 60.8958C72.2986 62.5344 71.6489 64.0992 70.7659 65.5334L72.1044 68.5469L68.5526 72.0987L65.5399 70.7607C64.1055 71.6442 62.54 72.2937 60.9011 72.6837L59.7177 75.7583H54.6947L53.5109 72.6829C51.8723 72.293 50.3075 71.6434 48.8734 70.7604L45.8598 72.0989L42.308 68.5471L43.646 65.5345C42.7625 64.1 42.113 62.5344 41.723 60.8955L38.6484 59.7121V54.6892L41.7235 53.5056C42.1135 51.867 42.763 50.3019 43.6463 48.8676L42.308 45.8543L45.8598 42.3024L48.8734 43.6409C50.3075 42.7578 51.8725 42.1082 53.5111 41.7182L54.6948 38.6428H59.7177L60.9013 41.7183Z" fill="#FFE177"/>
<path fill-rule="evenodd" clip-rule="evenodd" d="M48.876 70.7605L45.8625 72.099L45.3984 71.635L48.2239 70.3801C48.4384 70.5123 48.6559 70.6389 48.876 70.7605ZM60.9041 41.7183C62.5427 42.1082 64.1075 42.7578 65.5418 43.641L64.6852 44.0215C63.2511 43.1384 61.0339 42.1084 59.3954 41.7184L58.2117 38.6431H59.7205L60.9041 41.7183ZM65.5428 70.761C64.1083 71.6444 62.5428 72.294 60.9039 72.6839L59.7205 75.7585H58.2117L59.3951 72.6839C61.034 72.294 63.2517 71.2639 64.6861 70.3805L65.5428 70.761ZM45.3984 42.7665L45.8625 42.3024L48.876 43.641C48.6559 43.7625 48.4384 43.8893 48.2239 44.0215L45.3984 42.7665ZM67.5106 42.7665L68.5554 42.3024L72.1072 45.8543L70.7692 48.8669C71.6526 50.3013 72.3022 51.8668 72.6922 53.5057L75.7667 54.6891V59.712L72.6914 60.8957C72.3014 62.5343 71.6517 64.0992 70.7687 65.5333L72.1072 68.5469L68.5554 72.0987L67.5106 71.6347L70.5984 68.5469L69.2599 65.5333C70.1429 64.0992 70.7926 62.5343 71.1826 60.8957L74.2579 59.712V54.6891L71.1833 53.5057C70.7934 51.8668 70.1438 50.3012 69.2604 48.8669L70.5984 45.8543L67.5106 42.7665Z" fill="#FFD064"/>
<path d="M60.6033 66.7033C65.8465 64.8069 68.5595 59.0191 66.663 53.776C64.7666 48.5329 58.9788 45.8199 53.7357 47.7163C48.4926 49.6128 45.7796 55.4005 47.676 60.6437C49.5725 65.8868 55.3602 68.5998 60.6033 66.7033Z" fill="#ECEFF1"/>
<path fill-rule="evenodd" clip-rule="evenodd" d="M57.2087 47.1013C51.6305 47.1013 47.1094 51.6226 47.1094 57.2008C47.1094 62.779 51.6305 67.3001 57.2087 67.3001C57.4791 67.3001 57.7471 67.2893 58.0121 67.2683C52.8096 66.8589 48.716 62.5084 48.716 57.2006C48.716 51.8927 52.8096 47.5422 58.0121 47.1328C57.7469 47.1122 57.4791 47.1013 57.2087 47.1013Z" fill="#D1D1D6"/>
<path fill-rule="evenodd" clip-rule="evenodd" d="M66.0585 57.2011C66.0585 52.317 62.0841 48.3426 57.2008 48.3426C52.3167 48.3426 48.3425 52.317 48.3425 57.2011C48.3425 62.0849 52.3168 66.0591 57.2008 66.0591C62.0841 66.0593 66.0585 62.0849 66.0585 57.2011ZM68.5428 57.2011C68.5428 63.4541 63.4535 68.543 57.2008 68.543C50.9459 68.543 45.8587 63.454 45.8587 57.2011C45.8587 50.9461 50.9459 45.8587 57.2008 45.8587C63.4535 45.8589 68.5428 50.9461 68.5428 57.2011ZM74.5164 55.5414V58.8589L72.2373 59.7378C71.8537 59.8837 71.5702 60.2096 71.4752 60.6085C71.1149 62.119 70.5188 63.5566 69.7025 64.8824C69.4876 65.2317 69.4585 65.6632 69.625 66.0372L70.6181 68.2713L68.271 70.6184L66.0388 69.6264C65.6646 69.4589 65.2313 69.4884 64.8834 69.704C63.558 70.5206 62.1184 71.1166 60.6081 71.4755C60.2091 71.5701 59.8832 71.8557 59.7356 72.2376L58.8588 74.5166H55.5414L54.6638 72.2376C54.5162 71.8543 54.1903 71.5701 53.7927 71.4755C52.2824 71.1154 50.845 70.5191 49.5173 69.7027C49.1695 69.4883 48.7369 69.4589 48.362 69.625L46.1282 70.6183L43.7827 68.2726L44.0019 67.779C44.0019 67.7773 44.0034 67.7773 44.0034 67.7759L44.775 66.0388C44.9408 65.6646 44.9116 65.2315 44.6968 64.8836C43.8806 63.5581 43.2844 62.1189 42.924 60.6084C42.8298 60.2094 42.5456 59.8835 42.1619 59.7359L39.8852 58.8588V55.5412L42.1635 54.6644C42.5457 54.5168 42.8314 54.1909 42.9256 53.7932C43.2844 52.2827 43.8806 50.8436 44.6968 49.518C44.9116 49.1701 44.9408 48.7371 44.775 48.3628L43.7827 46.129L44.9116 45.0004L46.1282 43.7833L48.1639 44.6867C48.1655 44.6884 48.1655 44.6884 48.1669 44.6884L48.362 44.7752C48.7369 44.9413 49.1695 44.9132 49.5173 44.6975C50.845 43.881 52.2824 43.2848 53.7927 42.9262C54.1903 42.8317 54.5162 42.546 54.6638 42.1641L55.5414 39.8852H58.8588L59.7356 42.1641C59.8832 42.546 60.2091 42.8318 60.6081 42.9262C62.1184 43.285 63.5557 43.881 64.8819 44.6975C65.2312 44.9133 65.6631 44.9413 66.0371 44.7752L68.2709 43.7833L70.618 46.129L69.6257 48.3628C69.4597 48.7371 69.4875 49.1687 69.7037 49.518C70.52 50.8436 71.1163 52.2827 71.4751 53.7932C71.5701 54.1908 71.8549 54.5182 72.2371 54.6644L74.5164 55.5414ZM4.20382 66.0512H42.0517L42.2461 65.6151C42.0239 65.2223 41.8209 64.822 41.633 64.4152H5.36209C4.67592 64.4152 4.11984 63.8595 4.11984 63.1733V11.0024C4.11984 10.3162 4.67592 9.76043 5.36209 9.76043H14.3629V8.12401H4.20382C3.25544 8.12401 2.48373 8.89573 2.48373 9.84255V64.3313C2.48373 65.2796 3.25544 66.0512 4.20382 66.0512ZM16.8466 11.5485V6.33406H22.1114C22.6858 6.33406 23.1841 5.9413 23.3186 5.38413C23.73 3.67615 25.2468 2.48451 27.0057 2.48451C28.7646 2.48451 30.2801 3.67631 30.6915 5.38413C30.8267 5.9413 31.3251 6.33406 31.8995 6.33406H37.165V11.5487L16.8466 11.5485ZM42.7904 43.6079V37.3671H40.0912V52.7997L40.675 52.5763C41.0448 51.2553 41.5708 49.9854 42.2461 48.7868L41.1668 46.3589C40.9579 45.8886 41.0602 45.3388 41.4233 44.9757L42.7904 43.6079ZM47.4078 41.6333V12.2442H39.6484V12.7908C39.6484 13.4769 39.0931 14.0327 38.4069 14.0327H15.6044C14.9182 14.0327 14.3629 13.4769 14.3629 12.7908V12.2442H6.60357V61.9312H40.7058C40.6955 61.8955 40.6845 61.8613 40.6752 61.8256L38.1958 60.8709C37.7166 60.6861 37.4008 60.2266 37.4008 59.7129V54.6893C37.4008 54.4392 37.4753 54.203 37.6076 54.0031V36.1253C37.6076 35.4392 38.1651 34.8834 38.8491 34.8834H44.0328C44.719 34.8834 45.275 35.4392 45.275 36.1253V41.2032C45.6052 41.0293 46.005 41.0108 46.3572 41.1675L47.4078 41.6333ZM39.6484 8.12401V9.76027H48.6492C49.3362 9.76027 49.8915 10.316 49.8915 11.0022V41.6784C50.4257 41.4252 50.9707 41.2016 51.5268 41.0059V9.84255C51.5268 8.89573 50.7567 8.12401 49.8081 8.12401H39.6484ZM77 54.6893V59.7129C77 60.2266 76.6836 60.6861 76.2034 60.8709L73.7242 61.8256C73.3568 63.1466 72.8306 64.4165 72.1547 65.6136L73.234 68.043C73.4423 68.5119 73.3398 69.0613 72.9761 69.4248L69.4241 72.9767C69.0624 73.3401 68.5115 73.4426 68.0431 73.2344L65.615 72.1555C64.4159 72.8308 63.1466 73.3572 61.8255 73.7265L60.8704 76.2041C60.6855 76.6839 60.2259 77.0008 59.7122 77.0008H54.6885C54.1748 77.0008 53.7137 76.6839 53.5288 76.2041L52.576 73.7252C51.2548 73.3572 49.9849 72.831 48.788 72.1555L46.3585 73.2344C45.8879 73.4426 45.3384 73.34 44.9753 72.9767L41.4233 69.4262C41.1828 69.1841 41.0602 68.8628 41.0631 68.5354H4.20382C1.88605 68.5354 0 66.6489 0 64.3313V9.84255C0 7.52493 1.88589 5.64013 4.20382 5.64013H14.3629V5.09212C14.3629 4.40595 14.9182 3.85018 15.6044 3.85018H21.2141C22.1764 1.54187 24.4337 0 27.0057 0C29.577 0 31.8358 1.54187 32.7966 3.85018H38.4069C39.0931 3.85018 39.6484 4.40595 39.6484 5.09212V5.64013H49.8081C52.1253 5.64013 54.0104 7.52478 54.0104 9.84255V37.6032C54.2091 37.4742 54.4415 37.4014 54.6885 37.4014H59.7122C60.2259 37.4014 60.6855 37.7166 60.8704 38.1961L61.8255 40.6753C63.1466 41.0447 64.4159 41.5711 65.6136 42.2464L68.0431 41.1675C68.513 40.9593 69.061 41.0603 69.4241 41.4238L72.9761 44.9757C73.34 45.3388 73.4423 45.8886 73.234 46.3589L72.1547 48.7868C72.8306 49.9836 73.3568 51.2536 73.7258 52.5763L76.2036 53.5296C76.6836 53.7142 77 54.1753 77 54.6893ZM27.0056 36.9697C21.6626 36.9697 17.3156 32.6231 17.3156 27.2811C17.3156 22.3582 21.0058 18.2848 25.7641 17.6732V27.2811V27.2934C25.7641 27.3308 25.7657 27.3665 25.77 27.4021C25.7714 27.4223 25.7744 27.4423 25.7781 27.4612C25.781 27.4828 25.784 27.5028 25.7875 27.5232C25.7919 27.5449 25.7978 27.5651 25.8029 27.5868C25.8073 27.6054 25.8124 27.6225 25.8167 27.6413C25.8226 27.6613 25.8305 27.6815 25.838 27.7018C25.8445 27.7203 25.851 27.7376 25.8585 27.756C25.8666 27.7747 25.876 27.7917 25.8833 27.8102C25.8928 27.8292 25.9009 27.8476 25.9097 27.8661C25.9192 27.8832 25.9302 27.8987 25.9397 27.9158C25.9507 27.9344 25.9608 27.9532 25.9732 27.9703C25.9842 27.9887 25.9981 28.006 26.0105 28.023C26.0229 28.037 26.0324 28.0524 26.0448 28.0679C26.0681 28.0959 26.0945 28.124 26.1209 28.1505C26.1223 28.1533 26.1244 28.1566 26.1274 28.1583L32.9171 34.9501C31.281 36.2152 29.2307 36.9697 27.0056 36.9697ZM28.2478 17.6732C32.5993 18.232 36.0533 21.6877 36.6123 26.0394H28.2478V17.6732ZM36.6123 28.5231C36.3888 30.2665 35.701 31.8655 34.6744 33.1928L30.0038 28.5231H36.6123ZM39.1785 27.2811V27.2842C39.1785 30.5892 37.8509 33.5885 35.7054 35.7835C35.6776 35.8192 35.647 35.8549 35.6126 35.8877C35.5796 35.9216 35.5438 35.9527 35.5081 35.9806C33.3116 38.1277 30.3105 39.4536 27.0056 39.4536C20.2933 39.4536 14.8321 33.9935 14.8321 27.281C14.8321 20.5683 20.2933 15.1067 27.0056 15.1067C33.7172 15.1067 39.1771 20.5667 39.1785 27.2779V27.2811ZM23.5421 44.1654V58.2255H20.8443V44.1654H23.5421ZM26.0265 42.9234V59.4675C26.0265 60.1537 25.4704 60.7094 24.7842 60.7094H19.6021C18.9159 60.7094 18.3606 60.1537 18.3606 59.4675V42.9234C18.3606 42.2386 18.9159 41.6812 19.6021 41.6812H24.7842C25.4704 41.6813 26.0265 42.2386 26.0265 42.9234ZM13.9186 52.9102V58.2255H11.2194V52.9102H13.9186ZM16.4031 51.6682V59.4673C16.4031 60.1535 15.847 60.7093 15.1609 60.7093H9.97715C9.29098 60.7093 8.7349 60.1535 8.7349 59.4673V51.6682C8.7349 50.9818 9.29098 50.426 9.97715 50.426H15.1609C15.847 50.426 16.4031 50.9818 16.4031 51.6682ZM33.1678 47.7001V58.2254H30.4678V47.7001H33.1678ZM35.6514 46.4583V59.4675C35.6514 60.1537 35.0953 60.7094 34.4091 60.7094H29.2254C28.5394 60.7094 27.9839 60.1537 27.9839 59.4675V46.4583C27.9839 45.7721 28.5392 45.2164 29.2254 45.2164H34.4091C35.0953 45.2164 35.6514 45.772 35.6514 46.4583ZM25.6736 5.36861C25.6736 6.10275 26.2713 6.70044 27.0057 6.70044C27.7386 6.70044 28.3379 6.10275 28.3379 5.36861C28.3379 4.63571 27.7386 4.03787 27.0057 4.03787C26.2713 4.03802 25.6736 4.63571 25.6736 5.36861Z" fill="#242222"/>
</svg>
