<svg width="101" height="101" viewBox="0 0 101 101" fill="none" xmlns="http://www.w3.org/2000/svg">
<path d="M71.6097 5.40894V0.761771C71.5881 0.0166546 72.9096 0.0166546 72.8879 0.761771V5.40894C72.8879 6.15406 71.6097 6.17367 71.6097 5.40894ZM65.4139 94.0974H35.7345C32.9616 94.0974 30.7085 96.1366 30.7085 98.6465V100.196H70.4616V98.6465C70.4399 96.1366 68.1869 94.0974 65.4139 94.0974ZM42.4286 84.5873V91.8424H58.7198V84.5873H42.4286ZM0.574219 78.2538C0.574219 80.4892 2.58895 82.3128 5.05862 82.3128H96.0898C98.5595 82.3128 100.574 80.4892 100.574 78.2538V72.3517H0.574219V78.2538ZM96.0898 18.3897H88.5075V21.7819H95.5699C96.2631 21.7819 96.8264 22.2917 96.8264 22.9192V70.0772H100.574V22.4486C100.574 20.2132 98.5812 18.3897 96.0898 18.3897ZM12.3377 24.0565H6.83505V70.0968H94.3351V24.0565H88.5292V52.3513C88.5508 55.6062 85.5829 58.3122 81.9217 58.3122H18.9234C15.2839 58.3122 12.316 55.6062 12.3377 52.3513V24.0565ZM51.0725 5.40894C51.0725 5.40894 51.0725 0.800987 51.0725 0.761771C51.0725 0.0166546 49.7943 -0.00295371 49.7943 0.761771V5.40894C49.7943 6.17367 51.0508 6.15406 51.0725 5.40894ZM29.2354 5.40894C29.2354 5.40894 29.2354 0.800987 29.2354 0.761771C29.2354 -0.00295371 27.9572 0.0166546 27.9789 0.761771V5.40894C27.9789 6.15406 29.2354 6.17367 29.2354 5.40894ZM86.0162 7.91881C86.0162 5.87954 84.1747 4.21283 81.9217 4.21283H75.3792V5.40894C75.3792 6.97761 73.9711 8.25215 72.238 8.25215C70.5049 8.25215 69.0967 6.97761 69.0967 5.40894V4.21283H53.5422V5.40894C53.5422 6.97761 52.134 8.25215 50.4009 8.25215C48.6678 8.25215 47.2597 6.97761 47.2597 5.40894V4.21283H31.7051V5.40894C31.7051 6.97761 30.2969 8.25215 28.5855 8.25215C26.8524 8.25215 25.4442 6.97761 25.4442 5.40894V4.21283H18.9451C16.6704 4.21283 14.829 5.87954 14.829 7.91881V11.2914H86.0162V7.91881ZM4.32205 22.9192C4.32205 22.2917 4.88531 21.7819 5.57855 21.7819H12.3377V18.3897H5.05862C2.58895 18.3897 0.574219 20.2132 0.574219 22.4486V70.0772H4.32205V22.9192ZM14.829 52.3513V13.5464H86.0162V52.3513C86.0162 54.3709 84.1964 56.0376 81.9217 56.0376H18.9234C16.6487 56.0572 14.829 54.3905 14.829 52.3513ZM47.4763 47.8413L47.498 44.5079H51.2025C51.7007 45.606 53.6288 45.253 53.5855 44.0569C53.6288 43.0765 52.6756 42.2138 51.5924 42.253H46.9997C45.8948 42.253 45.0066 43.0569 45.0066 44.0569L44.985 48.2139C44.9416 49.1943 45.9165 50.0375 46.978 50.0179C48.2995 50.0375 48.6678 48.2727 47.4763 47.8413ZM74.6427 44.2922L69.7467 47.3315L68.3168 45.6256C67.3203 44.4491 65.3489 45.8021 66.3238 46.9982L68.4902 49.5473C68.7501 49.8414 69.0967 49.9983 69.4867 49.9983C69.725 49.9983 69.985 49.9394 70.1799 49.8022L76.0508 46.155C77.4156 45.3119 76.0075 43.4491 74.6427 44.2922ZM62.9876 23.2133C62.9876 23.7035 63.1825 24.1545 63.5725 24.5074C63.9408 24.8408 64.4607 25.0369 64.9806 25.0369H69.5734C70.6782 25.0369 71.5664 24.2133 71.5664 23.2329L71.5881 19.0759C71.6097 18.0955 70.6782 17.2328 69.595 17.272H65.0023C63.8974 17.272 63.0092 18.0759 63.0092 19.0759L62.9876 23.2133ZM62.9226 35.7038C62.9226 36.1744 63.1175 36.645 63.5075 36.9783C63.8974 37.3117 64.3957 37.5078 64.9373 37.5078H69.53C70.6349 37.5078 71.5231 36.6842 71.5231 35.7038L71.5448 31.5468C71.5664 30.5664 70.6132 29.7036 69.5517 29.7429H64.959C63.8541 29.7429 62.9659 30.5468 62.9659 31.5468L62.9226 35.7038ZM62.8792 48.1943C62.8576 49.1747 63.8108 50.0179 64.8723 49.9983C66.2155 50.0179 66.5837 48.2923 65.3706 47.8217L65.3922 44.4883H69.0967C69.6167 45.5668 71.5231 45.2334 71.5014 44.0373C71.5014 43.5471 71.3064 43.0961 70.9165 42.7628C70.5266 42.4098 70.0283 42.2334 69.4867 42.2334H64.894C63.8108 42.2334 62.9009 43.0373 62.9009 44.0373L62.8792 48.1943ZM56.7484 44.2922L51.8524 47.3315L50.4226 45.6256C49.426 44.4491 47.4546 45.8021 48.4295 46.9982L50.5959 49.5669C50.8342 49.8414 51.2025 50.0179 51.5924 50.0179C51.8524 50.0179 52.0907 49.959 52.3073 49.8218L58.1782 46.1746C59.4997 45.3119 58.0915 43.4491 56.7484 44.2922ZM56.6834 31.8017L51.7874 34.841L50.3359 33.1351C49.3394 31.9586 47.368 33.3116 48.3428 34.5077L50.5092 37.0568C50.9208 37.547 51.6574 37.6646 52.2207 37.3117L58.1132 33.6645C58.6765 33.3116 58.8281 32.6057 58.4165 32.0959C58.0482 31.586 57.2683 31.4488 56.6834 31.8017ZM44.9633 23.2329C44.9633 23.7035 45.1799 24.1741 45.5482 24.5074C45.9165 24.8408 46.4148 25.0369 46.9564 25.0369H51.5491C52.6539 25.0369 53.5422 24.2133 53.5422 23.2329L53.5638 19.0759C53.5855 18.0955 52.6539 17.2328 51.5708 17.272H46.978C45.8732 17.272 44.985 18.0759 44.985 19.0759L44.9633 23.2329ZM44.92 35.7038C44.8983 36.6842 45.8515 37.5274 46.913 37.5078C48.2562 37.5274 48.6245 35.8018 47.4113 35.3312L47.433 31.9978H51.1158C51.6141 33.0763 53.5638 32.7429 53.5205 31.5468C53.5205 31.0566 53.3255 30.6056 52.9356 30.2527C52.5673 29.9193 52.069 29.7233 51.5274 29.7233H46.9347C45.8299 29.7233 44.9416 30.5272 44.9416 31.5272L44.92 35.7038ZM26.9607 23.2329C26.939 24.1937 27.8922 25.0565 28.9538 25.0369H33.5465C34.6513 25.0369 35.5396 24.2133 35.5396 23.2329L35.5612 19.0759C35.5612 18.5857 35.3662 18.1347 34.9763 17.7818C34.608 17.4485 34.1097 17.2524 33.5682 17.2524H28.9754C27.8706 17.2524 26.9824 18.0563 26.9824 19.0563L26.9607 23.2329ZM26.9174 35.7038C26.8957 36.6842 27.8273 37.5274 28.9104 37.5078H33.5032C34.608 37.5078 35.4962 36.6842 35.4962 35.7038L35.5179 31.5468C35.5179 31.0566 35.3229 30.6056 34.933 30.2527C34.5647 29.9193 34.0448 29.7233 33.5248 29.7233H28.9321C27.8273 29.7233 26.939 30.5272 26.939 31.5272L26.9174 35.7038ZM26.874 48.1943C26.8307 49.1747 27.8056 50.0179 28.8671 49.9983H33.4598C34.5647 49.9983 35.4529 49.1747 35.4529 48.1943L35.4746 44.0373C35.4962 43.5471 35.2796 43.0961 34.8896 42.7432C34.5214 42.4098 34.0231 42.2138 33.4815 42.2138H28.8888C27.7839 42.2138 26.8957 43.0177 26.8957 44.0177L26.874 48.1943ZM69.0534 32.0174H65.4572L65.4356 35.2724H69.0318L69.0534 32.0174ZM69.0751 19.5269H65.4789L65.4572 22.7819H69.0534L69.0751 19.5269ZM51.0942 19.5269H47.498L47.4763 22.7819H51.0725L51.0942 19.5269ZM32.9832 44.4883H29.387L29.3654 47.7433H32.9616L32.9832 44.4883ZM33.0266 32.0174H29.4304L29.4087 35.2724H33.0266V32.0174ZM33.0699 19.5269H29.4737L29.452 22.7819H33.0482L33.0699 19.5269Z" fill="#5c4ae4"/>
</svg>
