<svg width="101" height="101" viewBox="0 0 101 101" fill="none" xmlns="http://www.w3.org/2000/svg">
<path d="M41.6063 40.6237C43.2148 40.6237 44.6624 41.7149 44.6624 42.9621V52.7837H39.676C39.3543 52.7837 39.0326 52.7837 38.7109 52.7837V42.9621C38.7109 41.7149 39.9977 40.6237 41.6063 40.6237Z" fill="#5c4ae4"/>
<path d="M46.5892 11.3148V6.63786C46.5892 -0.065773 36.7773 -1.46886 34.8471 4.92297C34.5254 6.01426 33.0778 6.48196 32.2735 5.85836C28.4131 3.20809 22.9442 5.85836 22.7833 10.5353C22.7833 11.6266 21.4965 12.4061 20.5314 12.0943C13.6148 9.59992 7.66332 16.6154 10.7195 22.5395C11.202 23.4749 10.5586 24.7221 9.59353 24.878C7.50246 25.3457 5.89395 26.7487 5.25055 28.6195C4.60715 30.4903 4.92885 32.517 6.05481 34.076C8.78927 36.4144 12.8105 36.4144 15.3842 33.9201C16.0276 33.2965 17.1535 33.2965 17.7969 33.9201C18.4403 34.5437 18.4403 35.6349 17.7969 36.2585C14.4191 39.6883 8.78927 40.3119 4.60715 37.3498C1.71183 39.0647 0.746726 42.0268 0.907577 44.2094C1.06843 46.5478 2.35524 49.354 5.4114 50.7571C9.27182 47.6391 14.9016 47.795 18.6012 51.2248C19.2446 51.8484 19.2446 52.9397 18.6012 53.5633C17.9578 54.1869 16.8318 54.1869 16.1884 53.5633C13.6148 51.2248 9.43268 51.2248 6.85906 53.7192C5.89395 55.2781 5.7331 56.993 6.37651 58.7079C7.50246 61.67 16.5101 68.0618 21.1748 63.5408C21.8182 62.9172 22.9442 62.9172 23.5876 63.5408C24.231 64.1643 24.231 65.2556 23.5876 65.8792C21.6573 67.75 19.0837 68.6854 16.5101 68.6854C15.2233 68.6854 13.9365 68.5295 12.8105 68.0618C12.9714 68.2177 12.9714 68.3736 13.1322 68.5295C14.2582 69.7767 15.8667 70.4003 17.7969 70.4003C18.762 70.4003 19.5663 71.3357 19.5663 72.2711C19.0837 78.6629 26.8046 82.8721 32.2735 78.6629C32.7561 78.3511 33.2386 78.1952 33.7212 78.3511C26.1612 71.4916 26.6437 57.7725 35.3297 53.8751V42.9622C35.3297 39.8442 38.225 37.3498 41.7637 37.3498C43.6939 37.3498 45.4633 38.1293 46.5892 39.3765C46.5892 35.4791 46.5892 27.3723 46.5892 15.3682C44.0156 13.1856 39.9944 13.1856 37.4207 15.68C36.7773 16.3036 35.6514 16.3036 35.008 15.68C34.3646 15.0564 34.3646 13.9651 35.008 13.3415C38.225 10.0676 42.8897 9.59992 46.5892 11.3148ZM31.3084 30.0226C31.1475 31.1139 30.0216 31.4257 29.2173 31.2698C28.2522 31.1139 27.7697 30.1785 27.9305 29.2431C28.7348 25.8134 26.322 22.3836 22.7833 21.6041C21.8182 21.4482 21.3356 20.5128 21.4965 19.5774C21.6573 18.642 22.6225 18.1743 23.5876 18.3302C29.0565 19.5774 32.5952 24.7221 31.3084 30.0226Z" fill="#5c4ae4"/>
<path d="M53.9866 52.7837H48.0352V44.8329C48.0352 42.8062 53.9866 42.8062 53.9866 44.8329V52.7837Z" fill="#5c4ae4"/>
<path d="M58.9718 63.6966C61.3846 61.3581 62.8322 57.9284 62.8322 54.3427C62.8322 53.4073 62.028 52.6278 61.0629 52.6278H57.3633V48.1068C57.3633 47.795 58.4892 47.0155 60.4195 47.0155C62.028 47.0155 63.3148 47.795 63.3148 48.1068V62.6053C63.3148 63.073 62.028 63.6966 60.4195 63.6966C59.9369 63.8525 59.4543 63.8525 58.9718 63.6966Z" fill="#5c4ae4"/>
<path d="M68.1411 93.3174V99.0856C68.1411 100.021 67.3368 100.801 66.3717 100.801H41.7615C40.7964 100.801 39.9922 100.021 39.9922 99.0856V93.3174H68.1411Z" fill="#5c4ae4"/>
<path d="M72.8109 65.4115C72.3283 66.8146 67.3419 66.6587 66.8594 65.4115C66.8594 65.0997 66.8594 51.2247 66.8594 52.0042C67.0202 51.6924 67.9853 51.0688 69.9155 51.0688C71.5241 51.0688 72.8109 51.6924 72.8109 52.0042V65.4115Z" fill="#5c4ae4"/>
<path d="M72.8043 69.309V75.0772C72.8043 77.5716 71.8392 80.066 70.2307 81.6249C68.1396 83.8075 66.8528 86.7696 66.692 89.8876H41.9209V88.4845C41.9209 82.2485 38.7039 78.3511 36.2911 76.0126C28.5703 69.4649 31.3048 56.0576 39.669 56.0576H59.2928C58.8103 58.7079 57.3626 61.0464 55.1107 62.6053C52.0545 64.7879 48.1941 63.6966 40.9558 64.0084C39.9907 64.0084 39.1864 64.7879 39.1864 65.7233C39.1864 66.5028 39.8299 67.2823 40.6341 67.4382C41.1167 67.5941 41.7601 67.75 42.2426 67.9059C53.5022 70.5562 50.1243 75.5449 53.3413 75.5449C54.3064 75.5449 55.1107 74.7654 55.1107 73.83C55.1107 72.4269 52.6979 68.9972 50.446 67.4382H50.6069C52.5371 67.4382 54.4673 66.9705 56.0758 66.0351C58.006 67.4382 61.223 67.75 63.7966 66.6587C64.7617 69.4649 69.4264 70.4003 72.8043 69.309Z" fill="#5c4ae4"/>
<path d="M96.2918 50.6012C92.4314 47.4832 86.8016 47.6391 83.102 51.0689C82.4586 51.6925 82.2978 52.7838 82.9412 53.4074C83.5846 54.031 84.7106 54.031 85.354 53.4074C87.9276 51.0689 92.1097 51.0689 94.6833 53.5633C96.7744 56.8371 95.1659 61.0464 91.3054 62.1377C90.5012 62.2936 90.0186 63.229 90.1795 64.0084C90.3403 65.4115 89.8578 67.1264 88.7318 68.2177C87.6059 69.4649 85.8365 70.2444 83.9063 70.2444C82.9412 70.2444 82.1369 71.0239 82.1369 71.9593C82.1369 76.7921 78.9199 79.7542 75.0595 80.2219C75.7029 78.6629 76.1854 76.7921 76.1854 75.0772C76.1854 49.0422 76.1854 54.4986 76.1854 52.0043C76.1854 48.4186 70.7165 46.8596 66.8561 48.2627C66.8561 44.5212 61.3872 42.9622 57.3659 44.3653C57.205 42.9622 56.2399 41.715 54.9531 41.0914C54.9531 40.3119 54.9531 38.9088 54.9531 36.8821C59.1352 38.9088 63.6391 37.8175 66.5344 35.0114C67.1778 34.3878 67.1778 33.2965 66.5344 32.6729C65.891 32.0493 64.765 32.0493 64.1216 32.6729C61.7089 35.0114 57.6876 35.1673 54.9531 32.9847V15.2123C57.5267 13.0297 61.548 13.0297 64.1216 15.5241C64.765 16.1477 65.891 16.1477 66.5344 15.5241C67.1778 14.9005 67.1778 13.8092 66.5344 13.1856C63.4782 10.2235 58.8135 9.59992 54.9531 11.3148V6.63786C54.9531 -0.065773 64.765 -1.46886 66.6952 4.92297C66.8561 5.54657 67.3386 6.01426 67.8212 6.17016C68.3038 6.32606 68.9472 6.32606 69.4297 6.01426C73.2901 3.36399 78.7591 6.01426 78.9199 10.6912C78.9199 11.1589 79.2416 11.7825 79.7242 11.9384C80.2067 12.2502 80.6893 12.2502 81.3327 12.0943C88.4101 9.59992 94.2008 16.6154 91.1446 22.5395C90.9837 23.0072 90.9837 23.4749 91.1446 23.9426C91.3054 24.4103 91.788 24.7221 92.2705 24.878C96.6135 25.8134 98.5437 30.6462 95.8093 34.076C93.2356 36.4144 89.0535 36.4144 86.4799 33.9201C85.8365 33.2965 84.7106 33.2965 84.0671 33.9201C83.4237 34.5437 83.4237 35.6349 84.0671 36.2585C85.9974 38.2852 88.7318 39.2206 91.3054 39.2206C93.3965 39.2206 95.4876 38.597 97.2569 37.3498C102.404 40.4678 102.082 48.1068 96.2918 50.6012Z" fill="#5c4ae4"/>
</svg>
