<svg width="115" height="113" viewBox="0 0 115 113" fill="none" xmlns="http://www.w3.org/2000/svg">
<path d="M89.9812 100.966C80.625 108.095 68.9436 112.327 56.2733 112.327C44.8606 112.327 34.2501 108.893 25.4188 103.002C24.5058 102.393 24.9464 100.966 26.0439 100.966H89.9812ZM103.871 32.8017C105.13 32.8017 105.943 31.4583 105.348 30.3494C95.9582 12.871 77.5034 0.986938 56.2733 0.986938C34.0645 0.986938 14.893 13.9917 5.95898 32.8017H103.871Z" fill="#F1F1F1"/>
<path d="M95.4516 24.2524L87.3601 70.141C87.0736 71.7656 85.3037 72.8113 83.4066 72.4768L9.21714 59.395C7.32026 59.0606 6.01462 57.4725 6.30115 55.8478L14.3926 9.95921C14.6792 8.33455 16.449 7.28886 18.3461 7.62334L92.5356 20.7051C94.4325 21.0396 95.7382 22.6277 95.4516 24.2524Z" fill="#D7DDFF"/>
<path d="M95.6902 10.4218L105.159 64.1236C105.495 66.0248 104.088 67.8619 102.019 68.2268L21.0667 82.5009C18.9969 82.8658 17.0471 81.6204 16.7119 79.7192L7.24275 26.0174C6.90759 24.1162 8.31366 22.2791 10.3835 21.9142L91.3354 7.64015C93.4054 7.27522 95.355 8.52064 95.6902 10.4218Z" fill="#5C4AE4"/>
<path d="M111.944 56.6573C111.944 75.9965 102.083 93.0325 87.1143 103.011H25.4331C10.4646 93.0325 0.603516 75.9965 0.603516 56.6573C0.603516 52.5902 0.603516 42.8811 0.603516 41.6605V25.7547C0.603516 23.2448 2.63809 21.2102 5.14802 21.2102H36.9596C39.4695 21.2102 41.5041 23.2448 41.5041 25.7547V30.2992H105.321C109.546 38.1453 111.944 47.1214 111.944 56.6573Z" fill="#D7DDFF"/>
<path d="M14.0098 21.2102C11.4999 21.2102 9.4653 23.2448 9.4653 25.7547V86.8051C4.01099 78.3542 0.783024 68.3315 0.610787 57.5662H0.603516V25.7547C0.603516 23.2448 2.63809 21.2102 5.14802 21.2102H14.0098Z" fill="#5C4AE4"/>
<path d="M74.6953 80.7126V59.9744C74.6953 50.7629 82.1894 43.2686 91.4011 43.2686C100.613 43.2686 108.107 50.7627 108.107 59.9744V80.7126H102.346V59.9744C102.346 53.9393 97.4362 49.0292 91.4011 49.0292C85.366 49.0292 80.4559 53.9391 80.4559 59.9744V80.7126H74.6953Z" fill="#8892A0"/>
<path d="M78.7277 59.9744V80.7126H74.6953V59.9744C74.6953 50.7629 82.1894 43.2686 91.4011 43.2686C92.0835 43.2686 92.7563 43.3097 93.4173 43.3894C85.1527 44.3881 78.7277 51.445 78.7277 59.9744Z" fill="#333333"/>
<path d="M110.122 107.556H72.6779C70.2918 107.556 68.3574 105.621 68.3574 103.235V71.5518C68.3574 69.1657 70.2918 67.2313 72.6779 67.2313H110.122C112.508 67.2313 114.442 69.1657 114.442 71.5518V103.235C114.442 105.621 112.508 107.556 110.122 107.556Z" fill="#5C4AE4"/>
<path d="M94.5693 100.067C83.5932 100.067 74.6953 91.1688 74.6953 80.1927V71.5518C74.6953 69.1657 76.6297 67.2313 79.0158 67.2313H110.123C112.509 67.2313 114.443 69.1657 114.443 71.5518V80.1927C114.443 91.1688 105.545 100.067 94.5693 100.067Z" fill="#D7DDFF"/>
<path d="M93.5621 83.74V92.146C93.5621 93.3389 92.595 94.3062 91.4019 94.3062C90.2087 94.3062 89.2416 93.3391 89.2416 92.146V83.74C87.5388 82.9308 86.3613 81.1953 86.3613 79.1846C86.3613 76.4008 88.6181 74.144 91.4019 74.144C94.1856 74.144 96.4424 76.4008 96.4424 79.1846C96.4424 81.1955 95.2652 82.9311 93.5621 83.74Z" fill="#333333"/>
</svg>
