<svg width="123" height="128" viewBox="0 0 123 128" fill="none" xmlns="http://www.w3.org/2000/svg">
<path fill-rule="evenodd" clip-rule="evenodd" d="M29.2903 68.3226V83.6657C29.2903 84.52 28.5979 85.2124 27.7436 85.2124C26.8893 85.2124 26.1969 84.52 26.1969 83.6657V67.1683L29.2903 68.3229V68.3226ZM24.8923 98.2623L35.1509 92.3393L9.0403 84.4491L2.81824 111.007L12.9599 105.151C20.2236 114.917 30.7967 122.283 43.4927 125.685C66.3395 131.807 89.6547 123.382 103.612 106.091L93.722 109.079L91.3486 98.9493C80.6417 110.962 63.7125 116.636 47.1091 112.187C38.1458 109.785 30.5768 104.779 24.8923 98.2623ZM4.42757 90.5768L6.78033 80.5344L16.7459 83.5458C14.1242 75.6632 13.7023 66.9512 16.013 58.3266C20.5525 41.3853 34.3894 29.4191 50.5628 26.4443V38.1801L70.4514 19.5129L50.5628 0.845947V12.2891C28.1787 15.3897 8.73173 31.5108 2.51561 54.7105C-0.789395 67.045 0.146607 79.5157 4.42757 90.5771V90.5768ZM73.4898 13.7334C107.168 22.7576 125.276 59.2263 112.173 91.5479L122.093 97.2747L95.982 105.165L89.7599 78.6075L99.9167 84.4715C108.866 59.2758 93.5248 32.0451 67.3789 26.64L74.9713 19.5136L67.4488 12.4528C69.4615 12.7691 71.4776 13.1942 73.4898 13.7334ZM90.7856 63.8666L58.4911 51.8151L26.1966 63.8666L58.4911 75.9184L90.7856 63.8666ZM77.4695 83.6657C77.4695 85.1026 68.9725 86.2672 58.4911 86.2672C48.0098 86.2672 39.5128 85.1026 39.5128 83.6657V72.1378L58.4911 79.22L77.4695 72.1375V83.6657Z" fill="#5C4AE4"/>
</svg>
