<svg width="108" height="119" viewBox="0 0 108 119" fill="none" xmlns="http://www.w3.org/2000/svg">
<path d="M79.186 30.1574C86.8973 29.2808 92.4379 22.3189 91.5613 14.6076C90.6846 6.89625 83.7227 1.35565 76.0114 2.23229C68.3001 3.10892 62.7595 10.0708 63.6361 17.7822C64.5128 25.4935 71.4747 31.0341 79.186 30.1574Z" fill="#5C4AE4"/>
<path d="M86.0251 4.97217C88.0707 7.67688 89.0687 11.0303 88.8351 14.4133C88.6015 17.7964 87.152 20.9807 84.7541 23.3786C82.3562 25.7765 79.1719 27.226 75.7888 27.4596C72.4057 27.6932 69.0524 26.6952 66.3477 24.6496C67.5584 26.2516 69.0986 27.5753 70.8643 28.5316C72.6301 29.4878 74.5803 30.0544 76.5835 30.1931C78.5868 30.3318 80.5965 30.0394 82.4771 29.3356C84.3578 28.6318 86.0657 27.5329 87.4857 26.1131C88.9057 24.6933 90.0047 22.9856 90.7088 21.105C91.4129 19.2245 91.7056 17.2148 91.5672 15.2116C91.4288 13.2083 90.8625 11.258 89.9064 9.49214C88.9504 7.72628 87.6269 6.18593 86.0251 4.97492V4.97217Z" fill="#5C4AE4"/>
<path d="M83.9187 17.2337C83.9772 17.233 84.0352 17.2443 84.0892 17.2668C84.1431 17.2893 84.192 17.3226 84.2327 17.3647C84.2734 17.4067 84.3051 17.4566 84.3258 17.5113C84.3466 17.5659 84.356 17.6243 84.3534 17.6827C84.2384 19.4057 83.4729 21.0206 82.2118 22.2002C80.9508 23.3799 79.2885 24.0362 77.5617 24.0362C75.8349 24.0362 74.1726 23.3799 72.9116 22.2002C71.6505 21.0206 70.885 19.4057 70.7699 17.6827C70.7674 17.6243 70.7768 17.5659 70.7976 17.5113C70.8183 17.4566 70.85 17.4067 70.8907 17.3647C70.9314 17.3226 70.9802 17.2893 71.0342 17.2668C71.0882 17.2443 71.1462 17.233 71.2047 17.2337H83.9187Z" fill="#5C4AE4"/>
<path d="M70.768 17.6828C70.81 18.3113 70.9395 18.9308 71.1527 19.5235H83.9695C84.183 18.9309 84.3125 18.3113 84.3542 17.6828C84.3567 17.6243 84.3472 17.566 84.3264 17.5114C84.3057 17.4567 84.274 17.4069 84.2333 17.3649C84.1926 17.3228 84.1438 17.2896 84.0899 17.267C84.0359 17.2445 83.9779 17.2331 83.9195 17.2337H71.205C71.1463 17.2327 71.088 17.2438 71.0338 17.2662C70.9795 17.2886 70.9304 17.3218 70.8895 17.3639C70.8486 17.4059 70.8167 17.4559 70.7958 17.5108C70.7749 17.5656 70.7654 17.6241 70.768 17.6828Z" fill="white"/>
<path d="M74.3024 11.2052C74.3026 11.5562 74.1986 11.8993 74.0037 12.1911C73.8088 12.483 73.5317 12.7105 73.2075 12.8448C72.8833 12.9792 72.5266 13.0144 72.1824 12.946C71.8382 12.8776 71.522 12.7087 71.2738 12.4606C71.0256 12.2125 70.8565 11.8963 70.788 11.5521C70.7195 11.2079 70.7546 10.8512 70.8889 10.5269C71.0232 10.2027 71.2506 9.92556 71.5424 9.73058C71.8342 9.53559 72.1772 9.43152 72.5282 9.43152C72.7612 9.43145 72.9919 9.47727 73.2071 9.56638C73.4224 9.65548 73.618 9.78612 73.7827 9.95083C73.9475 10.1155 74.0782 10.3111 74.1674 10.5263C74.2566 10.7416 74.3024 10.9723 74.3024 11.2052Z" fill="#5C4AE4"/>
<path d="M84.3669 11.2052C84.367 11.5562 84.263 11.8993 84.0681 12.1912C83.8732 12.483 83.5961 12.7105 83.2719 12.8449C82.9476 12.9793 82.5908 13.0144 82.2466 12.946C81.9024 12.8775 81.5862 12.7086 81.338 12.4604C81.0899 12.2122 80.9209 11.896 80.8524 11.5518C80.784 11.2076 80.8192 10.8508 80.9535 10.5266C81.0879 10.2023 81.3154 9.92522 81.6072 9.73031C81.8991 9.53539 82.2422 9.43141 82.5932 9.43152C83.0636 9.43152 83.5148 9.61839 83.8474 9.95103C84.18 10.2837 84.3669 10.7348 84.3669 11.2052Z" fill="#5C4AE4"/>
<path d="M58.612 34.9726L61.1217 26.8768C61.7201 24.946 61.5269 22.8566 60.5848 21.0682C59.6427 19.2798 58.0287 17.9389 56.0979 17.3404C55.8458 17.2622 55.5808 17.2345 55.318 17.2588C55.0552 17.283 54.7997 17.3588 54.5662 17.4818C54.3327 17.6049 54.1257 17.7727 53.9571 17.9757C53.7884 18.1787 53.6614 18.4129 53.5833 18.6651L52.8918 20.895C52.8847 20.9115 45.0709 38.6031 40.6621 38.5058V68.6585H43.0443C44.429 68.6583 45.7827 69.0681 46.9347 69.8364C48.0866 70.6044 49.4401 71.0142 50.8246 71.0143H68.813V34.9726H58.612Z" fill="#5C4AE4"/>
<path d="M46.9347 67.0881C45.7827 66.3198 44.429 65.91 43.0443 65.9102H40.6621V68.6584H43.0443C44.429 68.6582 45.7827 69.0681 46.9347 69.8363C48.0866 70.6043 49.4401 71.0142 50.8246 71.0142H68.813V68.266H50.8246C49.4401 68.2659 48.0866 67.8561 46.9347 67.0881Z" fill="#5C4AE4"/>
<path d="M57.7029 34.9727C57.3648 34.9731 57.0316 35.0548 56.7316 35.2109C56.4316 35.367 56.1735 35.5928 55.979 35.8694C55.7844 36.1461 55.6592 36.4654 55.6138 36.8005C55.5684 37.1356 55.6042 37.4767 55.7181 37.7951C56.5968 40.3084 56.5484 43.053 55.5816 45.5337C54.6149 48.0145 52.7935 50.0681 50.4459 51.3242C50.2521 51.4318 50.0907 51.5893 49.9783 51.7803C49.8659 51.9713 49.8066 52.1889 49.8066 52.4106C49.8066 52.6322 49.8659 52.8498 49.9783 53.0408C50.0907 53.2318 50.2521 53.3893 50.4459 53.497C52.4998 54.5982 54.1583 56.3136 55.1895 58.4035C56.2207 60.4935 56.5731 62.8534 56.1974 65.1534C56.0893 65.8829 56.1404 66.6272 56.347 67.3352C56.5537 68.0431 56.9111 68.698 57.3948 69.2548C57.8784 69.8116 58.4768 70.2571 59.1489 70.5608C59.821 70.8646 60.5508 71.0192 61.2883 71.0143H68.813V34.9727H57.7029Z" fill="#5C4AE4"/>
<path d="M77.4539 52.9934H65.97C64.7747 52.9934 63.6282 52.5185 62.783 51.6733C61.9377 50.828 61.4629 49.6816 61.4629 48.4863C61.4629 47.2909 61.9377 46.1445 62.783 45.2992C63.6282 44.454 64.7747 43.9791 65.97 43.9791H77.4539C78.6492 43.9791 79.7956 44.454 80.6409 45.2992C81.4861 46.1445 81.961 47.2909 81.961 48.4863C81.961 49.6816 81.4861 50.828 80.6409 51.6733C79.7956 52.5185 78.6492 52.9934 77.4539 52.9934Z" fill="#5C4AE4"/>
<path d="M78.9575 44.2391C79.1971 44.9187 79.2703 45.6458 79.171 46.3595C79.0716 47.0732 78.8025 47.7527 78.3864 48.341C77.9702 48.9293 77.4191 49.4092 76.7792 49.7405C76.1393 50.0718 75.4293 50.2449 74.7087 50.2452H63.2232C62.7121 50.2456 62.2046 50.1588 61.7227 49.9885C62.0333 50.8672 62.6086 51.628 63.3696 52.1661C64.1305 52.7042 65.0395 52.9933 65.9714 52.9934H77.4553C78.5174 52.9919 79.5448 52.6154 80.3564 51.9302C81.1679 51.2451 81.7114 50.2953 81.8911 49.2485C82.0707 48.2018 81.8749 47.1252 81.3382 46.2087C80.8014 45.2922 79.9583 44.5946 78.9575 44.2391Z" fill="#5C4AE4"/>
<path d="M75.2194 62.004H63.7317C63.1399 62.004 62.5538 61.8874 62.0069 61.6609C61.4601 61.4344 60.9632 61.1024 60.5447 60.6839C60.1262 60.2654 59.7942 59.7685 59.5677 59.2217C59.3412 58.6749 59.2246 58.0888 59.2246 57.4969C59.2246 56.3015 59.6995 55.1551 60.5447 54.3099C61.39 53.4646 62.5364 52.9897 63.7317 52.9897H75.2194C76.4148 52.9897 77.5612 53.4646 78.4064 54.3099C79.2517 55.1551 79.7266 56.3015 79.7266 57.4969C79.7266 58.0888 79.61 58.6749 79.3835 59.2217C79.157 59.7685 78.825 60.2654 78.4064 60.6839C77.9879 61.1024 77.4911 61.4344 76.9442 61.6609C76.3974 61.8874 75.8113 62.004 75.2194 62.004Z" fill="#5C4AE4"/>
<path d="M76.7172 53.2495C76.9569 53.9291 77.0301 54.6562 76.9307 55.3699C76.8314 56.0836 76.5623 56.7631 76.1462 57.3514C75.73 57.9396 75.1789 58.4196 74.539 58.7509C73.8991 59.0822 73.189 59.2553 72.4684 59.2555H60.983C60.4718 59.256 59.9643 59.1692 59.4824 58.9988C59.793 59.8775 60.3684 60.6383 61.1293 61.1765C61.8902 61.7146 62.7992 62.0037 63.7312 62.0038H75.2189C76.2808 62.0019 77.308 61.6251 78.1193 60.9398C78.9305 60.2545 79.4738 59.3048 79.6532 58.2581C79.8326 57.2114 79.6366 56.135 79.0999 55.2187C78.5632 54.3023 77.7201 53.605 76.7194 53.2495H76.7172Z" fill="#5C4AE4"/>
<path d="M72.9792 71.0143H61.4954C60.3 71.0143 59.1536 70.5394 58.3084 69.6942C57.4631 68.8489 56.9883 67.7025 56.9883 66.5071C56.9883 65.3118 57.4631 64.1654 58.3084 63.3201C59.1536 62.4749 60.3 62 61.4954 62H72.9792C74.1746 62 75.321 62.4749 76.1663 63.3201C77.0115 64.1654 77.4864 65.3118 77.4864 66.5071C77.4864 67.7025 77.0115 68.8489 76.1663 69.6942C75.321 70.5394 74.1746 71.0143 72.9792 71.0143Z" fill="#5C4AE4"/>
<path d="M74.4793 62.2601C74.7189 62.9397 74.7921 63.6668 74.6927 64.3805C74.5934 65.0942 74.3243 65.7737 73.9082 66.362C73.492 66.9503 72.9409 67.4302 72.301 67.7615C71.6611 68.0928 70.9511 68.2659 70.2305 68.2662H58.7466C58.2355 68.2666 57.728 68.1798 57.2461 68.0095C57.5567 68.8882 58.1321 69.649 58.893 70.1871C59.6539 70.7252 60.5629 71.0143 61.4949 71.0144H72.9787C74.0407 71.0125 75.0678 70.6357 75.8791 69.9504C76.6903 69.2651 77.2336 68.3154 77.413 67.2687C77.5924 66.222 77.3965 65.1456 76.8597 64.2293C76.323 63.313 75.48 62.6156 74.4793 62.2601Z" fill="#5C4AE4"/>
<path d="M79.6921 43.983H68.2083C67.0129 43.983 65.8665 43.5082 65.0213 42.6629C64.176 41.8177 63.7012 40.6712 63.7012 39.4759C63.7012 38.2805 64.176 37.1341 65.0213 36.2889C65.8665 35.4436 67.0129 34.9688 68.2083 34.9688H79.6921C80.8875 34.9688 82.0339 35.4436 82.8792 36.2889C83.7244 37.1341 84.1993 38.2805 84.1993 39.4759C84.1993 40.6712 83.7244 41.8177 82.8792 42.6629C82.0339 43.5082 80.8875 43.983 79.6921 43.983Z" fill="#5C4AE4"/>
<path d="M81.1927 35.2288C81.4324 35.9084 81.5056 36.6356 81.4062 37.3493C81.3068 38.063 81.0377 38.7426 80.6215 39.3308C80.2052 39.9191 79.654 40.399 79.0141 40.7303C78.3741 41.0616 77.664 41.2346 76.9434 41.2348H65.4601C64.9487 41.2353 64.4411 41.1484 63.959 40.9781C64.2696 41.8569 64.8451 42.6177 65.6061 43.1559C66.3671 43.694 67.2763 43.983 68.2083 43.983H79.6916C80.7536 43.9813 81.7809 43.6045 82.5922 42.9193C83.4036 42.2341 83.9469 41.2844 84.1264 40.2376C84.3059 39.1909 84.11 38.1144 83.5732 37.198C83.0365 36.2817 82.1934 35.5842 81.1927 35.2288Z" fill="#5C4AE4"/>
<path d="M37.6671 34.4121H25.389C23.7352 34.4121 22.3945 35.7528 22.3945 37.4066V69.6985C22.3945 71.3523 23.7352 72.693 25.389 72.693H37.6671C39.3209 72.693 40.6616 71.3523 40.6616 69.6985V37.4066C40.6616 35.7528 39.3209 34.4121 37.6671 34.4121Z" fill="#5C4AE4"/>
<path d="M37.6666 34.4121H36.681V65.718C36.681 66.1112 36.6036 66.5006 36.4531 66.8639C36.3026 67.2272 36.082 67.5573 35.804 67.8354C35.5259 68.1135 35.1958 68.334 34.8325 68.4845C34.4692 68.635 34.0798 68.7125 33.6865 68.7125H22.3945V69.698C22.3945 70.0913 22.4719 70.4807 22.6223 70.8441C22.7728 71.2075 22.9933 71.5376 23.2714 71.8158C23.5495 72.0939 23.8796 72.3145 24.243 72.465C24.6063 72.6156 24.9957 72.693 25.389 72.693H37.6666C38.4609 72.693 39.2227 72.3775 39.7844 71.8158C40.346 71.2541 40.6616 70.4923 40.6616 69.698V37.4066C40.6614 36.6124 40.3458 35.8507 39.7842 35.2891C39.2225 34.7276 38.4608 34.4121 37.6666 34.4121Z" fill="#5C4AE4"/>
<path d="M37.6824 6.8498C36.0782 10.3303 33.2847 13.1241 29.8043 14.7285C29.5238 14.8549 29.2859 15.0596 29.119 15.318C28.9521 15.5764 28.8633 15.8774 28.8633 16.185C28.8633 16.4926 28.9521 16.7937 29.119 17.0521C29.2859 17.3105 29.5238 17.5152 29.8043 17.6416C33.2849 19.2443 36.0787 22.0374 37.6824 25.5176C37.8085 25.7989 38.0133 26.0377 38.2721 26.2053C38.5309 26.3729 38.8326 26.462 39.1409 26.462C39.4492 26.462 39.7509 26.3729 40.0097 26.2053C40.2684 26.0377 40.4732 25.7989 40.5994 25.5176C42.2023 22.0364 44.9963 19.2426 48.4775 17.64C48.7579 17.5135 48.9959 17.3088 49.1628 17.0504C49.3297 16.7921 49.4185 16.491 49.4185 16.1834C49.4185 15.8758 49.3297 15.5747 49.1628 15.3164C48.9959 15.058 48.7579 14.8533 48.4775 14.7268C44.9964 13.1234 42.2025 10.3293 40.5994 6.84815C40.4732 6.56683 40.2684 6.32799 40.0097 6.16042C39.7509 5.99284 39.4492 5.90369 39.1409 5.90369C38.8326 5.90369 38.5309 5.99284 38.2721 6.16042C38.0133 6.32799 37.8085 6.56683 37.6824 6.84815V6.8498Z" fill="#5C4AE4"/>
<path d="M49.2764 15.525C49.1165 15.1715 48.8334 14.8884 48.48 14.7285C47.8467 14.4364 47.2329 14.1037 46.6425 13.7325C46.5952 13.9848 46.4878 14.2219 46.3292 14.4238C46.1706 14.6256 45.9657 14.7861 45.7317 14.8918C42.2499 16.4941 39.4553 19.2879 37.852 22.7693C37.7463 23.0044 37.5854 23.2105 37.383 23.37C37.1806 23.5295 36.9427 23.6378 36.6895 23.6856C37.0596 24.2742 37.3911 24.8861 37.6821 25.5176C37.8084 25.7987 38.0133 26.0373 38.272 26.2048C38.5308 26.3722 38.8324 26.4613 39.1406 26.4613C39.4488 26.4613 39.7504 26.3722 40.0092 26.2048C40.268 26.0373 40.4728 25.7987 40.5991 25.5176C42.202 22.0365 44.996 19.2427 48.4772 17.64C48.6687 17.5537 48.8412 17.4305 48.985 17.2775C49.1288 17.1244 49.241 16.9446 49.3152 16.7481C49.3895 16.5517 49.4242 16.3426 49.4176 16.1327C49.4109 15.9228 49.363 15.7163 49.2764 15.525Z" fill="#5C4AE4"/>
<path d="M53.2781 76.2228C51.6739 79.7031 48.8803 82.4968 45.4 84.1009C45.1195 84.2274 44.8816 84.4321 44.7147 84.6904C44.5478 84.9488 44.459 85.2499 44.459 85.5575C44.459 85.8651 44.5478 86.1661 44.7147 86.4245C44.8816 86.6829 45.1195 86.8876 45.4 87.0141C48.8808 88.6172 51.6747 91.4109 53.2781 94.8916C53.4042 95.173 53.609 95.4118 53.8678 95.5794C54.1266 95.7469 54.4283 95.8361 54.7366 95.8361C55.0449 95.8361 55.3466 95.7469 55.6054 95.5794C55.8642 95.4118 56.0689 95.173 56.1951 94.8916C57.7981 91.4106 60.5921 88.6169 64.0732 87.0141C64.3536 86.8876 64.5916 86.6829 64.7585 86.4245C64.9254 86.1661 65.0142 85.8651 65.0142 85.5575C65.0142 85.2499 64.9254 84.9488 64.7585 84.6904C64.5916 84.4321 64.3536 84.2274 64.0732 84.1009C60.5923 82.4976 57.7984 79.7037 56.1951 76.2228C56.0689 75.9415 55.8642 75.7026 55.6054 75.5351C55.3466 75.3675 55.0449 75.2783 54.7366 75.2783C54.4283 75.2783 54.1266 75.3675 53.8678 75.5351C53.609 75.7026 53.4042 75.9415 53.2781 76.2228Z" fill="#5C4AE4"/>
<path d="M64.8699 84.8973C64.7096 84.5439 64.4264 84.2609 64.073 84.1008C63.4395 83.809 62.8258 83.4763 62.2355 83.1049C62.1882 83.3571 62.0807 83.5943 61.9221 83.7961C61.7636 83.9979 61.5586 84.1584 61.3247 84.2641C57.8437 85.867 55.0498 88.6608 53.4466 92.1416C53.3414 92.3769 53.1809 92.5831 52.9786 92.7427C52.7763 92.9022 52.5384 93.0104 52.2852 93.0579C52.6555 93.6464 52.9871 94.2583 53.2778 94.8899C53.404 95.1712 53.6087 95.41 53.8675 95.5776C54.1263 95.7452 54.428 95.8344 54.7363 95.8344C55.0446 95.8344 55.3463 95.7452 55.6051 95.5776C55.8639 95.41 56.0687 95.1712 56.1948 94.8899C57.798 91.409 60.5919 88.6153 64.073 87.0123C64.4591 86.8375 64.76 86.5165 64.9094 86.1198C65.0589 85.7232 65.0447 85.2834 64.8699 84.8973Z" fill="#5C4AE4"/>
<path d="M94.9716 35.5311C93.4751 38.7783 90.8688 41.3848 87.6217 42.8815C87.3606 42.9999 87.1392 43.1909 86.984 43.4317C86.8287 43.6726 86.7461 43.9531 86.7461 44.2397C86.7461 44.5263 86.8287 44.8068 86.984 45.0477C87.1392 45.2886 87.3606 45.4796 87.6217 45.5979C90.8692 47.0935 93.4757 49.6999 94.9716 52.9473C95.0894 53.2095 95.2806 53.4321 95.5219 53.5883C95.7633 53.7444 96.0447 53.8275 96.3322 53.8275C96.6197 53.8275 96.9011 53.7444 97.1425 53.5883C97.3839 53.4321 97.575 53.2095 97.6929 52.9473C99.1885 49.6995 101.795 47.093 105.043 45.5979C105.304 45.4796 105.526 45.2886 105.681 45.0477C105.836 44.8068 105.919 44.5263 105.919 44.2397C105.919 43.9531 105.836 43.6726 105.681 43.4317C105.526 43.1909 105.304 42.9999 105.043 42.8815C101.796 41.3854 99.189 38.7788 97.6929 35.5311C97.5752 35.2686 97.3842 35.0458 97.1427 34.8895C96.9013 34.7332 96.6198 34.65 96.3322 34.65C96.0446 34.65 95.7631 34.7332 95.5217 34.8895C95.2803 35.0458 95.0893 35.2686 94.9716 35.5311Z" fill="#5C4AE4"/>
<path d="M105.785 43.6246C105.636 43.2949 105.372 43.0307 105.042 42.8815C104.381 42.5765 103.742 42.2238 103.132 41.8262C103.08 42.0498 102.978 42.2585 102.833 42.436C102.688 42.6136 102.503 42.7551 102.294 42.8496C99.0461 44.3447 96.4392 46.9512 94.9436 50.199C94.794 50.5328 94.5267 50.7999 94.1928 50.9493C94.1045 50.9891 94.0124 51.02 93.918 51.0416C94.3143 51.6504 94.6658 52.2873 94.9695 52.9472C95.0873 53.2095 95.2784 53.4321 95.5198 53.5882C95.7612 53.7444 96.0426 53.8275 96.3301 53.8275C96.6176 53.8275 96.899 53.7444 97.1404 53.5882C97.3818 53.4321 97.5729 53.2095 97.6908 52.9472C99.1864 49.6995 101.793 47.093 105.041 45.5979C105.22 45.5172 105.38 45.4021 105.514 45.2593C105.648 45.1164 105.753 44.9486 105.822 44.7654C105.891 44.5822 105.923 44.3871 105.917 44.1914C105.911 43.9956 105.866 43.8031 105.785 43.6246Z" fill="#5C4AE4"/>
<path d="M0.288183 55.5236C0.841131 60.3144 2.88638 76.6736 5.993 86.1782C9.66136 97.4092 20.6236 100.808 27.1721 105.928C31.162 108.877 32.5252 114.523 32.3212 118.498L32.3553 118.548C32.4403 118.661 32.5484 118.754 32.6724 118.821C32.7964 118.888 32.9333 118.928 33.0739 118.937C33.2146 118.947 33.3557 118.927 33.4877 118.877C33.6198 118.828 33.7397 118.751 33.8394 118.651L44.0376 108.452C45.7636 106.732 46.8754 104.492 47.2013 102.077C47.5273 99.6623 47.0492 97.2073 45.841 95.0913C43.9205 91.7483 40.8771 88.8423 38.0816 85.4482C34.5617 80.9386 31.9015 75.8199 30.2337 70.3477C30.049 69.1165 28.8788 68.7631 27.9119 69.4331C24.4959 71.8032 23.0679 76.7126 25.2115 80.0237L26.3207 81.787C26.3965 81.9182 26.4248 82.0714 26.4009 82.2209C26.377 82.3705 26.3024 82.5073 26.1896 82.6083C26.0767 82.7093 25.9326 82.7685 25.7813 82.7758C25.63 82.783 25.4808 82.738 25.3588 82.6483C18.6234 79.3708 14.6731 73.1394 11.9166 66.1291C10.0934 61.4967 8.50875 52.7507 1.71343 53.723C1.29286 53.7887 0.912529 54.0106 0.648345 54.3443C0.384162 54.6781 0.255552 55.0992 0.288183 55.5236Z" fill="#5C4AE4"/>
<path d="M25.7465 87.1778C24.8685 87.1769 24.0061 86.9457 23.2456 86.5072C19.7906 84.793 16.7503 82.3473 14.3357 79.3398C11.5716 75.8392 9.37544 71.9254 7.82788 67.7421C7.49809 66.9067 7.20677 66.0382 6.89347 65.1148L6.8495 64.9829C6.83301 64.9389 6.82202 64.895 6.80553 64.851C6.71293 64.5754 6.73323 64.2744 6.86199 64.0138C6.99075 63.7532 7.21748 63.5542 7.49259 63.4604C7.76896 63.371 8.06927 63.3927 8.32988 63.521C8.5905 63.6492 8.79093 63.8739 8.8887 64.1474L8.90519 64.1914C8.92168 64.2409 8.93267 64.2903 8.94916 64.3398C9.26246 65.2687 9.55927 66.1482 9.87257 66.9342C13.3793 75.8275 17.9469 81.4284 24.2514 84.5559L24.3119 84.5889C24.7484 84.8453 25.2457 84.9801 25.752 84.9792C26.2638 84.9792 26.7665 84.8428 27.208 84.5838C27.6496 84.3249 28.014 83.9529 28.2639 83.5061C28.4102 83.2562 28.6476 83.0726 28.9263 82.9937C29.2049 82.9149 29.5033 82.9468 29.7589 83.0829C30.0132 83.2251 30.2006 83.4625 30.2799 83.7428C30.3593 84.0231 30.3241 84.3235 30.1821 84.5779C29.7407 85.3653 29.0977 86.021 28.3192 86.4779C27.5407 86.9347 26.6546 87.1763 25.752 87.1778H25.7465ZM6.28886 61.4926C6.0373 61.494 5.79289 61.409 5.59641 61.2519C5.39993 61.0948 5.26327 60.8751 5.20925 60.6294C5.15522 60.3837 5.18709 60.127 5.29955 59.9019C5.412 59.6769 5.59823 59.4973 5.82715 59.393C6.09111 59.2777 6.3894 59.2688 6.65977 59.3681C6.93013 59.4675 7.1517 59.6674 7.27823 59.9261C7.27969 59.9261 7.28108 59.9267 7.28211 59.9277C7.28314 59.9288 7.28372 59.9302 7.28372 59.9316C7.40513 60.1962 7.41659 60.4982 7.31561 60.7713C7.21462 61.0444 7.00943 61.2662 6.74507 61.3882C6.60239 61.4557 6.44671 61.4914 6.28886 61.4926Z" fill="white"/>
<path d="M35.1037 115.8L35.0696 115.749C35.2736 111.775 33.9104 106.13 29.9205 103.18C23.372 98.0599 12.4098 94.6603 8.74141 83.4299C5.80463 74.4453 3.81655 59.3354 3.14048 53.6625C2.66327 53.6337 2.18436 53.6543 1.71139 53.724C1.29102 53.7897 0.910861 54.0114 0.646704 54.345C0.382547 54.6785 0.253804 55.0993 0.286146 55.5236C0.839094 60.3143 2.88434 76.6736 5.99096 86.1781C9.65933 97.4091 20.6215 100.808 27.1701 105.928C31.16 108.876 32.5231 114.523 32.3192 118.498L32.3533 118.548C32.4383 118.661 32.5464 118.754 32.6704 118.821C32.7943 118.888 32.9312 118.928 33.0719 118.937C33.2125 118.947 33.3536 118.927 33.4857 118.877C33.6177 118.828 33.7376 118.751 33.8373 118.651L36.5856 115.903C36.4859 116.002 36.3661 116.079 36.2343 116.128C36.1025 116.177 35.9617 116.198 35.8213 116.188C35.6809 116.178 35.5443 116.138 35.4205 116.072C35.2967 116.005 35.1887 115.912 35.1037 115.8Z" fill="#5C4AE4"/>
<path d="M107.167 55.5235C106.614 60.3143 104.569 76.6735 101.462 86.178C97.794 97.409 86.8318 100.808 80.2832 105.928C76.2933 108.876 74.9302 114.523 75.1341 118.497L75.1001 118.548C75.0151 118.661 74.9069 118.753 74.783 118.821C74.659 118.888 74.5221 118.928 74.3814 118.937C74.2408 118.947 74.0997 118.927 73.9676 118.877C73.8356 118.828 73.7157 118.751 73.616 118.651L63.4178 108.452C61.6918 106.732 60.58 104.492 60.254 102.077C59.9281 99.6621 60.4061 97.2072 61.6144 95.0912C63.5349 91.7482 66.5783 88.8422 69.3738 85.4481C72.8936 80.9384 75.5539 75.8198 77.2217 70.3476C77.4064 69.1164 78.5766 68.7629 79.5434 69.433C82.9595 71.803 84.3875 76.7125 82.2439 80.0236L81.1347 81.7869C81.0589 81.918 81.0306 82.0713 81.0545 82.2208C81.0783 82.3704 81.153 82.5072 81.2658 82.6082C81.3786 82.7092 81.5228 82.7684 81.6741 82.7756C81.8254 82.7829 81.9745 82.7379 82.0965 82.6482C88.832 79.3706 92.7823 73.1392 95.5388 66.129C97.362 61.4966 98.9466 52.7505 105.742 53.7229C106.163 53.7886 106.543 54.0104 106.807 54.3442C107.071 54.678 107.2 55.0991 107.167 55.5235Z" fill="#5C4AE4"/>
<path d="M105.742 53.7239C104.917 53.5785 104.072 53.6138 103.262 53.8272C102.453 54.0406 101.7 54.4271 101.055 54.9601C100.12 61.9956 98.3565 73.3668 95.9655 80.6837C92.2971 91.9147 81.3349 95.3137 74.7864 100.434C70.7965 103.382 69.4333 109.029 69.6373 113.003L69.6032 113.054C69.5182 113.166 69.4102 113.259 69.2862 113.326C69.1623 113.394 69.0253 113.433 68.8847 113.443C68.744 113.453 68.6029 113.433 68.4709 113.383C68.3388 113.334 68.2189 113.257 68.1191 113.157L73.6156 118.654C73.7153 118.753 73.8352 118.83 73.9673 118.88C74.0993 118.929 74.2404 118.95 74.3811 118.94C74.5217 118.93 74.6586 118.89 74.7826 118.823C74.9066 118.756 75.0147 118.663 75.0997 118.551L75.1338 118.5C74.9298 114.526 76.293 108.881 80.2829 105.931C86.8314 100.811 97.7936 97.4112 101.462 86.1807C104.569 76.6762 106.614 60.317 107.167 55.5262C107.2 55.1015 107.071 54.68 106.807 54.3459C106.543 54.0118 106.162 53.7896 105.742 53.7239Z" fill="#5C4AE4"/>
<path d="M105.742 53.7239C105.269 53.6542 104.79 53.6336 104.313 53.6623C103.636 59.3353 101.648 74.4452 98.7116 83.4297C95.0432 94.6607 84.081 98.0598 77.5325 103.18C73.5426 106.128 72.1795 111.775 72.3834 115.749L72.3493 115.8C72.2644 115.912 72.1563 116.005 72.0324 116.073C71.9085 116.14 71.7716 116.18 71.6309 116.19C71.4903 116.199 71.3491 116.179 71.2171 116.13C71.085 116.08 70.965 116.003 70.8652 115.904L73.6135 118.652C73.7132 118.752 73.8331 118.829 73.9651 118.878C74.0972 118.928 74.2383 118.948 74.3789 118.938C74.5196 118.929 74.6565 118.889 74.7805 118.822C74.9044 118.755 75.0126 118.662 75.0975 118.549L75.1316 118.498C74.9277 114.524 76.2908 108.88 80.2807 105.929C86.8293 100.809 97.7915 97.4095 101.46 86.1791C104.566 76.6745 106.612 60.3153 107.165 55.5246C107.197 55.1005 107.069 54.6796 106.805 54.3459C106.542 54.0122 106.162 53.7901 105.742 53.7239Z" fill="#5C4AE4"/>
<path d="M24.1181 50.4785C31.8217 49.532 37.2994 42.5198 36.353 34.8163C35.4065 27.1127 28.3943 21.635 20.6907 22.5814C12.9872 23.5279 7.50944 30.5401 8.4559 38.2437C9.40236 45.9472 16.4146 51.425 24.1181 50.4785Z" fill="#5C4AE4"/>
<path d="M30.8572 25.2872C32.9027 27.9919 33.9007 31.3453 33.6671 34.7284C33.4335 38.1114 31.984 41.2958 29.5861 43.6937C27.1882 46.0915 24.0039 47.5411 20.6208 47.7747C17.2378 48.0083 13.8844 47.0102 11.1797 44.9647C12.3908 46.5661 13.9312 47.8893 15.697 48.8451C17.4628 49.8009 19.4129 50.367 21.416 50.5053C23.4191 50.6436 25.4286 50.3509 27.309 49.647C29.1894 48.943 30.897 47.8441 32.3167 46.4243C33.7365 45.0045 34.8354 43.2969 35.5394 41.4165C36.2434 39.5361 36.5361 37.5266 36.3978 35.5236C36.2594 33.5205 35.6933 31.5703 34.7376 29.8045C33.7818 28.0387 32.4586 26.4984 30.8572 25.2872Z" fill="#5C4AE4"/>
<path d="M28.7507 37.5489C28.8092 37.5482 28.8672 37.5595 28.9212 37.582C28.9752 37.6045 29.024 37.6378 29.0647 37.6798C29.1054 37.7219 29.1371 37.7718 29.1578 37.8264C29.1786 37.8811 29.188 37.9395 29.1855 37.9979C29.0705 39.7209 28.3049 41.3358 27.0438 42.5154C25.7828 43.6951 24.1205 44.3514 22.3937 44.3514C20.6669 44.3514 19.0046 43.6951 17.7436 42.5154C16.4825 41.3358 15.717 39.7209 15.602 37.9979C15.5994 37.9395 15.6088 37.8811 15.6296 37.8264C15.6504 37.7718 15.682 37.7219 15.7227 37.6798C15.7634 37.6378 15.8123 37.6045 15.8662 37.582C15.9202 37.5595 15.9782 37.5482 16.0367 37.5489H28.7507Z" fill="#5C4AE4"/>
<path d="M15.6019 37.9979C15.6437 38.6265 15.7732 39.2461 15.9867 39.8387H28.8023C29.0156 39.246 29.1451 38.6264 29.1871 37.9979C29.1896 37.9395 29.1802 37.8811 29.1595 37.8264C29.1387 37.7718 29.107 37.7219 29.0663 37.6798C29.0256 37.6378 28.9768 37.6045 28.9228 37.582C28.8688 37.5595 28.8108 37.5482 28.7523 37.5489H16.0367C15.9782 37.5483 15.9203 37.5596 15.8663 37.5822C15.8124 37.6047 15.7636 37.638 15.7229 37.68C15.6822 37.722 15.6505 37.7719 15.6297 37.8265C15.6089 37.8812 15.5995 37.9395 15.6019 37.9979Z" fill="white"/>
<path d="M19.1364 31.521C19.1365 31.872 19.0326 32.2151 18.8377 32.5069C18.6428 32.7988 18.3657 33.0263 18.0415 33.1606C17.7173 33.295 17.3606 33.3302 17.0164 33.2618C16.6721 33.1934 16.3559 33.0245 16.1078 32.7764C15.8596 32.5283 15.6905 32.2121 15.622 31.8679C15.5535 31.5237 15.5886 31.167 15.7229 30.8427C15.8572 30.5185 16.0846 30.2414 16.3764 30.0464C16.6682 29.8514 17.0112 29.7473 17.3622 29.7473C17.8326 29.7473 18.2838 29.9342 18.6166 30.2668C18.9493 30.5994 19.1363 31.0506 19.1364 31.521Z" fill="#5C4AE4"/>
<path d="M29.2009 31.5209C29.201 31.8719 29.097 32.215 28.9021 32.5068C28.7072 32.7987 28.4301 33.0262 28.1059 33.1606C27.7816 33.2949 27.4248 33.3301 27.0806 33.2617C26.7364 33.1932 26.4202 33.0242 26.172 32.7761C25.9238 32.5279 25.7549 32.2117 25.6864 31.8675C25.618 31.5232 25.6531 31.1665 25.7875 30.8422C25.9219 30.518 26.1494 30.2409 26.4412 30.046C26.7331 29.8511 27.0762 29.7471 27.4272 29.7472C27.6601 29.7472 27.8907 29.7931 28.1059 29.8822C28.3211 29.9713 28.5167 30.102 28.6814 30.2667C28.8461 30.4314 28.9767 30.6269 29.0659 30.8421C29.155 31.0573 29.2009 31.288 29.2009 31.5209Z" fill="#5C4AE4"/>
</svg>
