<svg width="101" height="101" viewBox="0 0 101 101" fill="none" xmlns="http://www.w3.org/2000/svg">
<path d="M50.8583 40.9042C42.1311 40.9042 35.0312 47.5433 35.0312 55.704C35.0312 63.8646 42.1314 70.5037 50.8583 70.5037C59.5851 70.5037 66.6855 63.8646 66.6855 55.704C66.6855 47.5433 59.5854 40.9042 50.8583 40.9042Z" fill="#5c4ae4"/>
<path d="M24.8906 100.785H76.8415L76.8922 91.3655C76.8922 83.1214 71.6008 75.4488 63.5725 71.8379C59.9012 74.3699 55.4513 75.7479 50.8592 75.7479C46.2785 75.7479 41.8379 74.3761 38.1714 71.8552C30.1663 75.4738 24.8906 83.14 24.8906 91.3785V100.785Z" fill="#5c4ae4"/>
<path d="M21.4513 52.0697C14.592 52.0697 9.01172 57.2879 9.01172 63.7017C9.01172 70.1156 14.592 75.334 21.4513 75.334C22.9128 75.334 24.3375 75.1 25.6962 74.6374C27.6795 72.3289 30.0147 70.3567 32.6544 68.7607C32.9136 68.2599 33.1334 67.7434 33.3124 67.2144C30.7948 63.8577 29.4221 59.8201 29.4221 55.7039C29.4221 55.4039 29.4299 55.0994 29.4454 54.7915C27.2089 53.0289 24.4127 52.0697 21.4513 52.0697Z" fill="#5c4ae4"/>
<path d="M11.2395 77.6144C4.99159 80.5802 0.890625 86.7528 0.890625 93.4086V100.8L19.2807 100.787V91.3787C19.2807 87.6883 20.1551 83.993 21.7999 80.5753C21.6838 80.5774 21.5677 80.5783 21.4512 80.5783C17.7963 80.5785 14.2325 79.5355 11.2395 77.6144Z" fill="#5c4ae4"/>
<path d="M76.1061 74.6642C77.4408 75.1091 78.8397 75.3343 80.2749 75.3343C87.1342 75.3343 92.7145 70.1161 92.7145 63.702C92.7145 57.2881 87.1342 52.0699 80.2749 52.0699C77.308 52.0699 74.5077 53.0323 72.2691 54.8011C72.2844 55.1058 72.2922 55.4073 72.2922 55.7041C72.2922 59.815 70.9223 63.8488 68.4102 67.2031C68.5845 67.7197 68.798 68.2249 69.0494 68.7155C71.7304 70.3255 74.099 72.3221 76.1061 74.6642Z" fill="#5c4ae4"/>
<path d="M82.4487 100.787L100.851 100.8L100.89 93.3956C100.89 86.8471 96.6885 80.5488 90.5078 77.6016C87.4305 79.5828 83.7352 80.6343 79.9805 80.5761C81.6251 83.9939 82.4995 87.689 82.4995 91.3785L82.4487 100.787Z" fill="#5c4ae4"/>
<path d="M86.4963 0.800537H15.2855C12.6678 0.800537 10.5469 2.78643 10.5508 5.23387L10.5803 23.4005C10.5842 25.8426 12.703 27.8204 15.315 27.8204H65.688C66.2861 30.0328 69.0594 38.0606 78.3252 40.6407C78.3252 40.6407 76.9059 33.205 79.1735 27.8204H85.2077C88.5342 27.8204 91.2307 25.2993 91.2307 22.1892V5.22725C91.231 2.78237 89.111 0.800537 86.4963 0.800537ZM32.4408 22.1076L27.0088 19.4373L21.5768 22.1076L22.6142 16.4516L18.2195 12.4463L24.2928 11.621L27.0088 6.47511L29.7248 11.621L35.7981 12.4463L31.4034 16.4518L32.4408 22.1076ZM56.3239 22.1076L50.8919 19.4373L45.4599 22.1076L46.4973 16.4516L42.1026 12.446L48.1759 11.6208L50.8919 6.47511L53.6079 11.621L59.6812 12.4463L55.2865 16.4518L56.3239 22.1076ZM80.207 22.1076L74.775 19.4373L69.343 22.1076L70.3804 16.4516L65.9858 12.446L72.059 11.6208L74.775 6.4749L77.491 11.6208L83.5643 12.446L79.1697 16.4516L80.207 22.1076Z" fill="#5c4ae4"/>
</svg>
