<svg xmlns="http://www.w3.org/2000/svg" version="1.1" xmlns:xlink="http://www.w3.org/1999/xlink" xmlns:svgjs="http://svgjs.com/svgjs" width="512" height="512" x="0" y="0" viewBox="0 0 473.68 473.68" style="enable-background:new 0 0 512 512" xml:space="preserve" class=""><g><circle cx="236.85" cy="236.849" r="236.83" style="" fill="#ffffff" data-original="#ffffff"></circle><path d="M460.143 157.873H314.218c6.339 50.593 6.376 106.339.123 156.995h146.113a236.303 236.303 0 0 0 13.219-78.026c.004-27.703-4.794-54.269-13.53-78.969z" style="" fill="#efecec" data-original="#efecec" class=""></path><path d="M314.218 157.873H460.14a1.618 1.618 0 0 0-.075-.206C429.756 72.2 351.785 9.319 258.105.972c36.256 19.872 46.846 82.832 56.113 156.901z" style="" fill="#429945" data-original="#429945" class=""></path><path d="M258.113 472.697c93.848-8.362 171.927-71.46 202.12-157.156.079-.228.146-.453.228-.673H314.345c-9.196 74.47-19.831 137.874-56.232 157.829z" style="" fill="#0b0b0b" data-original="#0b0b0b"></path><path d="M0 236.841c0 27.348 4.697 53.588 13.219 78.026h313.313c6.26-50.66 6.215-106.402-.116-156.995H13.534C4.798 182.573 0 209.139 0 236.841z" style="" fill="#efefef" data-original="#efefef" class=""></path><path d="M13.608 157.668a3.348 3.348 0 0 1-.075.206h312.883C317.142 83.804 294.36 20.845 258.109.973c-7.012-.621-14.102-.972-21.274-.972C133.806 0 46.191 65.801 13.608 157.668z" style="" fill="#49a948" data-original="#49a948" class=""></path><path d="M326.532 314.867H13.219c.079.221.153.445.228.673C45.9 407.642 133.641 473.676 236.835 473.676c7.173 0 14.263-.352 21.274-.98 36.405-19.954 59.227-83.358 68.423-157.829z" style="" fill="#151515" data-original="#151515"></path><path d="M0 236.841c0 98.586 60.263 183.086 145.952 218.735V18.099C60.263 53.741 0 138.241 0 236.841z" style="" fill="#e73b36" data-original="#e73b36" class=""></path></g></svg>