<svg width="64" height="64" viewBox="0 0 64 64" fill="none" xmlns="http://www.w3.org/2000/svg">
<path d="M56 14H32V20H59.5C58.6 17.9 57.4 15.8 56 14Z" fill="#ED4C5C"/>
<path d="M61.4 38C61.8 36.1 62 34.1 62 32H2C2 34.1 2.2 36.1 2.6 38H61.4Z" fill="#F9F9F9"/>
<path d="M32 2V8H50C45 4.2 38.8 2 32 2Z" fill="#ED4C5C"/>
<path d="M32 14H56C54.3 11.7 52.3 9.7 50 8H32V14ZM59.5 20H32V26H61.4C61 23.9 60.3 21.9 59.5 20Z" fill="#F9F9F9"/>
<path d="M32.0016 26V32H62.0016C62.0016 29.9 61.8016 27.9 61.4016 26H32.0016ZM4.50156 44H59.5016C60.3016 42.1 61.0016 40.1 61.4016 38H2.60156C3.00156 40.1 3.70156 42.1 4.50156 44Z" fill="#ED4C5C"/>
<path d="M8 50H56C57.4 48.2 58.6 46.1 59.5 44H4.5C5.4 46.1 6.6 48.2 8 50Z" fill="#F9F9F9"/>
<path d="M8 50C9.7 52.3 11.7 54.3 14 56H50C52.3 54.3 54.3 52.3 56 50H8Z" fill="#ED4C5C"/>
<path d="M14 56C19 59.8 25.2 62 32 62C38.8 62 45 59.8 50 56H14Z" fill="#F9F9F9"/>
<path d="M32 2C15.4 2 2 15.4 2 32H32V2Z" fill="#2A5F9E"/>
<path d="M20 22.2L25.6 26L23.5 19.9L29 16.1H22.1L20 10L17.9 16.1H11L16.5 19.9L14.4 26L20 22.2Z" fill="white"/>
<path d="M31.8016 2C18.8016 2 7.70156 10.4 3.60156 22H60.2016C56.0016 10.4 44.9016 2 31.8016 2Z" fill="#F2B200"/>
<path d="M31.8016 62C44.9016 62 56.0016 53.7 60.1016 42H3.60156C7.70156 53.7 18.8016 62 31.8016 62Z" fill="#83BF4F"/>
<path d="M3.59844 22C2.49844 25.1 1.89844 28.5 1.89844 32C1.89844 35.5 2.49844 38.9 3.59844 42H60.1984C61.2984 38.9 61.8984 35.5 61.8984 32C61.8984 28.5 61.2984 25.1 60.1984 22H3.59844Z" fill="white"/>
<path d="M31.8008 40C36.2191 40 39.8008 36.4183 39.8008 32C39.8008 27.5817 36.2191 24 31.8008 24C27.3825 24 23.8008 27.5817 23.8008 32C23.8008 36.4183 27.3825 40 31.8008 40Z" fill="#428BC1"/>
<path d="M31.8008 39C35.6668 39 38.8008 35.866 38.8008 32C38.8008 28.134 35.6668 25 31.8008 25C27.9348 25 24.8008 28.134 24.8008 32C24.8008 35.866 27.9348 39 31.8008 39Z" fill="white"/>
<path d="M29.1992 26C29.4754 26 29.6992 25.7761 29.6992 25.5C29.6992 25.2239 29.4754 25 29.1992 25C28.9231 25 28.6992 25.2239 28.6992 25.5C28.6992 25.7761 28.9231 26 29.1992 26Z" fill="#428BC1"/>
<path d="M27.5977 26.9C27.8738 26.9 28.0977 26.6762 28.0977 26.4C28.0977 26.1239 27.8738 25.9 27.5977 25.9C27.3215 25.9 27.0977 26.1239 27.0977 26.4C27.0977 26.6762 27.3215 26.9 27.5977 26.9Z" fill="#428BC1"/>
<path d="M26.2969 28.2C26.573 28.2 26.7969 27.9761 26.7969 27.7C26.7969 27.4238 26.573 27.2 26.2969 27.2C26.0207 27.2 25.7969 27.4238 25.7969 27.7C25.7969 27.9761 26.0207 28.2 26.2969 28.2Z" fill="#428BC1"/>
<path d="M25.3984 29.8C25.6746 29.8 25.8984 29.5762 25.8984 29.3C25.8984 29.0239 25.6746 28.8 25.3984 28.8C25.1223 28.8 24.8984 29.0239 24.8984 29.3C24.8984 29.5762 25.1223 29.8 25.3984 29.8Z" fill="#428BC1"/>
<path d="M24.8984 31.6C25.1746 31.6 25.3984 31.3761 25.3984 31.1C25.3984 30.8238 25.1746 30.6 24.8984 30.6C24.6223 30.6 24.3984 30.8238 24.3984 31.1C24.3984 31.3761 24.6223 31.6 24.8984 31.6Z" fill="#428BC1"/>
<path d="M24.8984 33.4C25.1746 33.4 25.3984 33.1762 25.3984 32.9C25.3984 32.6239 25.1746 32.4 24.8984 32.4C24.6223 32.4 24.3984 32.6239 24.3984 32.9C24.3984 33.1762 24.6223 33.4 24.8984 33.4Z" fill="#428BC1"/>
<path d="M25.3984 35.2C25.6746 35.2 25.8984 34.9761 25.8984 34.7C25.8984 34.4238 25.6746 34.2 25.3984 34.2C25.1223 34.2 24.8984 34.4238 24.8984 34.7C24.8984 34.9761 25.1223 35.2 25.3984 35.2Z" fill="#428BC1"/>
<path d="M26.2969 36.8C26.573 36.8 26.7969 36.5762 26.7969 36.3C26.7969 36.0239 26.573 35.8 26.2969 35.8C26.0207 35.8 25.7969 36.0239 25.7969 36.3C25.7969 36.5762 26.0207 36.8 26.2969 36.8Z" fill="#428BC1"/>
<path d="M27.5977 38.1C27.8738 38.1 28.0977 37.8761 28.0977 37.6C28.0977 37.3238 27.8738 37.1 27.5977 37.1C27.3215 37.1 27.0977 37.3238 27.0977 37.6C27.0977 37.8761 27.3215 38.1 27.5977 38.1Z" fill="#428BC1"/>
<path d="M29.1992 39C29.4754 39 29.6992 38.7761 29.6992 38.5C29.6992 38.2239 29.4754 38 29.1992 38C28.9231 38 28.6992 38.2239 28.6992 38.5C28.6992 38.7761 28.9231 39 29.1992 39Z" fill="#428BC1"/>
<path d="M30.8984 39.4C31.1746 39.4 31.3984 39.1762 31.3984 38.9C31.3984 38.6239 31.1746 38.4 30.8984 38.4C30.6223 38.4 30.3984 38.6239 30.3984 38.9C30.3984 39.1762 30.6223 39.4 30.8984 39.4Z" fill="#428BC1"/>
<path d="M32.2969 39C32.2969 38.7 32.4969 38.5 32.6969 38.4C32.9969 38.4 33.1969 38.6 33.2969 38.8C33.2969 39.1 33.0969 39.3 32.8969 39.4C32.4969 39.5 32.2969 39.3 32.2969 39Z" fill="#428BC1"/>
<path d="M34.5 39C34.7761 39 35 38.7761 35 38.5C35 38.2239 34.7761 38 34.5 38C34.2239 38 34 38.2239 34 38.5C34 38.7761 34.2239 39 34.5 39Z" fill="#428BC1"/>
<path d="M36.0977 38.1C36.3738 38.1 36.5977 37.8761 36.5977 37.6C36.5977 37.3238 36.3738 37.1 36.0977 37.1C35.8215 37.1 35.5977 37.3238 35.5977 37.6C35.5977 37.8761 35.8215 38.1 36.0977 38.1Z" fill="#428BC1"/>
<path d="M37.3984 36.8C37.6746 36.8 37.8984 36.5762 37.8984 36.3C37.8984 36.0239 37.6746 35.8 37.3984 35.8C37.1223 35.8 36.8984 36.0239 36.8984 36.3C36.8984 36.5762 37.1223 36.8 37.3984 36.8Z" fill="#428BC1"/>
<path d="M38.2969 35.2C38.573 35.2 38.7969 34.9761 38.7969 34.7C38.7969 34.4238 38.573 34.2 38.2969 34.2C38.0207 34.2 37.7969 34.4238 37.7969 34.7C37.7969 34.9761 38.0207 35.2 38.2969 35.2Z" fill="#428BC1"/>
<path d="M38.7969 33.4C39.073 33.4 39.2969 33.1762 39.2969 32.9C39.2969 32.6239 39.073 32.4 38.7969 32.4C38.5207 32.4 38.2969 32.6239 38.2969 32.9C38.2969 33.1762 38.5207 33.4 38.7969 33.4Z" fill="#428BC1"/>
<path d="M38.7992 31.6C38.4992 31.6 38.2992 31.4 38.1992 31.2C38.1992 30.9 38.3992 30.7 38.5992 30.6C38.8992 30.6 39.0992 30.8 39.1992 31C39.2992 31.3 39.0992 31.5 38.7992 31.6Z" fill="#428BC1"/>
<path d="M38.2969 29.8C38.573 29.8 38.7969 29.5762 38.7969 29.3C38.7969 29.0239 38.573 28.8 38.2969 28.8C38.0207 28.8 37.7969 29.0239 37.7969 29.3C37.7969 29.5762 38.0207 29.8 38.2969 29.8Z" fill="#428BC1"/>
<path d="M37.3984 28.2C37.6746 28.2 37.8984 27.9761 37.8984 27.7C37.8984 27.4238 37.6746 27.2 37.3984 27.2C37.1223 27.2 36.8984 27.4238 36.8984 27.7C36.8984 27.9761 37.1223 28.2 37.3984 28.2Z" fill="#428BC1"/>
<path d="M36.0977 26.9C36.3738 26.9 36.5977 26.6762 36.5977 26.4C36.5977 26.1239 36.3738 25.9 36.0977 25.9C35.8215 25.9 35.5977 26.1239 35.5977 26.4C35.5977 26.6762 35.8215 26.9 36.0977 26.9Z" fill="#428BC1"/>
<path d="M34.9984 25.7C34.8984 26 34.5984 26.1 34.2984 26C33.9984 25.9 33.8984 25.6 33.9984 25.3C34.0984 25 34.3984 24.9 34.6984 25C34.9984 25.2 35.0984 25.5 34.9984 25.7ZM33.1984 25.1C33.1984 25.4 32.8984 25.6 32.5984 25.5C32.2984 25.5 32.0984 25.2 32.1984 24.9C32.1984 24.6 32.4984 24.4 32.7984 24.5C33.0984 24.6 33.2984 24.9 33.1984 25.1ZM31.3984 25C31.3984 25.3 31.1984 25.5 30.9984 25.6C30.6984 25.6 30.4984 25.4 30.3984 25.2C30.3984 24.9 30.5984 24.7 30.7984 24.6C31.0984 24.5 31.3984 24.7 31.3984 25Z" fill="#428BC1"/>
<path d="M31.7969 33.5C32.6253 33.5 33.2969 32.8284 33.2969 32C33.2969 31.1716 32.6253 30.5 31.7969 30.5C30.9684 30.5 30.2969 31.1716 30.2969 32C30.2969 32.8284 30.9684 33.5 31.7969 33.5Z" fill="#428BC1"/>
<path d="M31.8 25L31.6 29.3L31.8 32L32.1 29.3L31.8 25ZM30 25.2L30.9 29.5L31.8 32L31.4 29.3L30 25.2Z" fill="#428BC1"/>
<path d="M28.2984 25.9L30.2984 29.8L31.7984 32L30.6984 29.5L28.2984 25.9ZM26.8984 27L29.7984 30.3L31.7984 32L30.0984 29.9L26.8984 27Z" fill="#428BC1"/>
<path d="M25.7969 28.5L29.3969 30.9L31.7969 32L29.5969 30.4L25.7969 28.5Z" fill="#428BC1"/>
<path d="M25.0969 30.2L29.1969 31.5L31.7969 32L29.2969 31.1L25.0969 30.2ZM24.7969 32L29.1969 32.2L31.7969 32L29.1969 31.7999L24.7969 32Z" fill="#428BC1"/>
<path d="M25.0977 33.8L29.2977 32.9L31.7977 32L29.1977 32.5L25.0977 33.8ZM25.7977 35.5L29.5977 33.6L31.7977 32L29.3977 33.1L25.7977 35.5Z" fill="#428BC1"/>
<path d="M26.8984 36.9L30.0984 34.1L31.7984 32L29.7984 33.7L26.8984 36.9ZM28.2984 38.1L30.6984 34.4L31.7984 32L30.2984 34.2L28.2984 38.1Z" fill="#428BC1"/>
<path d="M30 38.8L31.4 34.7L31.8 32L30.9 34.5L30 38.8ZM31.8 39L32.1 34.7L31.8 32L31.6 34.7L31.8 39ZM33.6 38.8L32.8 34.5L31.8 32L32.3 34.7L33.6 38.8Z" fill="#428BC1"/>
<path d="M35.2969 38.1L33.3969 34.2L31.7969 32L32.9969 34.5L35.2969 38.1ZM36.7969 36.9L33.8969 33.7L31.7969 32L33.5969 34.1L36.7969 36.9Z" fill="#428BC1"/>
<path d="M37.8969 35.5L34.2969 33.0999L31.7969 32L33.9969 33.5999L37.8969 35.5ZM38.5969 33.7999L34.4969 32.5L31.7969 32L34.3969 32.9L38.5969 33.7999ZM38.7969 32L34.4969 31.7L31.7969 32L34.4969 32.2L38.7969 32ZM38.5969 30.2L34.3969 31.1L31.7969 32L34.4969 31.5L38.5969 30.2Z" fill="#428BC1"/>
<path d="M37.8969 28.5L33.9969 30.4L31.7969 32L34.2969 30.9L37.8969 28.5ZM36.7969 27.1L33.5969 29.9L31.7969 32L33.8969 30.3L36.7969 27.1Z" fill="#428BC1"/>
<path d="M35.2969 25.9L32.9969 29.6L31.7969 32L33.3969 29.8L35.2969 25.9Z" fill="#428BC1"/>
<path d="M33.6969 25.2L32.2969 29.2999L31.7969 32L32.7969 29.5L33.6969 25.2Z" fill="#428BC1"/>
</svg>
