<svg width="64" height="64" viewBox="0 0 64 64" fill="none" xmlns="http://www.w3.org/2000/svg">
<path d="M56 14H32V20H59.5C58.6 17.9 57.4 15.8 56 14Z" fill="#ED4C5C"/>
<path d="M61.4 38C61.8 36.1 62 34.1 62 32H2C2 34.1 2.2 36.1 2.6 38H61.4Z" fill="#F9F9F9"/>
<path d="M32 2V8H50C45 4.2 38.8 2 32 2Z" fill="#ED4C5C"/>
<path d="M32 14H56C54.3 11.7 52.3 9.7 50 8H32V14ZM59.5 20H32V26H61.4C61 23.9 60.3 21.9 59.5 20Z" fill="#F9F9F9"/>
<path d="M32.0016 26V32H62.0016C62.0016 29.9 61.8016 27.9 61.4016 26H32.0016ZM4.50156 44H59.5016C60.3016 42.1 61.0016 40.1 61.4016 38H2.60156C3.00156 40.1 3.70156 42.1 4.50156 44Z" fill="#ED4C5C"/>
<path d="M8 50H56C57.4 48.2 58.6 46.1 59.5 44H4.5C5.4 46.1 6.6 48.2 8 50Z" fill="#F9F9F9"/>
<path d="M8 50C9.7 52.3 11.7 54.3 14 56H50C52.3 54.3 54.3 52.3 56 50H8Z" fill="#ED4C5C"/>
<path d="M14 56C19 59.8 25.2 62 32 62C38.8 62 45 59.8 50 56H14Z" fill="#F9F9F9"/>
<path d="M32 2C15.4 2 2 15.4 2 32H32V2Z" fill="#2A5F9E"/>
<path d="M20 22.2L25.6 26L23.5 19.9L29 16.1H22.1L20 10L17.9 16.1H11L16.5 19.9L14.4 26L20 22.2Z" fill="white"/>
<path d="M48 6.6C43.3 3.7 37.9 2 32 2V6.6H48Z" fill="#ED4C5C"/>
<path d="M32 11.2H53.6C51.9 9.49998 50 7.89998 48 6.59998H32V11.2Z" fill="white"/>
<path d="M32 15.8H57.3C56.2 14.1 55 12.6 53.7 11.2H32V15.8Z" fill="#ED4C5C"/>
<path d="M32 20.4H59.7C59 18.8 58.2 17.2 57.3 15.8H32V20.4Z" fill="white"/>
<path d="M32 25H61.2C60.8 23.4 60.3 21.9 59.7 20.4H32V25Z" fill="#ED4C5C"/>
<path d="M32 29.7H61.9C61.8 28.1 61.5 26.6 61.2 25.1H32V29.7Z" fill="white"/>
<path d="M61.9 29.7H32V32H2C2 32.8 2 33.4999 2.1 34.2999H61.9C62 33.4999 62 32.8 62 32C62 31.2 62 30.4 61.9 29.7Z" fill="#ED4C5C"/>
<path d="M2.80156 38.9001H61.2016C61.6016 37.4001 61.8016 35.9 61.9016 34.3H2.10156C2.20156 35.8 2.40156 37.4001 2.80156 38.9001Z" fill="white"/>
<path d="M4.30078 43.5H59.7008C60.3008 42 60.8008 40.5 61.2008 38.9H2.80078C3.20078 40.5 3.70078 42 4.30078 43.5Z" fill="#ED4C5C"/>
<path d="M6.70078 48.1H57.3008C58.2008 46.6 59.0008 45.1 59.7008 43.5H4.30078C5.00078 45.1 5.80078 46.6 6.70078 48.1Z" fill="white"/>
<path d="M10.2992 52.7H53.6992C54.9992 51.3 56.2992 49.7 57.2992 48.1H6.69922C7.69922 49.8 8.99922 51.3 10.2992 52.7Z" fill="#ED4C5C"/>
<path d="M15.9008 57.2999H48.1008C50.2008 55.9999 52.0008 54.4 53.7008 52.7H10.3008C12.0008 54.5 13.9008 55.9999 15.9008 57.2999Z" fill="white"/>
<path d="M31.9984 62C37.8984 62 43.3984 60.3 48.0984 57.3H15.8984C20.5984 60.3 26.0984 62 31.9984 62Z" fill="#ED4C5C"/>
<path d="M16 6.6C13.9 7.9 12 9.5 10.3 11.2C8.9 12.6 7.7 14.2 6.7 15.8C5.8 17.3 4.9 18.8 4.3 20.4C3.7 21.9 3.2 23.4 2.8 25C2.4 26.5 2.2 28 2.1 29.6C2 30.4 2 31.2 2 32H32V2C26.1 2 20.7 3.7 16 6.6Z" fill="#428BC1"/>
<path d="M24.9984 3L25.4984 4.5H26.9984L25.7984 5.5L26.1984 7L24.9984 6.1L23.7984 7L24.1984 5.5L22.9984 4.5H24.4984L24.9984 3ZM28.9984 9L29.4984 10.5H30.9984L29.7984 11.5L30.1984 13L28.9984 12.1L27.7984 13L28.1984 11.5L26.9984 10.5H28.4984L28.9984 9ZM20.9984 9L21.4984 10.5H22.9984L21.7984 11.5L22.1984 13L20.9984 12.1L19.7984 13L20.1984 11.5L18.9984 10.5H20.4984L20.9984 9ZM24.9984 15L25.4984 16.5H26.9984L25.7984 17.5L26.1984 19L24.9984 18.1L23.7984 19L24.1984 17.5L22.9984 16.5H24.4984L24.9984 15ZM16.9984 15L17.4984 16.5H18.9984L17.7984 17.5L18.1984 19L16.9984 18.1L15.7984 19L16.1984 17.5L14.9984 16.5H16.4984L16.9984 15ZM8.99844 15L9.49844 16.5H10.9984L9.79844 17.5L10.1984 19L8.99844 18.1L7.79844 19L8.19844 17.5L6.99844 16.5H8.49844L8.99844 15ZM28.9984 21L29.4984 22.5H30.9984L29.7984 23.5L30.1984 25L28.9984 24.1L27.7984 25L28.1984 23.5L26.9984 22.5H28.4984L28.9984 21ZM20.9984 21L21.4984 22.5H22.9984L21.7984 23.5L22.1984 25L20.9984 24.1L19.7984 25L20.1984 23.5L18.9984 22.5H20.4984L20.9984 21ZM12.9984 21L13.4984 22.5H14.9984L13.7984 23.5L14.1984 25L12.9984 24.1L11.7984 25L12.1984 23.5L10.9984 22.5H12.4984L12.9984 21ZM24.9984 27L25.4984 28.5H26.9984L25.7984 29.5L26.1984 31L24.9984 30.1L23.7984 31L24.1984 29.5L22.9984 28.5H24.4984L24.9984 27ZM16.9984 27L17.4984 28.5H18.9984L17.7984 29.5L18.1984 31L16.9984 30.1L15.7984 31L16.1984 29.5L14.9984 28.5H16.4984L16.9984 27ZM8.99844 27L9.49844 28.5H10.9984L9.79844 29.5L10.1984 31L8.99844 30.1L7.79844 31L8.19844 29.5L6.99844 28.5H8.49844L8.99844 27ZM11.7984 13L12.9984 12.1L14.1984 13L13.6984 11.5L14.8984 10.5H13.3984L12.9984 9L12.4984 10.5H11.0984L12.2984 11.4L11.7984 13ZM3.79844 25L4.99844 24.1L6.19844 25L5.69844 23.5L6.89844 22.5H5.49844L4.99844 21L4.49844 22.5H3.49844C3.49844 22.6 3.39844 22.7 3.39844 22.8L4.19844 23.4L3.79844 25Z" fill="white"/>
</svg>
