<svg width="64" height="64" viewBox="0 0 64 64" fill="none" xmlns="http://www.w3.org/2000/svg">
<path d="M56 14H32V20H59.5C58.6 17.9 57.4 15.8 56 14Z" fill="#ED4C5C"/>
<path d="M61.4 38C61.8 36.1 62 34.1 62 32H2C2 34.1 2.2 36.1 2.6 38H61.4Z" fill="#F9F9F9"/>
<path d="M32 2V8H50C45 4.2 38.8 2 32 2Z" fill="#ED4C5C"/>
<path d="M32 14H56C54.3 11.7 52.3 9.7 50 8H32V14ZM59.5 20H32V26H61.4C61 23.9 60.3 21.9 59.5 20Z" fill="#F9F9F9"/>
<path d="M32.0016 26V32H62.0016C62.0016 29.9 61.8016 27.9 61.4016 26H32.0016ZM4.50156 44H59.5016C60.3016 42.1 61.0016 40.1 61.4016 38H2.60156C3.00156 40.1 3.70156 42.1 4.50156 44Z" fill="#ED4C5C"/>
<path d="M8 50H56C57.4 48.2 58.6 46.1 59.5 44H4.5C5.4 46.1 6.6 48.2 8 50Z" fill="#F9F9F9"/>
<path d="M8 50C9.7 52.3 11.7 54.3 14 56H50C52.3 54.3 54.3 52.3 56 50H8Z" fill="#ED4C5C"/>
<path d="M14 56C19 59.8 25.2 62 32 62C38.8 62 45 59.8 50 56H14Z" fill="#F9F9F9"/>
<path d="M32 2C15.4 2 2 15.4 2 32H32V2Z" fill="#2A5F9E"/>
<path d="M20 22.2L25.6 26L23.5 19.9L29 16.1H22.1L20 10L17.9 16.1H11L16.5 19.9L14.4 26L20 22.2Z" fill="white"/>
<path d="M32 2V12H12V32H2C2 48.6 15.4 62 32 62C48.6 62 62 48.6 62 32C62 15.4 48.6 2 32 2Z" fill="#2A5F9E"/>
<path d="M14 8C6.7 13.5 2 22.2 2 32H14V8Z" fill="white"/>
<path d="M8 14H32V2C22.2 2 13.5 6.7 8 14Z" fill="white"/>
<path d="M9.80078 11.8L26.0008 32H32.0008V24.5L17.1008 5.90002C14.4008 7.50002 11.9008 9.50002 9.80078 11.8Z" fill="white"/>
<path d="M32 5H18.9C12.9 7.9 7.9 12.9 5 18.9V32H11V11H32V5Z" fill="#ED4C5C"/>
<path d="M32 27.1L19 11H13L30 32H32V27.1Z" fill="#ED4C5C"/>
<path d="M37.0984 32L38.0984 29.1L35.3984 27.2H38.7984L39.7984 24.4L40.7984 27.2H44.1984L41.4984 29.1L42.4984 32L39.7984 30.2L37.0984 32Z" fill="white"/>
<path d="M39.7992 29.5L41.3992 30.6L40.7992 28.8L42.3992 27.7H40.3992L39.7992 26L39.1992 27.7H37.1992L38.7992 28.8L38.1992 30.6L39.7992 29.5Z" fill="#ED4C5C"/>
<path d="M54.5984 32L55.5984 29.1L52.8984 27.2H56.2984L57.2984 24.4L58.2984 27.2H61.6984L58.9984 29.1L59.9984 32L57.2984 30.2L54.5984 32Z" fill="white"/>
<path d="M57.2992 29.5L58.8992 30.6L58.2992 28.8L59.8992 27.7H57.8992L57.2992 26L56.6992 27.7H54.6992L56.2992 28.8L55.6992 30.6L57.2992 29.5Z" fill="#ED4C5C"/>
<path d="M45.8992 21.7L46.8992 18.8L44.1992 16.9H47.5992L48.5992 14.1L49.5992 16.9H52.9992L50.2992 18.8L51.2992 21.7L48.5992 19.9L45.8992 21.7Z" fill="white"/>
<path d="M48.5 19.2L50.1 20.3L49.5 18.5L51.1 17.4H49.2L48.5 15.7L48 17.4H46L47.6 18.5L47 20.3L48.5 19.2Z" fill="#ED4C5C"/>
<path d="M44.9992 48.7L46.2992 44.9L42.6992 42.4H47.1992L48.4992 38.7L49.7992 42.4H54.1992L50.5992 44.9L51.8992 48.7L48.3992 46.2999L44.9992 48.7Z" fill="white"/>
<path d="M48.4992 45.4001L50.5992 46.8L49.8992 44.5L51.8992 43H49.3992L48.4992 40.8L47.7992 43H45.1992L47.1992 44.5L46.4992 46.8L48.4992 45.4001Z" fill="#ED4C5C"/>
<path d="M12.6016 11H24.8016V14H12.6016V11Z" fill="white"/>
</svg>
