<svg width="64" height="64" viewBox="0 0 64 64" fill="none" xmlns="http://www.w3.org/2000/svg">
<path d="M32 62C48.6 62 62 48.6 62 32H2C2 48.6 15.4 62 32 62Z" fill="#F9F9F9"/>
<path d="M32 2C15.4 2 2 15.4 2 32H62C62 15.4 48.6 2 32 2Z" fill="#ED4C5C"/>
<path d="M21.2 17.5L20 16.5H21.5L22 15L22.5 16.5H24L22.8 17.5L23.2 19L22 18.1L20.8 19L21.2 17.5ZM29.2 17.5L28 16.5H29.5L30 15L30.5 16.5H32L30.8 17.5L31.2 19L30 18.1L28.8 19L29.2 17.5ZM22.2 22.5L21 21.5H22.5L23 20L23.5 21.5H25L23.8 22.5L24.2 24L23 23.1L21.8 24L22.2 22.5ZM28.2 22.5L27 21.5H28.5L29 20L29.5 21.5H31L29.8 22.5L30.2 24L29 23.1L27.8 24L28.2 22.5ZM25.2 14.5L24 13.5H25.5L26 12L26.5 13.5H28L26.8 14.5L27.2 16L26 15.1L24.8 16L25.2 14.5Z" fill="#F9F9F9"/>
<path d="M24.4 28C19.6 28 15.8 23.9 15.8 18.9C15.8 13.9 19.7 9.8 24.4 9.8C24.8 9.8 25.1 9.8 25.4 9.9C24.2 9.3 22.9 9 21.5 9C16.3 9 12 13.5 12 19C12 24.5 16.3 29 21.5 29C23.1 29 24.7 28.6 26 27.8C25.5 27.9 25 28 24.4 28Z" fill="#F9F9F9"/>
</svg>
