<svg width="77" height="59" viewBox="0 0 77 59" fill="none" xmlns="http://www.w3.org/2000/svg">
<path d="M1.87349 12.6317L1.125 13.9799V52.9554C1.125 55.5274 3.21002 57.6124 5.782 57.6124H71.2121C73.7841 57.6124 75.8691 55.5274 75.8691 52.9554V13.9799L75.1207 12.6317H1.87349Z" fill="#DDEAFB"/>
<path d="M68.2436 12.6317V45.3297C68.2436 47.9017 66.1586 49.9867 63.5866 49.9867H1.125V52.9553C1.125 55.5273 3.21002 57.6123 5.782 57.6123H71.2121C73.7841 57.6123 75.8691 55.5273 75.8691 52.9553V13.9799L75.1207 12.6317H68.2436Z" fill="#CBE2FF"/>
<path d="M71.2121 1.12793H5.782C3.21002 1.12793 1.125 3.21295 1.125 5.78493V13.9799H75.8691V5.78493C75.8691 3.21295 73.7841 1.12793 71.2121 1.12793Z" fill="#698ED5"/>
<path d="M71.2186 1.12793H68.25V13.9799H75.8756V5.78493C75.8756 3.21295 73.7905 1.12793 71.2186 1.12793Z" fill="#4073C8"/>
<path d="M30.4678 48.6518C29.0142 48.6518 27.8359 47.4734 27.8359 46.0199V21.3692C27.8359 19.9157 29.0142 18.7374 30.4678 18.7374C31.9213 18.7374 33.0996 19.9157 33.0996 21.3692V46.0201C33.0996 47.4734 31.9213 48.6518 30.4678 48.6518Z" fill="#CBE2FF"/>
<path d="M30.4639 18.7374C30.4588 18.7374 30.4536 18.7382 30.4485 18.7382V43.3729C30.4485 44.8213 29.2785 45.9956 27.832 46.004V46.0201C27.832 47.4736 29.0103 48.6519 30.4639 48.6519C31.9174 48.6519 33.0957 47.4736 33.0957 46.0201V21.3692C33.0957 19.9157 31.9174 18.7374 30.4639 18.7374Z" fill="#CBE2FF"/>
<path d="M30.4672 44.8967C33.3681 44.8967 35.7196 42.5451 35.7196 39.6443C35.7196 36.7435 33.3681 34.3919 30.4672 34.3919C27.5664 34.3919 25.2148 36.7435 25.2148 39.6443C25.2148 42.5451 27.5664 44.8967 30.4672 44.8967Z" fill="#86F1A7"/>
<path d="M32.7576 34.918C33.0943 35.6108 33.2835 36.3887 33.2835 37.2109C33.2835 40.1116 30.932 42.4632 28.0311 42.4632C27.2089 42.4632 26.4311 42.2741 25.7383 41.9373C26.5896 43.6892 28.3861 44.8969 30.4646 44.8969C33.3653 44.8969 35.717 42.5454 35.717 39.6445C35.7171 37.5656 34.5095 35.7694 32.7576 34.918Z" fill="#78D0B1"/>
<path d="M46.6045 48.6518C45.151 48.6518 43.9727 47.4734 43.9727 46.0199V21.3692C43.9727 19.9157 45.151 18.7374 46.6045 18.7374C48.058 18.7374 49.2363 19.9157 49.2363 21.3692V46.0201C49.2363 47.4734 48.058 48.6518 46.6045 48.6518Z" fill="#CBE2FF"/>
<path d="M46.6045 18.7374C46.5994 18.7374 46.5943 18.7382 46.5892 18.7382V43.3729C46.5892 44.8213 45.4191 45.9956 43.9727 46.004V46.0201C43.9727 47.4736 45.151 48.6519 46.6045 48.6519C48.058 48.6519 49.2363 47.4736 49.2363 46.0201V21.3692C49.2363 19.9157 48.058 18.7374 46.6045 18.7374Z" fill="#CBE2FF"/>
<path d="M46.604 35.6594C49.5048 35.6594 51.8563 33.3078 51.8563 30.407C51.8563 27.5062 49.5048 25.1546 46.604 25.1546C43.7031 25.1546 41.3516 27.5062 41.3516 30.407C41.3516 33.3078 43.7031 35.6594 46.604 35.6594Z" fill="#FB74C4"/>
<path d="M48.8943 25.6805C49.2311 26.3734 49.4202 27.1512 49.4202 27.9734C49.4202 30.8741 47.0687 33.2258 44.1679 33.2258C43.3457 33.2258 42.5678 33.0366 41.875 32.6999C42.7264 34.4518 44.5228 35.6594 46.6013 35.6594C49.5021 35.6594 51.8537 33.3079 51.8537 30.407C51.8539 28.3283 50.6462 26.532 48.8943 25.6805Z" fill="#DD5CA2"/>
<path d="M62.7412 48.6518C61.2877 48.6518 60.1094 47.4734 60.1094 46.0199V21.3692C60.1094 19.9157 61.2877 18.7374 62.7412 18.7374C64.1947 18.7374 65.373 19.9157 65.373 21.3692V46.0201C65.373 47.4734 64.1947 48.6518 62.7412 48.6518Z" fill="#CBE2FF"/>
<path d="M62.7412 18.7374C62.7361 18.7374 62.731 18.7382 62.7259 18.7382V43.3729C62.7259 44.8213 61.5558 45.9956 60.1094 46.004V46.0201C60.1094 47.4736 61.2877 48.6519 62.7412 48.6519C64.1947 48.6519 65.373 47.4736 65.373 46.0201V21.3692C65.373 19.9157 64.1947 18.7374 62.7412 18.7374Z" fill="#CBE2FF"/>
<path d="M62.7407 35.6594C65.6415 35.6594 67.9931 33.3078 67.9931 30.407C67.9931 27.5062 65.6415 25.1546 62.7407 25.1546C59.8399 25.1546 57.4883 27.5062 57.4883 30.407C57.4883 33.3078 59.8399 35.6594 62.7407 35.6594Z" fill="#86F1A7"/>
<path d="M65.035 25.6805C65.3717 26.3734 65.5609 27.1512 65.5609 27.9734C65.5609 30.8741 63.2094 33.2258 60.3085 33.2258C59.4863 33.2258 58.7085 33.0366 58.0156 32.6999C58.867 34.4518 60.6634 35.6594 62.742 35.6594C65.6427 35.6594 67.9943 33.3079 67.9943 30.407C67.9945 28.3283 66.7869 26.532 65.035 25.6805Z" fill="#78D0B1"/>
<path d="M14.2568 48.6518C12.8033 48.6518 11.625 47.4734 11.625 46.0199V21.3692C11.625 19.9157 12.8033 18.7374 14.2568 18.7374C15.7104 18.7374 16.8887 19.9157 16.8887 21.3692V46.0201C16.8887 47.4734 15.7104 48.6518 14.2568 48.6518Z" fill="#CBE2FF"/>
<path d="M14.2568 18.7374C14.2517 18.7374 14.2466 18.7382 14.2415 18.7382V43.3729C14.2415 44.8213 13.0715 45.9956 11.625 46.004V46.0201C11.625 47.4736 12.8033 48.6519 14.2568 48.6519C15.7104 48.6519 16.8887 47.4736 16.8887 46.0201V21.3692C16.8887 19.9157 15.7104 18.7374 14.2568 18.7374Z" fill="#CBE2FF"/>
<path d="M14.2563 35.6594C17.1571 35.6594 19.5087 33.3078 19.5087 30.407C19.5087 27.5062 17.1571 25.1546 14.2563 25.1546C11.3555 25.1546 9.00391 27.5062 9.00391 30.407C9.00391 33.3078 11.3555 35.6594 14.2563 35.6594Z" fill="#FB74C4"/>
<path d="M16.5467 25.6805C16.8834 26.3734 17.0726 27.1512 17.0726 27.9734C17.0726 30.8741 14.7211 33.2258 11.8202 33.2258C10.998 33.2258 10.2202 33.0366 9.52734 32.6999C10.3787 34.4518 12.1751 35.6594 14.2537 35.6594C17.1544 35.6594 19.5061 33.3079 19.5061 30.407C19.5064 28.3283 18.2986 26.5321 16.5467 25.6805Z" fill="#DD5CA2"/>
<path d="M71.2151 0H13.3509C12.728 0 12.223 0.505012 12.223 1.12793C12.223 1.75085 12.728 2.25586 13.3509 2.25586H71.2151C73.161 2.25586 74.7441 3.83902 74.7441 5.78493V12.8519H2.25586V5.78493C2.25586 3.83902 3.83902 2.25586 5.78493 2.25586H7.57668C8.1996 2.25586 8.70461 1.75085 8.70461 1.12793C8.70461 0.505012 8.1996 0 7.57668 0H5.78493C2.59514 0 0 2.59514 0 5.78493V52.9554C0 56.1452 2.59514 58.7403 5.78493 58.7403H25.2122C25.8352 58.7403 26.3402 58.2353 26.3402 57.6124C26.3402 56.9895 25.8352 56.4845 25.2122 56.4845H5.78493C3.83902 56.4843 2.25586 54.9011 2.25586 52.9552V15.1078H74.7441V52.9554C74.7441 54.9013 73.161 56.4845 71.2151 56.4845H30.8585C30.2356 56.4845 29.7306 56.9895 29.7306 57.6124C29.7306 58.2353 30.2356 58.7403 30.8585 58.7403H71.2151C74.4049 58.7403 77 56.1452 77 52.9554V5.78493C77 2.59514 74.4049 0 71.2151 0Z" fill="black"/>
<path d="M11.0367 9.03006C11.8525 8.21429 11.8525 6.89167 11.0367 6.0759C10.2209 5.26012 8.89832 5.26012 8.08255 6.0759C7.26678 6.89167 7.26678 8.21429 8.08255 9.03006C8.89832 9.84583 10.2209 9.84583 11.0367 9.03006Z" fill="black"/>
<path d="M17.4625 9.03092C18.2783 8.21515 18.2783 6.89252 17.4625 6.07675C16.6467 5.26098 15.3241 5.26098 14.5083 6.07675C13.6926 6.89252 13.6926 8.21515 14.5083 9.03092C15.3241 9.84669 16.6467 9.84669 17.4625 9.03092Z" fill="black"/>
<path d="M23.8922 9.03153C24.708 8.21576 24.708 6.89313 23.8922 6.07736C23.0764 5.26159 21.7538 5.26159 20.938 6.07736C20.1222 6.89313 20.1222 8.21576 20.938 9.03153C21.7538 9.8473 23.0764 9.8473 23.8922 9.03153Z" fill="black"/>
<path d="M34.226 46.02V44.7948C35.8131 43.633 36.8466 41.7575 36.8466 39.6443C36.8466 37.5312 35.8132 35.6557 34.226 34.4939V21.3693C34.226 19.2962 32.5394 17.6096 30.4663 17.6096C28.3931 17.6096 26.7065 19.2962 26.7065 21.3693V34.4941C25.1194 35.6558 24.0859 37.5314 24.0859 39.6445C24.0859 41.7576 25.1193 43.6332 26.7065 44.7949V46.0202C26.7065 48.0933 28.3931 49.7799 30.4663 49.7799C32.5394 49.7799 34.226 48.0931 34.226 46.02ZM28.9624 21.3693C28.9624 20.5401 29.637 19.8654 30.4663 19.8654C31.2955 19.8654 31.9702 20.5401 31.9702 21.3693V33.4448C31.4876 33.3276 30.9844 33.2642 30.4663 33.2642C29.9482 33.2642 29.445 33.3278 28.9624 33.4448V21.3693ZM30.4663 35.5199C32.7405 35.5199 34.5907 37.3701 34.5907 39.6443C34.5907 41.9185 32.7405 43.7688 30.4663 43.7688C28.1921 43.7688 26.3418 41.9185 26.3418 39.6443C26.3418 37.3701 28.1921 35.5199 30.4663 35.5199ZM28.9624 46.02V45.8439C29.445 45.9611 29.9482 46.0245 30.4663 46.0245C30.9844 46.0245 31.4876 45.9609 31.9702 45.8439V46.02C31.9702 46.8493 31.2955 47.5239 30.4663 47.5239C29.637 47.5239 28.9624 46.8493 28.9624 46.02Z" fill="black"/>
<path d="M46.603 17.6096C44.5298 17.6096 42.8432 19.2962 42.8432 21.3693V25.2566C41.2561 26.4184 40.2227 28.2939 40.2227 30.407C40.2227 32.5202 41.256 34.3957 42.8432 35.5575V46.0202C42.8432 48.0933 44.5298 49.7799 46.603 49.7799C48.6761 49.7799 50.3627 48.0933 50.3627 46.0202V35.5623C51.6451 34.6275 52.5738 33.2218 52.878 31.5666C52.9907 30.9539 52.5852 30.366 51.9725 30.2533C51.3595 30.1404 50.7718 30.5462 50.6593 31.1589C50.3 33.1133 48.5941 34.5318 46.603 34.5318C44.3288 34.5318 42.4785 32.6816 42.4785 30.4073C42.4785 28.1331 44.3288 26.2829 46.603 26.2829C47.4297 26.2829 48.2267 26.5262 48.9083 26.9866C49.4246 27.3355 50.1257 27.1995 50.4743 26.6832C50.7747 26.2387 50.7148 25.6574 50.3627 25.2817V21.3693C50.3627 19.296 48.6761 17.6096 46.603 17.6096ZM48.1069 36.6072V46.02C48.1069 46.8493 47.4322 47.5239 46.603 47.5239C45.7737 47.5239 45.0991 46.8493 45.0991 46.02V36.6066C45.5817 36.7238 46.0849 36.7872 46.603 36.7872C47.1194 36.7874 47.6231 36.7242 48.1069 36.6072ZM45.0991 24.2073V21.3693C45.0991 20.5401 45.7737 19.8654 46.603 19.8654C47.4322 19.8654 48.1069 20.5401 48.1069 21.3693V24.2061C47.6183 24.0881 47.1143 24.0267 46.603 24.0267C46.0849 24.0267 45.5817 24.0903 45.0991 24.2073Z" fill="black"/>
<path d="M62.7436 17.6096C60.6705 17.6096 58.9838 19.2962 58.9838 21.3693V25.2566C57.3966 26.4184 56.3633 28.2939 56.3633 30.407C56.3633 32.5202 57.3968 34.3957 58.9838 35.5575V46.02C58.9838 48.0931 60.6705 49.7798 62.7436 49.7798C64.8167 49.7798 66.5034 48.0931 66.5034 46.02V35.5573C68.0904 34.3956 69.1239 32.52 69.1239 30.4069C69.1239 28.2938 68.0906 26.4182 66.5034 25.2565V21.3693C66.5034 19.296 64.8167 17.6096 62.7436 17.6096ZM61.2397 21.3693C61.2397 20.5401 61.9143 19.8654 62.7436 19.8654C63.5729 19.8654 64.2475 20.5401 64.2475 21.3693V24.2075C63.7649 24.0903 63.2617 24.0269 62.7436 24.0269C62.2255 24.0269 61.7223 24.0905 61.2397 24.2075V21.3693ZM64.2475 46.02C64.2475 46.8493 63.5729 47.5239 62.7436 47.5239C61.9143 47.5239 61.2397 46.8493 61.2397 46.02V36.6066C61.7223 36.7238 62.2255 36.7872 62.7436 36.7872C63.2617 36.7872 63.7649 36.7236 64.2475 36.6066V46.02ZM62.7436 34.5315C60.4692 34.5315 58.6191 32.6813 58.6191 30.407C58.6191 28.1328 60.4694 26.2826 62.7436 26.2826C65.0178 26.2826 66.8681 28.1328 66.8681 30.407C66.8681 32.6813 65.0178 34.5315 62.7436 34.5315Z" fill="black"/>
<path d="M14.2553 49.7798C16.3285 49.7798 18.0151 48.0931 18.0151 46.02V35.5575C19.6023 34.3957 20.6356 32.5202 20.6356 30.407C20.6356 28.2939 19.6022 26.4184 18.0151 25.2566V21.3693C18.0151 19.2962 16.3285 17.6096 14.2553 17.6096C12.1822 17.6096 10.4956 19.2962 10.4956 21.3693V25.2566C8.90848 26.4184 7.875 28.2939 7.875 30.407C7.875 32.5202 8.90833 34.3957 10.4956 35.5575V46.0202C10.4956 48.0931 12.1822 49.7798 14.2553 49.7798ZM15.7592 46.02C15.7592 46.8493 15.0846 47.5239 14.2553 47.5239C13.4261 47.5239 12.7514 46.8493 12.7514 46.02V36.6066C13.234 36.7238 13.7372 36.7872 14.2553 36.7872C14.7734 36.7872 15.2766 36.7236 15.7592 36.6066V46.02ZM12.7514 21.3693C12.7514 20.5401 13.4261 19.8654 14.2553 19.8654C15.0846 19.8654 15.7592 20.5401 15.7592 21.3693V24.2075C15.2766 24.0903 14.7734 24.0269 14.2553 24.0269C13.7372 24.0269 13.234 24.0905 12.7514 24.2075V21.3693ZM14.2553 26.2826C16.5297 26.2826 18.3798 28.1328 18.3798 30.407C18.3798 32.6813 16.5295 34.5315 14.2553 34.5315C11.9811 34.5315 10.1309 32.6813 10.1309 30.407C10.1309 28.1328 11.9811 26.2826 14.2553 26.2826Z" fill="black"/>
</svg>
