<svg width="115" height="115" viewBox="0 0 115 115" fill="none" xmlns="http://www.w3.org/2000/svg">
<path d="M34.532 40.501L17.8379 60.5306H24.5155V87.4637L31.1932 94.1414H51.2261V60.5306L34.532 40.501Z" fill="#D7DDFF"/>
<path d="M24.5162 87.4639L0.921875 114.174H27.855L37.8715 107.497L44.41 94.4197L44.5491 87.4639H24.5162Z" fill="#5C4AE4"/>
<path d="M81.2761 40.501L64.582 60.5306V94.1414H86.0756L91.2926 87.4637V60.5306H97.9702L81.2761 40.501Z" fill="#5C4AE4"/>
<path d="M57.9049 0.209229L34.5332 20.2422H44.5497V94.1414H57.9049H71.2602V20.2422H81.2767L57.9049 0.209229Z" fill="#5C4AE4"/>
<path d="M71.2596 20.2423H81.276L57.9043 0.209351V94.1415H71.2596V20.2423Z" fill="#D7DDFF"/>
<path d="M91.2931 87.4637H71.2601L70.8984 93.4182L79.2174 110.056L87.9542 114.174H114.887L91.2931 87.4637Z" fill="#D7DDFF"/>
<path d="M71.2601 87.4637H57.9049H44.5496L27.8555 114.174H57.9049H87.9542L71.2601 87.4637Z" fill="#D7DDFF"/>
<path d="M71.2596 87.4639H57.9043V114.174H87.9537L71.2596 87.4639Z" fill="#5C4AE4"/>
</svg>
