<svg width="107" height="111" viewBox="0 0 107 111" fill="none" xmlns="http://www.w3.org/2000/svg">
<path d="M66.662 76.9234L66.2578 56.9457C73.3213 56.8606 82.5336 55.3713 90.4694 54.7117C90.4481 54.0309 90.5332 53.3501 90.7247 52.6906C90.8737 52.0736 91.129 51.4779 91.4481 50.946C92.6395 49.1163 95.8521 48.3929 97.0223 50.5417L102.979 67.626L99.6817 80.4126C99.5541 80.9445 99.3201 81.4339 99.0222 81.8807C99.0222 81.8807 97.9797 83.604 96.9797 85.1145H70.3853C68.0875 83.0083 66.7471 80.051 66.662 76.9234Z" fill="#EFCDB1"/>
<path d="M99.0015 92.9865C99.0227 93.7524 98.2355 94.3481 97.2569 94.3694H93.7889L69.5986 94.5609C68.6199 94.5609 67.8115 93.9651 67.8115 93.2205L67.7051 86.2634C67.7051 85.5187 68.4923 84.9018 69.4709 84.9018L93.7889 84.7103L97.1079 84.6677C98.1079 84.6677 98.8951 85.2634 98.9164 86.0081L99.0015 92.9865Z" fill="#D1D0DF"/>
<path d="M99.0016 92.9866C99.0229 93.7525 98.2357 94.3482 97.257 94.3695H93.7891V84.7316L97.1081 84.6891C98.108 84.6891 98.8952 85.2848 98.9165 86.0295L99.0016 92.9866Z" fill="#B5B5C6"/>
<path d="M102.001 110.624H70.2578C80.9594 110.624 90.342 104.752 95.5119 94.3056L101.746 94.2631L102.001 110.624Z" fill="#5C4AE4"/>
<path d="M95.512 94.3057C90.342 104.752 80.9595 110.624 70.2579 110.624H65.3432L65.0879 94.5397L95.512 94.3057Z" fill="#D7DDFF"/>
<path d="M56.2144 61.6477L63.2566 77.647L104.467 59.5202C106.489 58.6479 107.403 56.2863 106.51 54.2864C106.51 54.2864 106.51 54.2864 106.51 54.2651L88.681 13.6926L72.0647 21.0114C71.7243 21.1603 71.3414 21.0114 71.1924 20.671C71.1499 20.5646 71.1286 20.4369 71.1499 20.3093C71.3626 18.5647 71.5754 15.267 70.4052 13.182C68.2351 9.3098 63.3417 7.92688 59.4696 10.097C55.5974 12.2671 54.2145 17.1605 56.3846 21.0326C57.4271 22.8836 59.1504 24.2453 61.1929 24.841C61.4482 24.9048 61.6184 25.1601 61.5546 25.4154C61.512 25.5856 61.4057 25.7133 61.2567 25.7771L43.832 33.415L51.47 50.7972C51.5551 51.0525 51.8316 51.1801 52.087 51.095C52.2359 51.0312 52.3635 50.9036 52.4061 50.7546C53.6401 46.4782 58.0867 44.0103 62.3631 45.2442C66.6395 46.4782 69.1074 50.9248 67.8734 55.2012C67.299 57.2437 65.9161 58.967 64.0651 60.0095C61.9588 61.1797 58.6611 60.9669 56.9165 60.7329C56.5335 60.7116 56.2144 60.9882 56.1931 61.3711C56.1506 61.435 56.1719 61.5413 56.2144 61.6477Z" fill="#5C4AE4"/>
<path d="M57.0879 63.6262L63.2578 77.6468L104.469 59.52C106.49 58.6477 107.405 56.2862 106.511 54.2863C106.511 54.2863 106.511 54.2863 106.511 54.265L105.809 52.6693C104.043 53.5842 102.235 54.4565 100.384 55.2649C86.7673 61.2646 71.9595 64.1156 57.0879 63.6262Z" fill="#D7DDFF"/>
<path d="M86.3848 72.3068C86.8103 71.3706 87.3209 70.3707 87.9166 69.3069C89.6399 66.307 92.6398 65.0731 92.6398 65.0731C92.6398 65.0731 91.342 57.2436 90.9377 54.6267C90.6612 52.797 91.0016 50.9248 91.9164 49.3079C93.1717 47.3505 96.4481 46.542 97.6396 48.776L103.363 66.69L99.7458 80.2638" fill="#EFCDB1"/>
<path d="M40.4502 36.8404L40.8545 56.8182C33.791 56.882 24.5786 58.3926 16.6429 59.0521C16.6429 59.7329 16.5578 60.4137 16.3875 61.0733C16.2386 61.6903 15.9833 62.2647 15.6642 62.8179C14.4727 64.6476 11.2601 65.3709 10.0687 63.2221L4.13281 46.1378L7.43053 33.3512C7.55818 32.8193 7.79221 32.3087 8.09007 31.8619C8.09007 31.8619 9.13257 30.1599 10.1325 28.6493H36.727C39.0248 30.7556 40.3864 33.7129 40.4502 36.8404Z" fill="#EFCDB1"/>
<path d="M39.4075 27.4793L39.3011 20.5009C39.3011 19.7563 38.4927 19.1606 37.514 19.1818L9.85572 19.3946C8.87704 19.3946 8.08984 20.0116 8.08984 20.7562L8.19622 27.7133C8.19622 28.4793 9.00469 29.075 9.98337 29.0537L37.6416 28.8409C38.6203 28.8409 39.4075 28.2239 39.4075 27.4793Z" fill="#D1D0DF"/>
<path d="M13.3238 28.9897H9.43041C8.70704 28.9897 8.11133 28.394 8.11133 27.6706V27.6494V21.0539C8.11133 20.1816 8.8347 19.4583 9.707 19.4583H13.3238V28.9897Z" fill="#B5B5C6"/>
<path d="M5.11133 0.586792H36.8545C26.1529 0.586792 16.7703 8.99065 11.6004 19.4582L5.34536 19.5008L5.11133 0.586792Z" fill="#5C4AE4"/>
<path d="M11.5996 19.4582C16.7696 8.99065 26.1521 0.586792 36.8537 0.586792H41.7684L42.0024 19.2029L11.5996 19.4582Z" fill="#D7DDFF"/>
<path d="M67.6616 50.4993C68.7892 54.1162 67.2361 58.0309 63.9597 59.9031C61.8534 61.0733 58.5557 60.9031 56.8111 60.6903C56.4494 60.6478 56.1303 60.9031 56.0877 61.2648C56.0664 61.3711 56.0877 61.4988 56.1303 61.6052L62.4278 75.6896C63.0661 77.1151 62.4278 78.7958 61.0024 79.4341L46.2797 86.0295C46.0456 86.1572 45.7478 86.0508 45.6201 85.8168C45.5563 85.6678 45.5563 85.4976 45.6201 85.37C47.5775 81.3702 45.918 76.5619 41.9182 74.6045C37.9184 72.6472 33.1101 74.3067 31.1527 78.3065C30.2166 80.2 30.089 82.3914 30.7485 84.3913C31.5144 86.6678 34.11 88.7103 35.5568 89.7315C35.8546 89.9655 35.9185 90.391 35.6844 90.6889C35.6206 90.774 35.5355 90.8378 35.4504 90.8804L18.8767 98.2843L0.49462 57.2011C-0.398954 55.1799 0.49462 52.8183 2.5158 51.9035L41.3863 34.5213C42.5777 33.9682 44.0032 34.5001 44.5351 35.7128C44.5351 35.7128 44.5351 35.734 44.5563 35.734C46.3435 39.7551 49.8327 47.5207 51.3007 50.7972C51.3858 51.0525 51.6837 51.1801 51.939 51.095C52.0879 51.0312 52.2156 50.9035 52.2368 50.7333C53.4283 46.4569 57.8749 43.9464 62.1513 45.1379C64.7682 45.8825 66.8532 47.9037 67.6616 50.4993Z" fill="#D7DDFF"/>
<path d="M63.9605 59.903C61.8542 61.0731 58.5565 60.9029 56.8119 60.6902C56.4502 60.6476 56.1311 60.9029 56.0885 61.2646C56.0672 61.371 56.0885 61.4987 56.1311 61.605L62.4287 75.6895C63.0669 77.1149 62.4286 78.7957 61.0032 79.434L46.2592 86.0507C46.0252 86.1571 45.7273 86.072 45.5997 85.8166C45.5358 85.6677 45.5358 85.4975 45.6209 85.3699C47.5783 81.37 45.9188 76.5618 41.919 74.6044C37.9192 72.6471 33.1109 74.3066 31.1535 78.3064C30.2174 80.1999 30.0898 82.3913 30.7493 84.3912C31.5152 86.6677 34.1109 88.7314 35.5576 89.7314C35.8554 89.9654 35.9193 90.3909 35.6852 90.6888C35.6214 90.7739 35.5363 90.8377 35.4512 90.8802L18.8775 98.2841L14.5586 88.625C28.5792 78.3276 37.9192 59.903 37.9192 38.904C37.9192 37.9466 37.8979 37.0105 37.8554 36.0743L41.3658 34.5212C42.5573 33.9681 43.9827 34.4999 44.5146 35.7127C44.5146 35.7127 44.5146 35.7339 44.5359 35.7339C46.323 39.755 49.8122 47.5206 51.2802 50.797C51.3653 51.0523 51.6632 51.18 51.9185 51.0949C52.0674 51.0311 52.1951 50.9034 52.2164 50.7332C53.4078 46.4568 57.8544 43.9463 62.1308 45.1377C64.769 45.8611 66.8327 47.8823 67.6412 50.4992C68.7688 54.116 67.2369 58.0095 63.9605 59.903Z" fill="#5C4AE4"/>
<path d="M20.7279 41.4572C20.3024 42.372 19.7918 43.3933 19.1748 44.457C17.4727 47.4569 14.4729 48.6909 14.4729 48.6909C14.4729 48.6909 15.7707 56.5203 16.1749 59.1372C16.4515 60.9669 16.1111 62.8391 15.1963 64.4561C13.941 66.3922 10.6433 67.2219 9.47313 64.988L3.75 47.0527L7.36685 33.5001" fill="#EFCDB1"/>
<path d="M25.2227 101.769L27.4923 100.597L30.4415 106.309L28.1718 107.481L25.2227 101.769Z" fill="#494949"/>
<path d="M6.80664 106.411L9.75582 100.699L12.0255 101.871L9.07632 107.583L6.80664 106.411Z" fill="#494949"/>
<path d="M17.2383 110.665L17.3925 104.24L19.9456 104.301L19.7914 110.726L17.2383 110.665Z" fill="#494949"/>
<path d="M79.1895 5.31238L81.4591 4.14052L84.4083 9.85254L82.1386 11.0244L79.1895 5.31238Z" fill="#494949"/>
<path d="M97.6211 9.91846L100.57 4.20643L102.84 5.37829L99.8908 11.0903L97.6211 9.91846Z" fill="#494949"/>
<path d="M89.4805 7.23999L89.6347 0.814762L92.1877 0.876035L92.0335 7.30126L89.4805 7.23999Z" fill="#494949"/>
</svg>
