<svg width="77" height="77" viewBox="0 0 77 77" fill="none" xmlns="http://www.w3.org/2000/svg">
<path d="M42.5832 25.6514V18.0659H37.6811C37.2845 16.4016 36.6239 14.8115 35.7245 13.3561L39.1947 9.88594L33.8307 4.522L30.3605 7.99412C28.9051 7.09468 27.3151 6.43412 25.6507 6.03753V1.13342H18.0653V6.04206C16.4027 6.43966 14.8136 7.09854 13.3575 7.99412L9.88533 4.522L4.52138 9.88594L7.99351 13.3581C7.09793 14.8142 6.43905 16.4033 6.04145 18.0659H1.13281V25.6514H6.03433C6.43227 27.3158 7.09367 28.9061 7.99351 30.3618L4.52398 33.8313L9.88792 39.1959L13.3575 35.7257C14.8132 36.6249 16.4035 37.2855 18.0679 37.6823V42.5839H25.6507V37.6752C27.3134 37.2776 28.9024 36.6187 30.3586 35.7232L33.8307 39.1959L39.1947 33.8313L35.7225 30.3592C36.6181 28.903 37.277 27.314 37.6746 25.6514H42.5832ZM21.858 30.5367C20.1415 30.5367 18.4636 30.0277 17.0364 29.0741C15.6092 28.1204 14.4968 26.765 13.84 25.1792C13.1831 23.5934 13.0112 21.8484 13.3461 20.1649C13.681 18.4814 14.5075 16.935 15.7213 15.7212C16.935 14.5075 18.4814 13.6809 20.1649 13.3461C21.8484 13.0112 23.5934 13.1831 25.1792 13.8399C26.765 14.4968 28.1205 15.6092 29.0741 17.0364C30.0277 18.4636 30.5367 20.1415 30.5367 21.858C30.5367 24.1597 29.6224 26.3672 27.9948 27.9947C26.3672 29.6223 24.1598 30.5367 21.858 30.5367Z" fill="#76E2F8"/>
<path d="M75.8645 58.9321V51.3467H70.9623C70.5657 49.6822 69.9052 48.0919 69.0057 46.6363L72.4759 43.1661L67.112 37.8021L63.6418 41.2723C62.1862 40.3731 60.5962 39.7126 58.932 39.3157V34.4142H51.3466V39.3229C49.6839 39.7205 48.0949 40.3793 46.6387 41.2749L43.1666 37.8021L37.8026 43.1661L41.2748 46.6389C40.3792 48.095 39.7203 49.6841 39.3227 51.3467H34.4141V58.9321H39.3156C39.7128 60.5963 40.3733 62.1862 41.2722 63.6419L37.8026 67.1121L43.1666 72.4761L46.6361 69.0059C48.0918 69.9053 49.682 70.5659 51.3466 70.9625V75.8646H58.932V70.956C60.5946 70.5584 62.1837 69.8995 63.6399 69.0039L67.112 72.4761L72.4759 67.1121L69.0038 63.64C69.8994 62.1838 70.5583 60.5948 70.9559 58.9321H75.8645ZM55.1393 63.8168C53.4228 63.8168 51.7449 63.3078 50.3177 62.3542C48.8905 61.4006 47.7781 60.0451 47.1212 58.4593C46.4643 56.8735 46.2925 55.1285 46.6274 53.445C46.9622 51.7615 47.7888 50.2151 49.0025 49.0014C50.2163 47.7876 51.7626 46.9611 53.4461 46.6262C55.1296 46.2913 56.8746 46.4632 58.4605 47.1201C60.0463 47.7769 61.4017 48.8893 62.3553 50.3165C63.309 51.7437 63.818 53.4217 63.818 55.1381C63.818 57.4399 62.9036 59.6473 61.276 61.2749C59.6485 62.9025 57.441 63.8168 55.1393 63.8168Z" fill="#FF641A"/>
<path d="M66.1082 29.9466C68.2262 29.9466 69.9431 28.2297 69.9431 26.1118C69.9431 23.9939 68.2262 22.277 66.1082 22.277C63.9903 22.277 62.2734 23.9939 62.2734 26.1118C62.2734 28.2297 63.9903 29.9466 66.1082 29.9466Z" fill="#76E2F8"/>
<path d="M10.8895 54.721C13.0074 54.721 14.7243 53.0041 14.7243 50.8862C14.7243 48.7683 13.0074 47.0514 10.8895 47.0514C8.77159 47.0514 7.05469 48.7683 7.05469 50.8862C7.05469 53.0041 8.77159 54.721 10.8895 54.721Z" fill="#FF641A"/>
<path d="M34.6325 39.9977L39.9964 34.6331C40.1017 34.528 40.1853 34.4031 40.2423 34.2656C40.2993 34.1282 40.3287 33.9808 40.3287 33.832C40.3287 33.6831 40.2993 33.5358 40.2423 33.3983C40.1853 33.2608 40.1017 33.136 39.9964 33.0308L37.1389 30.1733C37.7263 29.0969 38.1972 27.961 38.5437 26.7847H42.5825C42.8831 26.7847 43.1714 26.6653 43.384 26.4528C43.5965 26.2402 43.716 25.9519 43.716 25.6513V18.0659C43.716 17.7653 43.5965 17.477 43.384 17.2645C43.1714 17.0519 42.8831 16.9325 42.5825 16.9325H38.5528C38.206 15.7546 37.7335 14.6175 37.1435 13.5407L39.9964 10.6871C40.1018 10.5819 40.1853 10.4569 40.2423 10.3194C40.2994 10.1819 40.3287 10.0345 40.3287 9.8856C40.3287 9.73673 40.2994 9.58931 40.2423 9.45179C40.1853 9.31426 40.1018 9.18933 39.9964 9.08412L34.6325 3.71953C34.5273 3.61421 34.4025 3.53066 34.265 3.47365C34.1275 3.41665 33.9801 3.38731 33.8313 3.38731C33.6825 3.38731 33.5351 3.41665 33.3977 3.47365C33.2602 3.53066 33.1353 3.61421 33.0302 3.71953L30.1766 6.57378C29.0998 5.98372 27.9626 5.51123 26.7847 5.16446V1.13341C26.7848 0.984545 26.7556 0.837122 26.6986 0.699572C26.6417 0.562022 26.5582 0.437042 26.453 0.331778C26.3477 0.226515 26.2227 0.143032 26.0852 0.0861025C25.9476 0.0291735 25.8002 -8.49537e-05 25.6513 1.85275e-07H18.0653C17.9164 -8.49537e-05 17.769 0.0291735 17.6314 0.0861025C17.4939 0.143032 17.3689 0.226515 17.2636 0.331778C17.1584 0.437042 17.0749 0.562022 17.018 0.699572C16.961 0.837122 16.9318 0.984545 16.9319 1.13341V5.17159C15.7559 5.51849 14.6202 5.98962 13.5439 6.57702L10.6871 3.71953C10.5819 3.61419 10.4569 3.53063 10.3194 3.47361C10.1819 3.4166 10.0345 3.38725 9.8856 3.38725C9.73673 3.38725 9.58931 3.4166 9.45179 3.47361C9.31426 3.53063 9.18933 3.61419 9.08412 3.71953L3.71953 9.08412C3.61419 9.18933 3.53063 9.31426 3.47361 9.45179C3.4166 9.58931 3.38725 9.73673 3.38725 9.8856C3.38725 10.0345 3.4166 10.1819 3.47361 10.3194C3.53063 10.4569 3.61419 10.5819 3.71953 10.6871L6.57572 13.5439C5.98837 14.6204 5.51724 15.7563 5.17029 16.9325H1.13341C0.984545 16.9324 0.837122 16.9617 0.699572 17.0186C0.562022 17.0755 0.437042 17.159 0.331778 17.2643C0.226515 17.3695 0.143032 17.4945 0.0861025 17.6321C0.0291735 17.7696 -8.49537e-05 17.917 1.85275e-07 18.0659V25.6513C-8.49537e-05 25.8002 0.0291735 25.9476 0.0861025 26.0852C0.143032 26.2227 0.226515 26.3477 0.331778 26.453C0.437042 26.5582 0.562022 26.6417 0.699572 26.6986C0.837122 26.7556 0.984545 26.7848 1.13341 26.7847H5.16382C5.51076 27.9627 5.98347 29.0998 6.57378 30.1766L3.71953 33.0308C3.61421 33.136 3.53066 33.2608 3.47365 33.3983C3.41665 33.5358 3.38731 33.6831 3.38731 33.832C3.38731 33.9808 3.41665 34.1282 3.47365 34.2656C3.53066 34.4031 3.61421 34.528 3.71953 34.6331L9.08282 39.9977C9.29555 40.21 9.58379 40.3292 9.88431 40.3292C10.1848 40.3292 10.4731 40.21 10.6858 39.9977L13.5394 37.1435C14.6165 37.7335 15.7538 38.2062 16.9319 38.5534V42.5845C16.9319 42.8851 17.0513 43.1734 17.2638 43.3859C17.4764 43.5985 17.7647 43.7179 18.0653 43.7179H25.6513C25.9519 43.7179 26.2402 43.5985 26.4528 43.3859C26.6653 43.1734 26.7847 42.8851 26.7847 42.5845V38.5457C27.9607 38.1988 29.0964 37.7276 30.1727 37.1402L33.0302 39.9977C33.2427 40.2101 33.5309 40.3294 33.8313 40.3294C34.1318 40.3294 34.4199 40.2101 34.6325 39.9977ZM31.1604 34.922C30.9804 34.7416 30.7448 34.6273 30.4917 34.5975C30.2387 34.5676 29.983 34.624 29.7659 34.7575C28.4118 35.5901 26.934 36.2022 25.3877 36.5709C25.1403 36.6303 24.92 36.7712 24.7622 36.9709C24.6045 37.1706 24.5184 37.4175 24.5179 37.672V41.4478H19.1987V37.6823C19.1983 37.4276 19.1122 37.1805 18.9541 36.9807C18.7961 36.7809 18.5754 36.6402 18.3276 36.5813C16.7815 36.2116 15.3045 35.5969 13.9526 34.7607C13.7354 34.6267 13.4793 34.57 13.2257 34.5996C12.9722 34.6292 12.7361 34.7435 12.5556 34.9239L9.88528 37.5923L6.12495 33.8307L8.79332 31.1617C8.97361 30.9812 9.08779 30.7452 9.1174 30.4918C9.14702 30.2384 9.09034 29.9825 8.95653 29.7653C8.12039 28.4125 7.50619 26.9347 7.13725 25.3877C7.0783 25.1399 6.9376 24.9192 6.73785 24.7612C6.53809 24.6031 6.29093 24.517 6.03622 24.5166H2.26682V19.1987H6.04205C6.29655 19.1983 6.54353 19.1123 6.74323 18.9545C6.94294 18.7967 7.08377 18.5764 7.14307 18.3289C7.51144 16.7829 8.12359 15.3054 8.95653 13.952C9.08979 13.7346 9.14603 13.4788 9.11618 13.2256C9.08634 12.9724 8.97216 12.7366 8.79202 12.5562L6.12495 9.88528L9.88528 6.12495L12.5562 8.79591C12.7365 8.9761 12.9721 9.09032 13.2252 9.12017C13.4783 9.15001 13.7341 9.09374 13.9513 8.96042C15.3052 8.12786 16.7828 7.51574 18.3289 7.14696C18.5763 7.08755 18.7966 6.94669 18.9544 6.74701C19.1121 6.54733 19.1982 6.30041 19.1987 6.04593V2.26682H24.5179V6.03557C24.5183 6.29028 24.6044 6.53745 24.7625 6.7372C24.9205 6.93695 25.1412 7.07765 25.389 7.1366C26.9359 7.50541 28.4138 8.11939 29.7666 8.95524C29.9836 9.08962 30.2397 9.14663 30.4932 9.11699C30.7467 9.08736 30.9828 8.97283 31.163 8.79202L33.8313 6.12365L37.5923 9.88528L34.9239 12.5543C34.7437 12.7349 34.6296 12.971 34.5999 13.2245C34.5703 13.4779 34.627 13.734 34.7607 13.9513C35.5968 15.3038 36.2108 16.7815 36.5794 18.3282C36.6383 18.576 36.779 18.7967 36.9788 18.9548C37.1785 19.1128 37.4257 19.199 37.6804 19.1993H41.4491V24.5179H37.6733C37.4187 24.5185 37.1717 24.6046 36.972 24.7625C36.7723 24.9204 36.6315 25.1408 36.5722 25.3884C36.2035 26.9345 35.5914 28.4121 34.7588 29.7659C34.6253 29.983 34.5689 30.2387 34.5987 30.4917C34.6286 30.7448 34.7429 30.9804 34.9233 31.1604L37.5923 33.832L33.8313 37.5923L31.1604 34.922Z" fill="black"/>
<path d="M14.181 17.6585C14.3012 17.7464 14.4375 17.8096 14.5821 17.8448C14.7267 17.8799 14.8769 17.8862 15.0239 17.8633C15.171 17.8404 15.3121 17.7887 15.4392 17.7112C15.5663 17.6337 15.6768 17.532 15.7646 17.4118C16.2581 16.7366 16.8599 16.1477 17.5457 15.6689C17.6741 15.5866 17.7847 15.4792 17.8707 15.3532C17.9567 15.2271 18.0164 15.085 18.0461 14.9354C18.0759 14.7857 18.0751 14.6316 18.0438 14.4823C18.0126 14.3329 17.9515 14.1914 17.8642 14.0662C17.777 13.9411 17.6653 13.8348 17.536 13.7538C17.4067 13.6728 17.2624 13.6188 17.1117 13.5949C16.961 13.5711 16.807 13.5779 16.659 13.615C16.511 13.6521 16.372 13.7187 16.2503 13.8107C15.359 14.4333 14.577 15.1992 13.9362 16.0776C13.7596 16.3199 13.6862 16.6223 13.7321 16.9186C13.778 17.2149 13.9394 17.481 14.181 17.6585Z" fill="black"/>
<path d="M22.5176 12.0692C22.2176 12.0493 21.922 12.1493 21.6958 12.3474C21.4696 12.5454 21.3313 12.8252 21.3114 13.1252C21.2914 13.4252 21.3915 13.7208 21.5896 13.9471C21.7876 14.1733 22.0674 14.3116 22.3674 14.3315C23.8345 14.4307 25.2407 14.9565 26.413 15.8443C27.5853 16.732 28.4727 17.943 28.9659 19.3283C29.4591 20.7137 29.5368 22.2129 29.1893 23.6418C28.8418 25.0707 28.0843 26.3668 27.0099 27.3709C25.9356 28.375 24.5913 29.0433 23.1422 29.2935C21.6931 29.5437 20.2025 29.3651 18.8537 28.7794C17.5048 28.1938 16.3565 27.2267 15.5499 25.9972C14.7433 24.7676 14.3136 23.3291 14.3137 21.8586C14.3137 21.558 14.1943 21.2697 13.9817 21.0572C13.7692 20.8446 13.4809 20.7252 13.1803 20.7252C12.8797 20.7252 12.5914 20.8446 12.3788 21.0572C12.1663 21.2697 12.0469 21.558 12.0469 21.8586C12.0469 23.7711 12.6058 25.6418 13.6549 27.2408C14.704 28.8398 16.1976 30.0973 17.9519 30.8587C19.7062 31.6201 21.6448 31.8523 23.5293 31.5266C25.4138 31.2009 27.162 30.3315 28.559 29.0255C29.9559 27.7194 30.9408 26.0335 31.3923 24.1752C31.8439 22.3168 31.7425 20.367 31.1007 18.5655C30.4588 16.764 29.3045 15.1894 27.7796 14.0352C26.2547 12.8811 24.4257 12.1977 22.5176 12.0692Z" fill="black"/>
<path d="M75.8651 50.2133H71.834C71.4873 49.0354 71.0148 47.8983 70.4247 46.8215L73.2783 43.9672C73.3836 43.8621 73.4672 43.7372 73.5242 43.5997C73.5812 43.4623 73.6105 43.3149 73.6105 43.1661C73.6105 43.0173 73.5812 42.8699 73.5242 42.7324C73.4672 42.595 73.3836 42.4701 73.2783 42.3649L67.9144 37.0016C67.8092 36.8963 67.6842 36.8127 67.5467 36.7557C67.4092 36.6987 67.2618 36.6693 67.1129 36.6693C66.964 36.6693 66.8166 36.6987 66.6791 36.7557C66.5416 36.8127 66.4166 36.8963 66.3114 37.0016L63.4578 39.8546C62.3811 39.2646 61.2442 38.7919 60.0667 38.4446V34.4136C60.0667 34.113 59.9472 33.8247 59.7347 33.6121C59.5221 33.3996 59.2338 33.2802 58.9332 33.2802H51.3472C51.0466 33.2802 50.7583 33.3996 50.5457 33.6121C50.3332 33.8247 50.2137 34.113 50.2137 34.4136V38.4524C49.0375 38.7992 47.9016 39.2703 46.8252 39.8578L43.9683 37.0016C43.8632 36.8963 43.7383 36.8128 43.6008 36.7557C43.4634 36.6987 43.316 36.6694 43.1672 36.6694C43.0184 36.6694 42.871 36.6987 42.7335 36.7557C42.5961 36.8128 42.4712 36.8963 42.366 37.0016L37.0014 42.3649C36.789 42.5775 36.6697 42.8656 36.6697 43.1661C36.6697 43.4665 36.789 43.7547 37.0014 43.9672L39.8596 46.8247C39.2719 47.901 38.801 49.037 38.4548 50.2133H34.4147C34.1141 50.2133 33.8258 50.3327 33.6132 50.5453C33.4007 50.7578 33.2812 51.0461 33.2812 51.3467V58.9321C33.2813 59.2327 33.4007 59.521 33.6132 59.7336C33.8258 59.9461 34.1141 60.0655 34.4147 60.0655H38.4457C38.7925 61.2434 39.265 62.3806 39.855 63.4574L37.0014 66.311C36.789 66.5236 36.6697 66.8119 36.6697 67.1124C36.6697 67.413 36.789 67.7013 37.0014 67.9139L42.366 73.2785C42.4712 73.3838 42.5961 73.4674 42.7335 73.5244C42.871 73.5814 43.0184 73.6107 43.1672 73.6107C43.316 73.6107 43.4634 73.5814 43.6008 73.5244C43.7383 73.4674 43.8632 73.3838 43.9683 73.2785L46.8219 70.4288C47.8987 71.019 49.0358 71.4915 50.2137 71.8381V75.8692C50.2137 76.018 50.2429 76.1655 50.2999 76.303C50.3568 76.4406 50.4403 76.5655 50.5455 76.6708C50.6508 76.7761 50.7758 76.8595 50.9133 76.9165C51.0509 76.9734 51.1983 77.0027 51.3472 77.0026H58.9326C59.0815 77.0027 59.2289 76.9734 59.3664 76.9165C59.504 76.8595 59.629 76.7761 59.7342 76.6708C59.8395 76.5655 59.923 76.4406 59.9799 76.303C60.0368 76.1655 60.0661 76.018 60.066 75.8692V71.831C61.2423 71.484 62.3782 71.0127 63.4546 70.4249L66.3114 73.2818C66.5251 73.4883 66.8114 73.6026 67.1086 73.6C67.4058 73.5975 67.6901 73.4784 67.9003 73.2683C68.1104 73.0582 68.2297 72.7739 68.2323 72.4767C68.235 72.1796 68.1208 71.8932 67.9144 71.6794L64.4423 68.2067C64.2619 68.0268 64.0262 67.9128 63.7732 67.8829C63.5202 67.8531 63.2645 67.9092 63.0472 68.0422C61.693 68.8746 60.2152 69.4867 58.669 69.8556C58.4215 69.9149 58.2011 70.0558 58.0434 70.2555C57.8856 70.4552 57.7996 70.7021 57.7992 70.9566V74.7319H52.4806V70.9631C52.4802 70.7084 52.3941 70.4612 52.236 70.2615C52.078 70.0617 51.8573 69.921 51.6095 69.8621C50.0626 69.4933 48.5847 68.8793 47.2319 68.0435C47.0149 67.9092 46.7588 67.8522 46.5053 67.8819C46.2518 67.9115 46.0158 68.026 45.8356 68.2067L43.1672 70.875L39.4062 67.1128L42.0746 64.4437C42.2551 64.2633 42.3695 64.0272 42.3991 63.7736C42.4287 63.5201 42.3719 63.264 42.2378 63.0467C41.4021 61.6941 40.7884 60.2165 40.4198 58.6698C40.3608 58.422 40.2201 58.2013 40.0204 58.0433C39.8206 57.8852 39.5735 57.7991 39.3188 57.7987H35.5481V52.4801H39.3233C39.5779 52.4796 39.8248 52.3934 40.0245 52.2355C40.2242 52.0777 40.365 51.8572 40.4243 51.6097C40.793 50.0636 41.4051 48.586 42.2378 47.2321C42.3713 47.0151 42.4277 46.7594 42.3978 46.5063C42.368 46.2533 42.2536 46.0177 42.0733 45.8377L39.4062 43.1661L43.1672 39.4057L45.8381 42.0767C46.018 42.2573 46.2536 42.3717 46.5067 42.4016C46.7598 42.4315 47.0156 42.3749 47.2326 42.2412C48.5867 41.4086 50.0645 40.7965 51.6108 40.4278C51.8582 40.3684 52.0785 40.2275 52.2362 40.0278C52.394 39.8281 52.48 39.5812 52.4806 39.3267V35.5509H57.7998V39.3196C57.8002 39.5743 57.8863 39.8215 58.0444 40.0212C58.2024 40.221 58.4231 40.3617 58.6709 40.4206C60.2176 40.7898 61.6952 41.404 63.0478 42.2399C63.265 42.3742 63.5212 42.4312 63.7748 42.4016C64.0284 42.372 64.2645 42.2575 64.4448 42.0767L67.1132 39.4057L70.8742 43.1667L68.2052 45.8357C68.0248 46.0162 67.9105 46.2522 67.8809 46.5056C67.8513 46.759 67.908 47.015 68.042 47.2321C68.8777 48.5847 69.4915 50.0623 69.86 51.609C69.9188 51.8569 70.0594 52.0778 70.2592 52.236C70.459 52.3941 70.7062 52.4804 70.961 52.4808H74.7297V57.7994H70.9545C70.7 57.7998 70.453 57.8858 70.2533 58.0436C70.0536 58.2013 69.9128 58.4217 69.8535 58.6692C69.4847 60.2152 68.8726 61.6928 68.04 63.0467C67.9068 63.264 67.8506 63.5197 67.8804 63.7728C67.9103 64.0259 68.0244 64.2615 68.2045 64.4418L70.8755 67.1134L70.279 67.7099C70.0726 67.9237 69.9584 68.21 69.961 68.5072C69.9637 68.8044 70.0829 69.0886 70.2931 69.2987C70.5033 69.5089 70.7876 69.628 71.0848 69.6305C71.382 69.633 71.6682 69.5187 71.882 69.3122L73.2803 67.9146C73.3856 67.8094 73.4692 67.6844 73.5262 67.5469C73.5832 67.4094 73.6125 67.262 73.6125 67.1131C73.6125 66.9642 73.5832 66.8168 73.5262 66.6793C73.4692 66.5417 73.3856 66.4168 73.2803 66.3116L70.4234 63.4541C71.0108 62.3779 71.482 61.2422 71.8289 60.0662H75.867C76.0159 60.0663 76.1633 60.037 76.3009 59.9801C76.4384 59.9232 76.5634 59.8397 76.6687 59.7344C76.7739 59.6292 76.8574 59.5042 76.9143 59.3666C76.9713 59.2291 77.0005 59.0817 77.0004 58.9328V51.3467C77.0005 51.1977 76.9712 51.0501 76.9142 50.9124C76.8571 50.7747 76.7734 50.6497 76.668 50.5444C76.5625 50.4391 76.4373 50.3557 76.2995 50.2988C76.1618 50.242 76.0141 50.213 75.8651 50.2133Z" fill="black"/>
<path d="M55.1396 45.328C53.1991 45.328 51.3021 45.9034 49.6886 46.9815C48.0751 48.0596 46.8176 49.5919 46.075 51.3847C45.3324 53.1775 45.1381 55.1503 45.5167 57.0535C45.8952 58.9568 46.8297 60.705 48.2018 62.0772C49.574 63.4493 51.3222 64.3838 53.2255 64.7623C55.1287 65.1409 57.1014 64.9466 58.8943 64.204C60.6871 63.4614 62.2194 62.2039 63.2975 60.5904C64.3756 58.9769 64.951 57.0799 64.951 55.1394C64.9481 52.5382 63.9135 50.0443 62.0741 48.2049C60.2347 46.3655 57.7408 45.3309 55.1396 45.328ZM55.1396 62.6853C53.6474 62.6853 52.1887 62.2429 50.948 61.4138C49.7073 60.5848 48.7403 59.4065 48.1692 58.0279C47.5982 56.6493 47.4488 55.1323 47.7399 53.6688C48.031 52.2053 48.7496 50.861 49.8047 49.8059C50.8599 48.7507 52.2042 48.0322 53.6677 47.7411C55.1312 47.4499 56.6482 47.5994 58.0268 48.1704C59.4054 48.7414 60.5837 49.7084 61.4127 50.9491C62.2417 52.1899 62.6842 53.6485 62.6842 55.1407C62.6816 57.1408 61.8859 59.0581 60.4715 60.4723C59.0571 61.8864 57.1396 62.6818 55.1396 62.684V62.6853Z" fill="black"/>
<path d="M46.7319 10.5569C53.3171 12.4955 59.0043 16.7013 62.7868 22.4299C61.8796 23.251 61.3061 24.377 61.1752 25.5936C61.0443 26.8102 61.3652 28.0325 62.077 29.0278C62.7887 30.0231 63.8415 30.7221 65.0351 30.9916C66.2287 31.2611 67.4797 31.0824 68.55 30.4895C69.6204 29.8966 70.4354 28.9309 70.84 27.7761C71.2446 26.6213 71.2106 25.3581 70.7443 24.2268C70.278 23.0955 69.4121 22.1751 68.3114 21.6407C67.2106 21.1064 65.9518 20.9954 64.7745 21.3288C60.6996 15.0797 54.5291 10.4892 47.3724 8.3827C47.2287 8.33743 47.0775 8.32126 46.9274 8.33514C46.7774 8.34902 46.6317 8.39266 46.4988 8.46352C46.3658 8.53438 46.2483 8.63103 46.1532 8.74782C46.058 8.86462 45.9871 8.99921 45.9445 9.14373C45.902 9.28825 45.8887 9.4398 45.9054 9.58952C45.9222 9.73924 45.9686 9.88413 46.0419 10.0157C46.1153 10.1473 46.2142 10.2629 46.3327 10.3558C46.4513 10.4488 46.5866 10.5171 46.7319 10.5569ZM68.8101 26.1118C68.8101 26.6462 68.6516 27.1687 68.3547 27.613C68.0578 28.0574 67.6358 28.4037 67.142 28.6082C66.6483 28.8127 66.105 28.8662 65.5809 28.762C65.0567 28.6577 64.5753 28.4004 64.1974 28.0225C63.8195 27.6446 63.5621 27.1631 63.4579 26.639C63.3536 26.1148 63.4071 25.5715 63.6116 25.0778C63.8162 24.5841 64.1625 24.1621 64.6068 23.8652C65.0512 23.5682 65.5736 23.4098 66.108 23.4098C66.8244 23.4105 67.5113 23.6954 68.0179 24.2019C68.5245 24.7085 68.8094 25.3954 68.8101 26.1118Z" fill="black"/>
<path d="M30.2644 66.4412C23.6803 64.5019 17.9944 60.2962 14.2127 54.5682C15.1198 53.747 15.6934 52.621 15.8243 51.4044C15.9552 50.1878 15.6342 48.9656 14.9225 47.9702C14.2108 46.9749 13.1579 46.276 11.9644 46.0065C10.7708 45.7369 9.51981 45.9156 8.44944 46.5085C7.37907 47.1015 6.56403 48.0672 6.15943 49.222C5.75483 50.3768 5.7889 51.64 6.25516 52.7713C6.72142 53.9026 7.58733 54.823 8.68811 55.3573C9.78889 55.8917 11.0477 56.0027 12.225 55.6692C16.2989 61.9178 22.4682 66.5083 29.6238 68.6154C29.7279 68.6461 29.8359 68.6616 29.9444 68.6613C30.2166 68.6608 30.4795 68.5622 30.6851 68.3837C30.8906 68.2052 31.0251 67.9587 31.0638 67.6893C31.1026 67.4198 31.043 67.1454 30.8961 66.9163C30.7492 66.6871 30.5247 66.5184 30.2637 66.4412H30.2644ZM8.18617 50.8862C8.18643 50.3519 8.34512 49.8296 8.64218 49.3854C8.93924 48.9412 9.36133 48.5951 9.85509 48.3908C10.3488 48.1865 10.8921 48.1332 11.4162 48.2376C11.9402 48.342 12.4216 48.5994 12.7993 48.9774C13.1771 49.3553 13.4343 49.8368 13.5384 50.3609C13.6426 50.885 13.589 51.4282 13.3845 51.9219C13.1799 52.4155 12.8336 52.8374 12.3893 53.1343C11.9449 53.4311 11.4226 53.5896 10.8882 53.5896C10.1716 53.5889 9.48451 53.3038 8.97789 52.797C8.47127 52.2901 8.18652 51.6029 8.18617 50.8862Z" fill="black"/>
</svg>
