<svg width="77" height="78" viewBox="0 0 77 78" fill="none" xmlns="http://www.w3.org/2000/svg">
<path fill-rule="evenodd" clip-rule="evenodd" d="M35.0871 16.9311C31.5429 17.609 28.8398 20.7414 28.8398 24.4743V29.117C28.8398 29.5547 29.2002 29.9108 29.6379 29.9108H48.4141C48.8518 29.9108 49.2079 29.5547 49.2079 29.117V24.4743C49.2079 20.7414 46.5091 17.609 42.965 16.9311C40.5965 15.0731 37.5371 15.026 35.0871 16.9311Z" fill="#EB5468"/>
<path fill-rule="evenodd" clip-rule="evenodd" d="M49.206 24.4744C49.206 20.7414 46.5073 17.609 42.9631 16.9311C42.2336 16.6394 41.8819 16.9139 41.7617 17.5232C44.3704 18.7547 46.1855 21.4108 46.1855 24.4744V29.1171C46.1855 29.5547 45.8294 29.9109 45.3874 29.9109H48.4124C48.8501 29.9109 49.2062 29.5547 49.2062 29.1171V24.4744H49.206Z" fill="#E5384F"/>
<path fill-rule="evenodd" clip-rule="evenodd" d="M7.38358 63.7698C3.83941 64.4477 1.14062 67.58 1.14062 71.313V75.9557C1.14062 76.3934 1.49676 76.7495 1.93444 76.7495H20.7106C21.1483 76.7495 21.5087 76.3934 21.5087 75.9557V71.313C21.5087 67.58 18.8055 64.4477 15.2615 63.7698C12.8928 61.9118 9.83364 61.8647 7.38358 63.7698Z" fill="#3BC3A4"/>
<path fill-rule="evenodd" clip-rule="evenodd" d="M21.5111 71.313C21.5111 67.58 18.8079 64.4477 15.2639 63.7698C14.4529 63.7441 14.1783 64.0187 14.0625 64.3619C16.6712 65.5934 18.4863 68.2494 18.4863 71.313V75.9557C18.4863 76.3934 18.1302 76.7495 17.6925 76.7495H20.7132C21.1508 76.7495 21.5112 76.3934 21.5112 75.9557L21.5111 71.313Z" fill="#00A887"/>
<path fill-rule="evenodd" clip-rule="evenodd" d="M61.7355 63.7037C58.1913 64.3773 55.4883 67.5096 55.4883 71.2426V75.8853C55.4883 76.323 55.8487 76.6834 56.2864 76.6834H75.0581C75.5001 76.6834 75.8562 76.323 75.8562 75.8853V71.2426C75.8562 67.5096 73.1574 64.3773 69.6132 63.7037C67.2405 61.8414 64.1813 61.7943 61.7355 63.7037Z" fill="#935D38"/>
<path fill-rule="evenodd" clip-rule="evenodd" d="M75.8584 71.2426C75.8584 67.5096 73.1596 64.3773 69.6154 63.7036C69.1306 63.562 68.5814 63.6822 68.4141 64.2957C71.0228 65.523 72.8378 68.1833 72.8378 71.2426V75.8853C72.8378 76.323 72.4775 76.6834 72.0398 76.6834H75.0605C75.5024 76.6834 75.8585 76.323 75.8585 75.8853V71.2426H75.8584Z" fill="#7F4D2A"/>
<path fill-rule="evenodd" clip-rule="evenodd" d="M31.3908 10.4048C31.3908 13.1638 32.8754 15.5924 35.0851 16.9312C36.2351 17.6305 37.5866 18.0339 39.0239 18.0339C40.4612 18.0339 41.8129 17.6306 42.9627 16.9312C45.1724 15.5924 46.657 13.1638 46.657 10.4048V9.74392C41.9973 10.1644 34.111 4.28595 31.3906 9.74392V10.4048H31.3908Z" fill="#FFE5C1"/>
<path fill-rule="evenodd" clip-rule="evenodd" d="M42.9596 16.9311C45.1693 15.5924 46.6539 13.1638 46.6539 10.4047V9.74389C45.2336 9.49074 43.7491 9.04454 43.0067 10.2115C42.9768 12.3783 42.0328 14.3393 40.5397 15.7167C39.467 16.7078 38.1111 17.3944 36.6094 17.6432C37.3688 17.8964 38.1798 18.0338 39.0208 18.0338C40.4581 18.0339 41.8098 17.6305 42.9596 16.9311Z" fill="#FED1A3"/>
<path fill-rule="evenodd" clip-rule="evenodd" d="M45.1674 43.1652L39.0231 35.0941L32.8789 43.1652H36.2986V49.3482C36.2986 49.73 36.6119 50.039 36.9937 50.039H41.0527C41.4345 50.039 41.7478 49.73 41.7478 49.3482V43.1652H45.1674Z" fill="#A7E9A6"/>
<path fill-rule="evenodd" clip-rule="evenodd" d="M32.9419 63.2977V66.7175L24.8711 60.5729L32.9419 54.4284V57.8525H39.129C39.129 57.8525 42.7503 57.8525 45.3119 57.8525V54.4284L53.3827 60.5729L45.3119 66.7175V63.2977C42.7503 63.2977 41.6906 63.2977 39.129 63.2977C36.5675 63.2977 35.5035 63.2977 32.9419 63.2977Z" fill="#A7E9A6"/>
<path fill-rule="evenodd" clip-rule="evenodd" d="M39.0237 1.14094C35.2092 1.20103 31.3906 4.07583 31.3906 9.74404C34.0337 6.13111 41.9287 11.9624 46.657 9.74404C46.6569 4.07583 42.8381 1.20103 39.0237 1.14094Z" fill="#375E7D"/>
<path fill-rule="evenodd" clip-rule="evenodd" d="M46.6567 9.74403C46.6567 4.07582 42.8379 1.20102 39.0235 1.14093C38.5988 1.14519 38.1783 1.18809 37.7578 1.26537C40.5897 2.23505 42.9324 4.89535 43.0054 9.24201C43.0096 9.31062 43.0096 9.38364 43.0096 9.45225V10.1131V10.2118C44.3225 10.3361 45.5712 10.2503 46.6567 9.74403Z" fill="#2B4D66"/>
<path fill-rule="evenodd" clip-rule="evenodd" d="M3.69531 57.2434C3.69531 60.0025 5.17554 62.4311 7.38538 63.7698C8.53959 64.4691 9.88685 64.8726 11.3242 64.8726C12.7615 64.8726 14.1132 64.4693 15.263 63.7698C17.4727 62.4311 18.9573 60.0025 18.9573 57.2434V56.5826C14.3018 57.0031 6.41129 51.1246 3.69531 56.5826V57.2434Z" fill="#FFE5C1"/>
<path fill-rule="evenodd" clip-rule="evenodd" d="M15.2604 63.7698C17.4701 62.4311 18.9547 60.0025 18.9547 57.2435V56.5826C18.3197 56.012 15.6509 55.6815 15.3075 57.0503C15.2776 59.217 14.3336 61.178 12.8447 62.5554C11.7678 63.5465 10.4118 64.2331 8.91016 64.482C9.66959 64.7351 10.4806 64.8725 11.3216 64.8725C12.7589 64.8725 14.1104 64.4692 15.2604 63.7698Z" fill="#FED1A3"/>
<path fill-rule="evenodd" clip-rule="evenodd" d="M11.3203 47.9795C7.50576 48.0396 3.69141 50.9144 3.69141 56.5826C6.33451 52.9697 14.225 58.801 18.9534 56.5826C18.9534 50.9144 15.1389 48.0396 11.3203 47.9795Z" fill="#375E7D"/>
<path fill-rule="evenodd" clip-rule="evenodd" d="M18.9532 56.5826C18.9532 50.9144 15.1387 48.0396 11.3201 47.9795C10.8996 47.9838 10.4748 48.0267 10.0586 48.1039C12.8862 49.0736 15.2331 51.7339 15.3062 56.0806V56.2908V56.9517V57.0504C16.619 57.1748 17.8676 57.0889 18.9532 56.5826Z" fill="#2B4D66"/>
<path fill-rule="evenodd" clip-rule="evenodd" d="M58.0469 57.173C58.0469 59.932 59.5315 62.3606 61.7412 63.7036C62.8912 64.403 64.2384 64.8064 65.68 64.8064C67.1173 64.8064 68.4647 64.4031 69.6188 63.7036C71.8285 62.3606 73.3089 59.932 73.3089 57.173V56.5121C68.6534 56.9369 60.7629 51.0542 58.0469 56.5121V57.173Z" fill="#FFE5C1"/>
<path fill-rule="evenodd" clip-rule="evenodd" d="M69.6158 63.7036C71.8255 62.3606 73.3059 59.932 73.3059 57.173V56.5121C72.2247 57.0227 70.976 57.1086 69.6587 56.9798C69.633 59.151 68.6848 61.1075 67.1959 62.4849C66.1232 63.4761 64.7673 64.1669 63.2656 64.4115C64.0251 64.6646 64.8361 64.8063 65.677 64.8063C67.1144 64.8064 68.4616 64.403 69.6158 63.7036Z" fill="#FED1A3"/>
<path fill-rule="evenodd" clip-rule="evenodd" d="M65.68 47.9091C61.8612 47.9734 58.0469 50.8439 58.0469 56.5122C60.69 52.8992 68.5805 58.7305 73.3089 56.5122C73.3089 50.8441 69.4944 47.9736 65.68 47.9091Z" fill="#375E7D"/>
<path fill-rule="evenodd" clip-rule="evenodd" d="M73.3087 56.5122C73.3087 50.8439 69.4941 47.9734 65.6798 47.9091C65.255 47.9176 64.8345 47.9562 64.4141 48.0335C67.246 49.0032 69.5886 51.6635 69.6616 56.0101V56.2204V56.8812V56.98C70.9788 57.1087 72.2273 57.0229 73.3087 56.5122Z" fill="#2B4D66"/>
<path d="M17.6118 63.3498C19.148 61.7695 20.0967 59.6156 20.0967 57.2434V56.5826C20.0967 53.6482 19.157 51.1549 17.379 49.3722C15.7856 47.7747 13.641 46.8749 11.3405 46.8387C11.3285 46.8385 11.3166 46.8385 11.3046 46.8387C9.00595 46.8749 6.86259 47.7747 5.26978 49.3724C3.4923 51.1552 2.55289 53.6485 2.55289 56.5826V57.2434C2.55289 59.6153 3.50082 61.7689 5.03596 63.349C2.02242 64.7841 0 67.8528 0 71.313V75.9557C0 77.0226 0.867902 77.8905 1.93479 77.8905H8.33657C8.9667 77.8905 9.47755 77.3797 9.47755 76.7496C9.47755 76.1194 8.9667 75.6086 8.33657 75.6086H2.28165V71.313C2.28165 68.3177 4.32688 65.7181 7.19955 64.9811C8.42937 65.639 9.83292 66.0136 11.3226 66.0136C12.8127 66.0136 14.2166 65.6393 15.447 64.9815C18.3213 65.7194 20.3678 68.3187 20.3678 71.3132V75.6086H13.9483C13.3182 75.6086 12.8074 76.1194 12.8074 76.7496C12.8074 77.3797 13.3182 77.8905 13.9483 77.8905H20.7105C21.7797 77.8905 22.6496 77.0226 22.6496 75.9557V71.313C22.6496 67.8538 20.6264 64.7853 17.6118 63.3498ZM11.3226 49.1206C14.2853 49.1754 17.4552 51.2894 17.7864 55.7944C15.9822 56.2636 13.614 55.6621 11.3148 55.0782C9.66178 54.6583 7.98089 54.2314 6.48226 54.2314C5.99042 54.2314 5.51836 54.2774 5.07323 54.3848C5.89336 50.8465 8.68982 49.1694 11.3226 49.1206ZM11.3226 63.7315C7.74509 63.7315 4.83469 60.8209 4.83469 57.2434V57.0139C5.817 56.128 7.85037 56.5528 10.7532 57.2898C12.5481 57.7458 14.4933 58.2399 16.3371 58.2397C16.8177 58.2397 17.2906 58.2035 17.753 58.127C17.3202 61.288 14.6024 63.7315 11.3226 63.7315Z" fill="black"/>
<path d="M71.9661 63.281C73.5008 61.7001 74.4485 59.5458 74.4485 57.173V56.5122C74.4485 53.5785 73.509 51.0857 71.7315 49.3035C70.1396 47.7075 67.9969 46.807 65.6979 46.7682C65.6851 46.7681 65.6723 46.7681 65.6595 46.7682C63.3587 46.807 61.2148 47.7073 59.6224 49.3033C57.8443 51.0854 56.9046 53.5782 56.9046 56.5122V57.173C56.9046 59.5461 57.8531 61.7007 59.3889 63.2818C56.3746 64.7146 54.3516 67.7818 54.3516 71.2426V75.8853C54.3516 76.9545 55.2214 77.8244 56.2906 77.8244H63.3102C63.9405 77.8244 64.4512 77.3135 64.4512 76.6834C64.4512 76.0533 63.9405 75.5424 63.3102 75.5424H56.6335V71.2426C56.6335 68.2466 58.68 65.6486 61.5543 64.9148C62.7846 65.5729 64.1884 65.9474 65.6786 65.9474C67.1682 65.9474 68.5718 65.5729 69.8016 64.9145C72.6741 65.6474 74.7195 68.2456 74.7195 71.2426V75.5424H68.0815C67.4512 75.5424 66.9405 76.0533 66.9405 76.6834C66.9405 77.3135 67.4512 77.8244 68.0815 77.8244H75.0624C76.1316 77.8244 77.0014 76.9545 77.0014 75.8853V71.2426C77.0014 67.781 74.9792 64.7133 71.9661 63.281ZM65.6786 49.0503C68.6395 49.1091 71.8068 51.2243 72.1381 55.7241C70.334 56.1932 67.9655 55.5918 65.6667 55.0079C64.0136 54.588 62.3328 54.1612 60.8341 54.1612C60.3427 54.1612 59.8705 54.2071 59.4257 54.3143C60.2469 50.7802 63.0444 49.1025 65.6786 49.0503ZM65.6786 63.6655C62.0988 63.6655 59.1864 60.7529 59.1864 57.173V56.9435C60.1689 56.0576 62.2021 56.4823 65.1049 57.2196C66.8997 57.6755 68.845 58.1696 70.6888 58.1695C71.1694 58.1695 71.6424 58.1333 72.1047 58.0567C71.6726 61.22 68.9563 63.6655 65.6786 63.6655Z" fill="black"/>
<path d="M51.4724 16.4525C61.5815 21.4407 67.8616 31.5367 67.8616 42.8005C67.8616 43.4306 68.3723 43.9415 69.0026 43.9415C69.6329 43.9415 70.1436 43.4306 70.1436 42.8005C70.1436 36.782 68.4466 30.9268 65.236 25.8678C62.1117 20.9449 57.7015 16.9815 52.4819 14.4061C51.917 14.1272 51.2324 14.3595 50.9539 14.9244C50.6752 15.4895 50.9072 16.1737 51.4724 16.4525Z" fill="black"/>
<path d="M7.99629 43.9415C8.62641 43.9415 9.13727 43.4307 9.13727 42.8006C9.13727 31.5367 15.4173 21.4407 25.5267 16.4525C26.0917 16.1737 26.3239 15.4896 26.045 14.9246C25.7661 14.3595 25.082 14.1272 24.517 14.4062C19.2976 16.9817 14.8873 20.9451 11.763 25.868C8.55248 30.927 6.85547 36.7821 6.85547 42.8007C6.85532 43.4307 7.36617 43.9415 7.99629 43.9415Z" fill="black"/>
<path d="M29.6344 31.0518H36.4909C37.121 31.0518 37.6318 30.541 37.6318 29.9109C37.6318 29.2807 37.121 28.7699 36.4909 28.7699H29.9773V24.4743C29.9773 21.4798 32.0237 18.8805 34.8982 18.1427C36.1285 18.8005 37.5323 19.1747 39.0225 19.1747C40.5126 19.1747 41.9163 18.8005 43.1467 18.1427C46.0188 18.8802 48.0634 21.4794 48.0634 24.4743V28.7699H41.7299C41.0996 28.7699 40.5889 29.2807 40.5889 29.9109C40.5889 30.541 41.0996 31.0518 41.7299 31.0518H48.4106C49.4774 31.0518 50.3453 30.1839 50.3453 29.117V24.4743C50.3453 21.0151 48.3237 17.9467 45.3114 16.5114C46.8477 14.9311 47.7966 12.7772 47.7966 10.4047V9.74389C47.7966 6.80991 46.8561 4.3165 45.0771 2.53354C43.4832 0.936018 41.3394 0.036321 39.0404 0.000114098C39.0285 -3.80325e-05 39.0164 -3.80325e-05 39.0045 0.000114098C36.7055 0.036321 34.5617 0.936018 32.9677 2.53354C31.1887 4.31665 30.2484 6.80991 30.2484 9.74389V10.4047C30.2484 12.7771 31.197 14.9308 32.7333 16.5111C29.7185 17.9466 27.6953 21.0149 27.6953 24.4743V29.117C27.6953 30.1839 28.5652 31.0518 29.6344 31.0518ZM39.0225 2.28206C41.9852 2.33698 45.1551 4.45083 45.4862 8.95586C43.682 9.42518 41.3128 8.8235 39.0127 8.23963C37.3591 7.81975 35.6776 7.39287 34.1786 7.39287C33.6866 7.39287 33.2143 7.43897 32.769 7.54622C33.5897 4.00798 36.388 2.3309 39.0225 2.28206ZM32.5303 10.1753C33.5128 9.28932 35.5469 9.71407 38.4512 10.4514C40.2466 10.9074 42.1924 11.4013 44.0365 11.4013C44.5172 11.4013 44.9904 11.3651 45.4528 11.2886C45.02 14.4494 42.3022 16.8931 39.0225 16.8931C35.4427 16.8931 32.5303 13.9825 32.5303 10.405V10.1753Z" fill="black"/>
<path d="M36.9943 51.1801H41.0534C42.0657 51.1801 42.8893 50.3585 42.8893 49.3483V44.3063H45.1681C45.6018 44.3063 45.9978 44.0605 46.1904 43.6719C46.383 43.2834 46.3387 42.8192 46.076 42.4742L39.9316 34.4031C39.7157 34.1197 39.38 33.9532 39.0237 33.9532C38.6674 33.9532 38.3317 34.1197 38.1158 34.4031L31.9714 42.4742C31.7087 42.8192 31.6644 43.2834 31.857 43.6719C32.0496 44.0605 32.4457 44.3063 32.8793 44.3063H35.1581V49.3483C35.1582 50.3583 35.9819 51.1801 36.9943 51.1801ZM39.0238 36.9779L42.8656 42.0244H41.7483C41.1181 42.0244 40.6074 42.5352 40.6074 43.1653V48.8982H37.4402V43.1653C37.4402 42.5352 36.9293 42.0244 36.2992 42.0244H35.1821L39.0238 36.9779Z" fill="black"/>
<path d="M54.0704 59.6652L45.9996 53.5208C45.6546 53.2581 45.1904 53.2135 44.8019 53.4063C44.4134 53.5989 44.1675 53.995 44.1675 54.4286V56.7116H34.0793V54.4286C34.0793 53.9949 33.8335 53.5987 33.4449 53.4063C33.0562 53.2135 32.5922 53.2581 32.2472 53.5208L24.1764 59.6652C23.893 59.8809 23.7266 60.2167 23.7266 60.573C23.7266 60.9292 23.893 61.265 24.1764 61.4807L32.2472 67.6252C32.4497 67.7795 32.6933 67.8585 32.9385 67.8585C33.111 67.8585 33.2844 67.8194 33.4449 67.7398C33.8335 67.5472 34.0793 67.1511 34.0793 66.7175V64.4387H44.1675V66.7175C44.1675 67.1512 44.4134 67.5474 44.8019 67.7398C45.1907 67.9324 45.6546 67.8881 45.9996 67.6252L54.0704 61.4807C54.3538 61.265 54.5203 60.9292 54.5203 60.573C54.5203 60.2167 54.3538 59.8811 54.0704 59.6652ZM46.4495 64.4148V63.2978C46.4495 62.6676 45.9388 62.1568 45.3085 62.1568H32.9383C32.3082 62.1568 31.7974 62.6676 31.7974 63.2978V64.4148L26.7511 60.5731L31.7974 56.7314V57.8529C31.7974 58.483 32.3082 58.9938 32.9383 58.9938H45.3085C45.9388 58.9938 46.4495 58.483 46.4495 57.8529V56.7315L51.4956 60.5733L46.4495 64.4148Z" fill="black"/>
</svg>
