<svg width="81" height="81" viewBox="0 0 81 81" fill="none" xmlns="http://www.w3.org/2000/svg">
<path d="M60.332 13.3296H46.332V67.9814H60.332V13.3296Z" fill="#9ACEDB"/>
<path d="M55.668 13.3296H6.66797V67.9814H55.668V13.3296Z" fill="#B1E3F0"/>
<path d="M60.3346 56.6519H55.668V79.3112H60.3346C62.912 79.3112 65.0013 77.2219 65.0013 74.6445V61.3185C65.0013 58.7413 62.912 56.6519 60.3346 56.6519Z" fill="#B1E3F0"/>
<path d="M55.6667 56.6518H6.66667C4.08927 56.6518 2 58.7411 2 61.3185V74.6444C2 77.2218 4.08927 79.3111 6.66667 79.3111H55.6667C58.2441 79.3111 60.3333 77.2218 60.3333 74.6444V61.3185C60.3333 58.7412 58.2441 56.6518 55.6667 56.6518Z" fill="#D9F7FF"/>
<path d="M13.6654 70.3149C14.954 70.3149 15.9987 69.2702 15.9987 67.9815C15.9987 66.6929 14.954 65.6482 13.6654 65.6482C12.3767 65.6482 11.332 66.6929 11.332 67.9815C11.332 69.2702 12.3767 70.3149 13.6654 70.3149Z" fill="#68D162"/>
<path d="M23.0013 70.3149C24.29 70.3149 25.3346 69.2702 25.3346 67.9815C25.3346 66.6929 24.29 65.6482 23.0013 65.6482C21.7126 65.6482 20.668 66.6929 20.668 67.9815C20.668 69.2702 21.7126 70.3149 23.0013 70.3149Z" fill="#68D162"/>
<path d="M50.9987 70.3149L46.332 67.9815L50.9987 65.6482H55.6654V70.3149H50.9987Z" fill="#74A2AD"/>
<path d="M51 65.6482H30V70.3149H51V65.6482Z" fill="#88B6C2"/>
<path d="M60.3346 29.3259H55.668V51.9852H60.3346C62.912 51.9852 65.0013 49.896 65.0013 47.3186V33.9926C65.0013 31.4152 62.912 29.3259 60.3346 29.3259Z" fill="#B1E3F0"/>
<path d="M55.6667 29.326H6.66667C4.08927 29.326 2 31.4153 2 33.9927V47.3186C2 49.896 4.08927 51.9853 6.66667 51.9853H55.6667C58.2441 51.9853 60.3333 49.896 60.3333 47.3186V38.3224L55.6667 29.326Z" fill="#D9F7FF"/>
<path d="M13.6654 42.9889C14.954 42.9889 15.9987 41.9443 15.9987 40.6556C15.9987 39.3669 14.954 38.3223 13.6654 38.3223C12.3767 38.3223 11.332 39.3669 11.332 40.6556C11.332 41.9443 12.3767 42.9889 13.6654 42.9889Z" fill="#68D162"/>
<path d="M23.0013 42.9889C24.29 42.9889 25.3346 41.9443 25.3346 40.6556C25.3346 39.3669 24.29 38.3223 23.0013 38.3223C21.7126 38.3223 20.668 39.3669 20.668 40.6556C20.668 41.9443 21.7126 42.9889 23.0013 42.9889Z" fill="#68D162"/>
<path d="M50.9987 42.9889L46.332 40.6556L50.9987 38.3223H55.6654V42.9889H50.9987Z" fill="#74A2AD"/>
<path d="M51 38.3222H30V42.9889H51V38.3222Z" fill="#88B6C2"/>
<path d="M60.3346 2H55.668V24.6593H60.3346C62.912 24.6593 65.0013 22.57 65.0013 19.9926V6.66667C65.0013 4.08927 62.912 2 60.3346 2Z" fill="#B1E3F0"/>
<path d="M55.6667 2H6.66667C4.08927 2 2 4.08927 2 6.66667V19.9926C2 22.57 4.08927 24.6593 6.66667 24.6593H60.3333V6.66667C60.3333 4.08927 58.2441 2 55.6667 2Z" fill="#D9F7FF"/>
<path d="M13.6654 15.6629C14.954 15.6629 15.9987 14.6182 15.9987 13.3295C15.9987 12.0409 14.954 10.9962 13.6654 10.9962C12.3767 10.9962 11.332 12.0409 11.332 13.3295C11.332 14.6182 12.3767 15.6629 13.6654 15.6629Z" fill="#68D162"/>
<path d="M23.0013 15.6629C24.29 15.6629 25.3346 14.6182 25.3346 13.3295C25.3346 12.0409 24.29 10.9962 23.0013 10.9962C21.7126 10.9962 20.668 12.0409 20.668 13.3295C20.668 14.6182 21.7126 15.6629 23.0013 15.6629Z" fill="#68D162"/>
<path d="M50.9987 15.6629L46.332 13.3295L50.9987 10.9962H55.6654V15.6629H50.9987Z" fill="#74A2AD"/>
<path d="M51 10.9962H30V15.6629H51V10.9962Z" fill="#88B6C2"/>
<path d="M65.0013 19.9927C59.8467 19.9927 55.668 24.1714 55.668 29.326V42.9889H60.3346V29.326C60.3346 26.7486 62.4241 24.6593 65.0013 24.6593C67.5787 24.6593 69.668 26.7486 69.668 29.326C71.8008 24.9095 69.668 19.9927 65.0013 19.9927Z" fill="#597880"/>
<path d="M65 19.9926C67.5774 19.9926 69.6667 24.1713 69.6667 29.326V42.9889H74.3333V29.326C74.3333 24.1713 70.1546 19.9926 65 19.9926Z" fill="#4B6970"/>
<path d="M74.3346 38.3223H69.668V65.6482H74.3346C76.912 65.6482 79.0013 63.5588 79.0013 60.9816V42.9889C79.0013 40.4115 76.912 38.3223 74.3346 38.3223Z" fill="#FFCF57"/>
<path d="M74.3333 60.9815V42.9889C74.3333 40.4117 72.2441 38.3222 69.6667 38.3222H55.6667C53.0893 38.3222 51 40.4117 51 42.9889V60.9815C51 63.5588 53.0893 65.6482 55.6667 65.6482H69.6667C72.2441 65.6482 74.3333 63.5588 74.3333 60.9815Z" fill="#FFE369"/>
<path d="M62.668 51.6481V56.3147C62.668 57.6034 63.7127 58.6481 65.0013 58.6481C66.2899 58.6481 67.3346 57.6034 67.3346 56.3147V51.6481H62.668Z" fill="#688D96"/>
<path d="M65 45.3222C63.0671 45.3222 61.5 46.8891 61.5 48.8222C61.5 49.8587 61.9508 50.7894 62.6667 51.4303V51.6481C62.6667 52.9367 63.7114 53.9814 65 53.9814C66.2886 53.9814 67.3333 52.9367 67.3333 51.6481V51.4301C68.0492 50.7892 68.5 49.8584 68.5 48.8221C68.5 46.8891 66.9329 45.3222 65 45.3222Z" fill="#74A2AD"/>
<path d="M23.0013 70.3149C24.29 70.3149 25.3346 69.2702 25.3346 67.9815C25.3346 66.6929 24.29 65.6482 23.0013 65.6482C21.7126 65.6482 20.668 66.6929 20.668 67.9815C20.668 69.2702 21.7126 70.3149 23.0013 70.3149Z" stroke="black" stroke-width="3" stroke-miterlimit="10" stroke-linecap="round" stroke-linejoin="round"/>
<path d="M13.6654 42.9889C14.954 42.9889 15.9987 41.9443 15.9987 40.6556C15.9987 39.3669 14.954 38.3223 13.6654 38.3223C12.3767 38.3223 11.332 39.3669 11.332 40.6556C11.332 41.9443 12.3767 42.9889 13.6654 42.9889Z" stroke="black" stroke-width="3" stroke-miterlimit="10" stroke-linecap="round" stroke-linejoin="round"/>
<path d="M23.0013 42.9889C24.29 42.9889 25.3346 41.9443 25.3346 40.6556C25.3346 39.3669 24.29 38.3223 23.0013 38.3223C21.7126 38.3223 20.668 39.3669 20.668 40.6556C20.668 41.9443 21.7126 42.9889 23.0013 42.9889Z" stroke="black" stroke-width="3" stroke-miterlimit="10" stroke-linecap="round" stroke-linejoin="round"/>
<path d="M13.6654 70.3149C14.954 70.3149 15.9987 69.2702 15.9987 67.9815C15.9987 66.6929 14.954 65.6482 13.6654 65.6482C12.3767 65.6482 11.332 66.6929 11.332 67.9815C11.332 69.2702 12.3767 70.3149 13.6654 70.3149Z" stroke="black" stroke-width="3" stroke-miterlimit="10" stroke-linecap="round" stroke-linejoin="round"/>
<path d="M51 56.6518H6.66667C4.08927 56.6518 2 58.7411 2 61.3185V74.6444C2 77.2218 4.08927 79.3111 6.66667 79.3111H60.3333C62.9107 79.3111 65 77.2218 65 74.6444V65.6482" stroke="black" stroke-width="3" stroke-miterlimit="10" stroke-linecap="round" stroke-linejoin="round"/>
<path d="M16 24.6593H56.9156" stroke="black" stroke-width="3" stroke-miterlimit="10" stroke-linecap="round" stroke-linejoin="round"/>
<path d="M65 19.9926V6.66667C65 4.08927 62.9107 2 60.3333 2H6.66667C4.08927 2 2 4.08927 2 6.66667V19.9926C2 22.57 4.08927 24.6593 6.66667 24.6593H11.3333" stroke="black" stroke-width="3" stroke-miterlimit="10" stroke-linecap="round" stroke-linejoin="round"/>
<path d="M13.6654 15.6629C14.954 15.6629 15.9987 14.6182 15.9987 13.3295C15.9987 12.0409 14.954 10.9962 13.6654 10.9962C12.3767 10.9962 11.332 12.0409 11.332 13.3295C11.332 14.6182 12.3767 15.6629 13.6654 15.6629Z" stroke="black" stroke-width="3" stroke-miterlimit="10" stroke-linecap="round" stroke-linejoin="round"/>
<path d="M23.0013 15.6629C24.29 15.6629 25.3346 14.6182 25.3346 13.3295C25.3346 12.0409 24.29 10.9962 23.0013 10.9962C21.7126 10.9962 20.668 12.0409 20.668 13.3295C20.668 14.6182 21.7126 15.6629 23.0013 15.6629Z" stroke="black" stroke-width="3" stroke-miterlimit="10" stroke-linecap="round" stroke-linejoin="round"/>
<path d="M55.6667 10.9962H30V15.6629H55.6667V10.9962Z" stroke="black" stroke-width="3" stroke-miterlimit="10" stroke-linecap="round" stroke-linejoin="round"/>
<path d="M6.66797 24.6593V29.326" stroke="black" stroke-width="3" stroke-miterlimit="10" stroke-linecap="round" stroke-linejoin="round"/>
<path d="M6.66797 51.9851V56.6518" stroke="black" stroke-width="3" stroke-miterlimit="10" stroke-linecap="round" stroke-linejoin="round"/>
<path d="M64.9987 38.3222V33.9926C64.9987 31.4152 62.9094 29.3259 60.332 29.3259" stroke="black" stroke-width="3" stroke-miterlimit="10" stroke-linecap="round" stroke-linejoin="round"/>
<path d="M16 51.9851H51" stroke="black" stroke-width="3" stroke-miterlimit="10" stroke-linecap="round" stroke-linejoin="round"/>
<path d="M55.6667 29.326H6.66667C4.08927 29.326 2 31.4153 2 33.9927V47.3186C2 49.896 4.08927 51.9853 6.66667 51.9853H11.3333" stroke="black" stroke-width="3" stroke-miterlimit="10" stroke-linecap="round" stroke-linejoin="round"/>
<path d="M74.3346 38.3223V29.326C74.3346 24.1714 70.1559 19.9927 65.0013 19.9927C59.8467 19.9927 55.668 24.1714 55.668 29.326V38.3223" stroke="black" stroke-width="3" stroke-miterlimit="10" stroke-linecap="round" stroke-linejoin="round"/>
<path d="M60.332 38.3222V29.326C60.332 26.7486 62.4213 24.6593 64.9987 24.6593C67.5761 24.6593 69.6654 26.7486 69.6654 29.326V38.3222" stroke="black" stroke-width="3" stroke-miterlimit="10" stroke-linecap="round" stroke-linejoin="round"/>
<path d="M55.6667 65.6482V70.3149H30V65.6482H74.3333C76.9107 65.6482 79 63.5589 79 60.9815V42.9889C79 40.4115 76.9107 38.3222 74.3333 38.3222H30V42.9889H51" stroke="black" stroke-width="3" stroke-miterlimit="10" stroke-linecap="round" stroke-linejoin="round"/>
<path d="M55.6667 38.3222C53.0893 38.3222 51 40.4115 51 42.9889V60.9815C51 63.5589 53.0893 65.6482 55.6667 65.6482" stroke="black" stroke-width="3" stroke-miterlimit="10" stroke-linecap="round" stroke-linejoin="round"/>
<path d="M68.5 48.8222C68.5 46.8891 66.9329 45.3222 65 45.3222C63.0671 45.3222 61.5 46.8891 61.5 48.8222C61.5 49.8587 61.9508 50.7894 62.6667 51.4303V56.3147C62.6667 57.6033 63.7114 58.6481 65 58.6481C66.2886 58.6481 67.3333 57.6033 67.3333 56.3147V51.4301C68.0492 50.7894 68.5 49.8585 68.5 48.8222Z" stroke="black" stroke-width="3" stroke-miterlimit="10" stroke-linecap="round" stroke-linejoin="round"/>
</svg>
