<svg width="77" height="77" viewBox="0 0 77 77" fill="none" xmlns="http://www.w3.org/2000/svg">
<path d="M33.2879 56.4828L35.6384 53.8979C39.1231 54.765 42.7979 54.5198 46.1442 53.1881C49.6852 51.7788 52.6574 49.2327 54.5936 45.95C56.5297 42.6673 57.32 38.8342 56.84 35.0534C56.3601 31.2726 54.6373 27.7585 51.9424 25.0636C49.2475 22.3687 45.7334 20.6459 41.9526 20.166C38.1718 19.6861 34.3387 20.4763 31.056 22.4125C27.7733 24.3486 25.2272 27.3208 23.8179 30.8619C22.4862 34.2081 22.2411 37.8829 23.1081 41.3676L20.5229 43.7184C20.4762 43.5801 20.431 43.4414 20.3875 43.302L20.3875 43.302L20.384 43.291C20.1651 42.6176 19.7371 42.0316 19.1622 41.6183C18.5889 41.2062 17.8994 40.9873 17.1936 40.993C16.8515 40.992 16.5236 40.8557 16.2817 40.6137C16.0388 40.3708 15.9023 40.0414 15.9023 39.6979V34.8258C15.9033 34.4835 16.0398 34.1555 16.2819 33.9135C16.5232 33.6724 16.8498 33.5362 17.1908 33.5345C17.8963 33.54 18.5855 33.321 19.1585 32.9091C19.7334 32.4958 20.1614 31.9098 20.3802 31.2365L20.3803 31.2365L20.3838 31.2254C20.7468 30.0626 21.2145 28.9351 21.7811 27.8568L21.7812 27.8568L21.7857 27.848C22.1094 27.217 22.2231 26.4992 22.1104 25.799C21.998 25.1004 21.6659 24.4558 21.1624 23.9587C21.0431 23.8389 20.9484 23.697 20.8837 23.5408C20.8186 23.3838 20.7851 23.2154 20.7851 23.0454C20.7851 22.8754 20.8186 22.7071 20.8837 22.5501C20.9487 22.393 21.0441 22.2504 21.1644 22.1302L21.1646 22.13L24.6098 18.6848L24.61 18.6846C24.7302 18.5643 24.8728 18.4689 25.0299 18.4039C25.1869 18.3388 25.3552 18.3053 25.5252 18.3053C25.6952 18.3053 25.8635 18.3388 26.0206 18.4039C26.1768 18.4686 26.3187 18.5633 26.4385 18.6826C26.9356 19.1861 27.5802 19.5182 28.2788 19.6306C28.979 19.7433 29.6968 19.6296 30.3278 19.3059L30.3278 19.3059L30.337 19.3011C31.4279 18.7271 32.5693 18.2547 33.7467 17.8897L33.7468 17.8897L33.7595 17.8856C34.4189 17.6715 34.9927 17.2524 35.3974 16.6894C35.8009 16.128 36.0152 15.4527 36.0093 14.7614V14.7176C36.0093 14.3742 36.1457 14.0447 36.3886 13.8019C36.6315 13.559 36.9609 13.4225 37.3044 13.4225H42.1765C42.5188 13.4235 42.8468 13.56 43.0888 13.8021L43.7908 13.1005L43.0888 13.8021C43.3299 14.0434 43.4661 14.37 43.4678 14.711C43.4623 15.4165 43.6812 16.1057 44.0932 16.6787C44.5065 17.2536 45.0924 17.6816 45.7658 17.9004L45.7658 17.9005L45.7765 17.9038C46.9381 18.267 48.0644 18.7347 49.1415 19.3012L49.1415 19.3012L49.1506 19.3059C49.7816 19.6296 50.4994 19.7433 51.1995 19.6306C51.8982 19.5182 52.5429 19.186 53.04 18.6825C53.1597 18.5632 53.3017 18.4686 53.4578 18.4039C53.6148 18.3388 53.7831 18.3053 53.9531 18.3053C54.1231 18.3053 54.2914 18.3388 54.4485 18.4039C54.6055 18.4689 54.7482 18.5643 54.8683 18.6846L54.8686 18.6848L58.3137 22.13L58.314 22.1302C58.4342 22.2504 58.5296 22.3931 58.5947 22.5501C58.6598 22.7071 58.6933 22.8754 58.6933 23.0454C58.6933 23.2154 58.6598 23.3838 58.5947 23.5408C58.53 23.6969 58.4353 23.8389 58.316 23.9586C57.8125 24.4557 57.4804 25.1004 57.3679 25.799L58.3552 25.9579L57.3679 25.799C57.2552 26.4992 57.369 27.217 57.6927 27.848L57.6926 27.848L57.6974 27.8571C58.2638 28.9339 58.7315 30.0598 59.0948 31.221L59.0947 31.221L59.0981 31.2315C59.317 31.9049 59.745 32.4909 60.3199 32.9041C60.8932 33.3163 61.5826 33.5352 62.2885 33.5295C62.6306 33.5305 62.9585 33.6668 63.2004 33.9088C63.4433 34.1517 63.5797 34.4811 63.5797 34.8246V39.6963C63.5792 40.0394 63.4425 40.3683 63.1997 40.6107C62.9569 40.8531 62.6278 40.9893 62.2846 40.9893H62.2409C61.5496 40.9833 60.8743 41.1976 60.3129 41.6012C59.7499 42.0058 59.3308 42.5796 59.1167 43.2391L59.1166 43.239L59.1126 43.2518C58.7476 44.4293 58.2752 45.5706 57.7012 46.6616L57.7011 46.6615L57.6964 46.6708C57.3727 47.3018 57.259 48.0196 57.3717 48.7197C57.4841 49.4184 57.8162 50.063 58.3198 50.5602C58.439 50.6799 58.5337 50.8218 58.5984 50.978C58.6635 51.135 58.697 51.3033 58.697 51.4733C58.697 51.6433 58.6635 51.8117 58.5984 51.9687C58.5334 52.1257 58.438 52.2684 58.3177 52.3885L58.3175 52.3888L54.8723 55.8339L54.8721 55.8342C54.7519 55.9544 54.6092 56.0498 54.4522 56.1149C54.2952 56.18 54.1268 56.2135 53.9569 56.2135C53.7869 56.2135 53.6185 56.18 53.4615 56.1149C53.3054 56.0502 53.1634 55.9555 53.0437 55.8362C52.5466 55.3327 51.9019 55.0006 51.2033 54.8881C50.5031 54.7754 49.7853 54.8892 49.1543 55.2129L49.1543 55.2128L49.1452 55.2176C48.0684 55.784 46.9425 56.2517 45.7813 56.615L45.7813 56.6149L45.7708 56.6183C45.0974 56.8372 44.5114 57.2652 44.0981 57.8401C43.686 58.4134 43.4671 59.1029 43.4728 59.8087C43.4718 60.1508 43.3355 60.4787 43.0935 60.7206C42.8506 60.9635 42.5212 61.0999 42.1777 61.0999H37.306C36.9632 61.0994 36.6347 60.963 36.3923 60.7206C36.151 60.4793 36.0148 60.1526 36.013 59.8115C36.0186 59.1059 35.7996 58.4168 35.3877 57.8438C34.9744 57.2689 34.3884 56.8409 33.715 56.6221L33.715 56.622L33.704 56.6185C33.565 56.5751 33.4263 56.5298 33.2879 56.4828Z" fill="#596C80" stroke="black" stroke-width="2"/>
<path d="M37.1692 28.7063C38.1638 28.4062 39.1984 28.2832 40.2265 28.338L36.4093 32.1552L35.7022 32.8623L36.4093 33.5694L43.435 40.5951L44.1421 41.3022L44.8492 40.5951L48.6685 36.7757C48.7197 37.7125 48.623 38.6554 48.3786 39.5692C47.9736 41.0832 47.177 42.4639 46.0691 43.5723C44.8275 44.814 43.2476 45.6623 41.5267 46.0113C39.8059 46.3603 38.0203 46.1946 36.3931 45.5348L35.7468 45.2728L35.2776 45.7886L23.0339 59.2493C23.0338 59.2495 23.0336 59.2496 23.0335 59.2498C22.6932 59.6231 22.2808 59.9235 21.8212 60.1329L22.2358 61.0429L21.8212 60.1329C21.3614 60.3424 20.8638 60.4565 20.3586 60.4682C19.8534 60.48 19.3511 60.3891 18.8821 60.2012C18.413 60.0132 17.9869 59.7321 17.6296 59.3748C17.2723 59.0175 16.9912 58.5914 16.8032 58.1223L15.875 58.4943L16.8032 58.1223C16.6153 57.6533 16.5244 57.1509 16.5362 56.6458C16.5479 56.1406 16.662 55.643 16.8715 55.1832C17.081 54.7234 17.3816 54.3108 17.7551 53.9705L31.2156 41.7332L31.7317 41.264L31.4696 40.6176C30.8454 39.0777 30.6629 37.3943 30.9427 35.7565C31.2224 34.1186 31.9533 32.5912 33.0532 31.3458C34.1531 30.1004 35.5785 29.1863 37.1692 28.7063Z" fill="#D9575D" stroke="black" stroke-width="2"/>
<path d="M21.2757 56.7423C21.2424 56.9097 21.1603 57.0634 21.0397 57.1841C20.9595 57.2643 20.8644 57.3279 20.7597 57.3713C20.6549 57.4147 20.5427 57.437 20.4293 57.437C20.3159 57.437 20.2037 57.4147 20.099 57.3713C19.9942 57.3279 19.8991 57.2643 19.8189 57.1841C19.6983 57.0634 19.6162 56.9097 19.5829 56.7423C19.5497 56.5749 19.5668 56.4014 19.6321 56.2438C19.6975 56.0862 19.8081 55.9514 19.95 55.8566C20.0919 55.7618 20.2587 55.7112 20.4293 55.7112C20.5999 55.7112 20.7668 55.7618 20.9087 55.8566C21.0505 55.9514 21.1611 56.0862 21.2265 56.2438C21.2918 56.4014 21.3089 56.5749 21.2757 56.7423Z" fill="#F2F2F2" stroke="black" stroke-width="2"/>
<path d="M76 38.5031V38.5035C76.0021 44.7999 74.4131 50.9947 71.3807 56.5127L70.9319 57.3293L71.7148 57.8345L73.7596 59.1542L67.9155 61.5438L67.6721 55.2377L69.6282 56.4965L70.5346 57.0797L71.0484 56.1322C75.4457 48.0228 76.6604 38.5649 74.455 29.6075C72.2496 20.6502 66.7826 12.8374 59.1229 7.6966C51.4632 2.55582 42.1616 0.456677 33.0364 1.80957C23.9113 3.16247 15.6188 7.87012 9.78018 15.0122C3.94155 22.1542 0.976578 31.2171 1.46494 40.4291C1.9533 49.641 5.85988 58.3396 12.4209 64.8243C18.982 71.309 27.7257 75.1135 36.9427 75.494C45.8263 75.8608 54.534 73.0213 61.4854 67.5133L61.797 67.8854C55.3859 72.9683 47.4794 75.8211 39.2812 75.9919C30.7493 76.1696 22.4119 73.4321 15.6461 68.2313C8.88021 63.0304 4.09059 55.6775 2.06825 47.3868C0.0459053 39.0961 0.911809 30.3636 4.52295 22.6316C8.13409 14.8995 14.2745 8.63037 21.9299 4.85956C29.5854 1.08875 38.298 0.0418263 46.6289 1.8917C54.9598 3.74156 62.4105 8.37757 67.7506 15.0341C73.0907 21.6905 76.0007 29.9693 76 38.5031Z" fill="#7A8899" stroke="black" stroke-width="2"/>
</svg>
