<svg xmlns="http://www.w3.org/2000/svg" version="1.1" xmlns:xlink="http://www.w3.org/1999/xlink" xmlns:svgjs="http://svgjs.com/svgjs" width="512" height="512" x="0" y="0" viewBox="0 0 36 36" style="enable-background:new 0 0 512 512" xml:space="preserve" class=""><g><path fill="#f0f0f0" d="M18 36c9.941 0 18-8.059 18-18S27.941 0 18 0 0 8.059 0 18s8.059 18 18 18z" data-original="#f0f0f0" class=""></path><path fill="#d80027" fill-rule="evenodd" d="M33.358 8.6h-16.14V3.904h11.987A18.102 18.102 0 0 1 33.358 8.6zM36 18H17.218v-4.696H35.38c.412 1.531.62 3.11.62 4.696zM18 36c4.236 0 8.13-1.464 11.205-3.913h-22.4A17.874 17.874 0 0 0 18 36zm15.36-8.6H2.642A17.892 17.892 0 0 1 .62 22.704h34.762A17.881 17.881 0 0 1 33.36 27.4z" clip-rule="evenodd" data-original="#d80027" class=""></path><path fill="#0052b4" d="M18 18V0C8.06 0 0 8.06 0 18z" data-original="#0052b4" class=""></path><path fill="#ffda44" fill-rule="evenodd" d="M7.519 10.957a4.451 4.451 0 0 0 6.568 3.916 5.46 5.46 0 0 1-3.829 1.562 5.48 5.48 0 0 1-5.478-5.478 5.48 5.48 0 0 1 5.478-5.478 5.46 5.46 0 0 1 3.829 1.562 4.451 4.451 0 0 0-6.568 3.916zm6.505-1.479-.8-1.652-.784 1.652-1.785-.412.8 1.648-1.435 1.138 1.787.403-.005 1.832 1.43-1.146 1.43 1.146-.005-1.832 1.787-.403-1.435-1.138.8-1.648z" clip-rule="evenodd" data-original="#ffda44"></path></g></svg>