<svg width="91" height="87" viewBox="0 0 91 87" fill="none" xmlns="http://www.w3.org/2000/svg">
<path fill-rule="evenodd" clip-rule="evenodd" d="M18.296 16.934C19.552 16.934 20.7756 17.072 21.9536 17.3318C24.2209 8.17164 32.4943 1.38002 42.3554 1.38002C50.761 1.38002 58.0132 6.31517 61.3752 13.4452C67.0701 10.4217 74.0934 14.5194 74.0934 21.1005C74.0934 22.2756 73.8589 23.396 73.435 24.4178C81.723 22.6109 89.6157 28.9057 89.6157 37.4394C89.6157 44.8007 83.6483 50.7679 76.2873 50.7679H18.296C8.95287 50.7679 1.37891 43.194 1.37891 33.8509C1.37891 24.508 8.95287 16.934 18.296 16.934Z" fill="#88C8FE"/>
<path d="M8.13787 84.5766C10.2307 83.7091 11.224 81.3093 10.3566 79.2164C9.48907 77.1236 7.08927 76.1303 4.99644 76.9978C2.90361 77.8652 1.91026 80.2651 2.77775 82.3579C3.64523 84.4507 6.04504 85.4441 8.13787 84.5766Z" fill="#19CFBA"/>
<path d="M7.03398 63.3564C9.28309 63.0801 10.8824 61.0328 10.606 58.7837C10.3297 56.5346 8.28243 54.9353 6.03332 55.2116C3.7842 55.488 2.18494 57.5352 2.46127 59.7843C2.7376 62.0335 4.78487 63.6327 7.03398 63.3564Z" fill="#19CFBA"/>
<path d="M84.4605 84.8813C86.7254 84.8813 88.5615 83.0452 88.5615 80.7802C88.5615 78.5152 86.7254 76.6791 84.4605 76.6791C82.1955 76.6791 80.3594 78.5152 80.3594 80.7802C80.3594 83.0452 82.1955 84.8813 84.4605 84.8813Z" fill="#19CFBA"/>
<path d="M84.4605 63.3504C86.7254 63.3504 88.5615 61.5143 88.5615 59.2493C88.5615 56.9843 86.7254 55.1482 84.4605 55.1482C82.1955 55.1482 80.3594 56.9843 80.3594 59.2493C80.3594 61.5143 82.1955 63.3504 84.4605 63.3504Z" fill="#19CFBA"/>
<path fill-rule="evenodd" clip-rule="evenodd" d="M27.56 25.415H63.445C65.1367 25.415 66.5207 26.799 66.5207 28.4907V71.5528C66.5207 73.2445 65.1367 74.6285 63.445 74.6285H27.56C25.8684 74.6285 24.4844 73.2445 24.4844 71.5528V28.4909C24.4844 26.7992 25.8684 25.415 27.56 25.415Z" fill="#ADA0AD"/>
<path fill-rule="evenodd" clip-rule="evenodd" d="M31.7214 51.0472H35.8052C36.3738 51.0472 36.839 51.5124 36.839 52.0812V56.165C36.839 56.7337 36.3738 57.1989 35.8052 57.1989H31.7214C31.1527 57.1989 30.6875 56.7337 30.6875 56.165V52.0812C30.6875 51.5124 31.1527 51.0472 31.7214 51.0472ZM60.303 63.3591V67.4429C60.303 68.0115 59.8378 68.4767 59.2691 68.4767H55.1854C54.6167 68.4767 54.1515 68.0115 54.1515 67.4429V52.081C54.1515 51.5124 54.6167 51.0472 55.1854 51.0472H59.2691C59.8378 51.0472 60.303 51.5124 60.303 52.081V63.3591ZM43.4534 51.0472H47.5371C48.1058 51.0472 48.571 51.5124 48.571 52.0812V56.165C48.571 56.7337 48.1058 57.1989 47.5371 57.1989H43.4534C42.8847 57.1989 42.4195 56.7337 42.4195 56.165V52.0812C42.4195 51.5124 42.8847 51.0472 43.4534 51.0472ZM31.7214 62.3252H35.8052C36.3738 62.3252 36.839 62.7904 36.839 63.3593V67.4431C36.839 68.0117 36.3738 68.4769 35.8052 68.4769H31.7214C31.1527 68.4769 30.6875 68.0117 30.6875 67.4431V63.3591C30.6875 62.7904 31.1527 62.3252 31.7214 62.3252ZM43.4534 62.3252H47.5371C48.1058 62.3252 48.571 62.7904 48.571 63.3593V67.4431C48.571 68.0117 48.1058 68.4769 47.5371 68.4769H43.4534C42.8847 68.4769 42.4195 68.0117 42.4195 67.4431V63.3591C42.4195 62.7904 42.8847 62.3252 43.4534 62.3252Z" fill="#FFE177"/>
<path fill-rule="evenodd" clip-rule="evenodd" d="M32.5418 43.8703H58.4488C59.4687 43.8703 60.303 43.0358 60.303 42.016V34.4467C60.303 33.4267 59.4685 32.5922 58.4488 32.5922H32.5418C31.5218 32.5922 30.6875 33.4267 30.6875 34.4467V42.016C30.6875 43.0358 31.5218 43.8703 32.5418 43.8703Z" fill="#FFE177"/>
<path fill-rule="evenodd" clip-rule="evenodd" d="M58.9282 42.0152C58.9282 42.2707 58.7074 42.4914 58.4519 42.4914H32.5483C32.2928 42.4914 32.072 42.2707 32.072 42.0152V34.4414C32.072 34.1858 32.2928 33.9651 32.5483 33.9651H58.4521C58.7076 33.9651 58.9284 34.1858 58.9284 34.4414V42.0152H58.9282ZM58.4521 31.2122H32.5483C30.7595 31.2122 29.3074 32.6642 29.3074 34.4414V42.0152C29.3074 43.7923 30.7595 45.2444 32.5483 45.2444H58.4521C60.241 45.2444 61.6813 43.7923 61.6813 42.0152V34.4414C61.6813 32.6642 60.241 31.2122 58.4521 31.2122ZM35.4638 55.8151H32.0718V52.4231H35.4638V55.8151ZM35.8123 49.6702H31.7235C30.3993 49.6702 29.3074 50.7506 29.3074 52.0748V56.1636C29.3074 57.4878 30.3993 58.5797 31.7235 58.5797H35.8123C37.1366 58.5797 38.2169 57.4878 38.2169 56.1636V52.0748C38.2169 50.7504 37.1366 49.6702 35.8123 49.6702ZM47.196 67.0941H43.804V63.7021H47.196V67.0941ZM47.5445 60.9378H43.4557C42.1315 60.9378 41.0511 62.0298 41.0511 63.354V67.4428C41.0511 68.7671 42.1315 69.8472 43.4557 69.8472H47.5445C48.8687 69.8472 49.9489 68.7671 49.9489 67.4428V63.354C49.9491 62.0296 48.8687 60.9378 47.5445 60.9378ZM47.196 55.8151H43.804V52.4231H47.196V55.8151ZM47.5445 49.6702H43.4557C42.1315 49.6702 41.0511 50.7506 41.0511 52.0748V56.1636C41.0511 57.4878 42.1315 58.5797 43.4557 58.5797H47.5445C48.8687 58.5797 49.9489 57.4878 49.9489 56.1636V52.0748C49.9491 50.7504 48.8687 49.6702 47.5445 49.6702ZM58.9282 67.0941H55.5362V52.4231H58.9282V67.0941ZM59.2767 49.6702H55.1879C53.8637 49.6702 52.7833 50.7506 52.7833 52.0748V67.4428C52.7833 68.7671 53.8637 69.8472 55.1879 69.8472H59.2767C60.6009 69.8472 61.6813 68.7671 61.6813 67.4428V52.0746C61.6813 50.7504 60.6009 49.6702 59.2767 49.6702ZM35.4638 67.0941H32.0718V63.7021H35.4638V67.0941ZM35.8123 60.9378H31.7235C30.3993 60.9378 29.3074 62.0298 29.3074 63.354V67.4428C29.3074 68.7671 30.3993 69.8472 31.7235 69.8472H35.8123C37.1366 69.8472 38.2169 68.7671 38.2169 67.4428V63.354C38.2169 62.0296 37.1366 60.9378 35.8123 60.9378ZM65.1429 71.5548V28.4824C65.1429 27.5532 64.3762 26.7865 63.447 26.7865H27.5534C26.6242 26.7865 25.8575 27.5532 25.8575 28.4824V71.5548C25.8575 72.484 26.6242 73.2507 27.5534 73.2507H63.447C64.3762 73.2507 65.1429 72.484 65.1429 71.5548ZM18.2954 49.3913H23.1044V28.4824C23.1044 26.0314 25.1023 24.0334 27.5534 24.0334H63.447C65.8979 24.0334 67.8958 26.0314 67.8958 28.4824V49.3913H76.2942C82.8805 49.3913 88.2354 44.0247 88.2354 37.4384C88.2354 29.8513 81.2384 24.1435 73.727 25.7641C72.6221 26.0026 71.751 24.8878 72.1589 23.8823C72.5307 22.9996 72.7165 22.0587 72.7165 21.0944C72.7165 15.6156 66.875 12.0996 62.0298 14.6592C61.3354 15.026 60.4669 14.7499 60.1363 14.0319C56.8955 7.17856 49.9258 2.7527 42.3639 2.7527C33.3033 2.7527 25.4625 8.88592 23.2903 17.6561C23.1161 18.388 22.3842 18.8409 21.6641 18.6783C12.0161 16.5229 2.76478 23.8964 2.76478 33.8488C2.76458 42.4101 9.73427 49.3913 18.2954 49.3913ZM87.1784 80.778C87.1784 82.2765 85.9588 83.4961 84.4603 83.4961C82.9618 83.4961 81.7422 82.2765 81.7422 80.778C81.7422 79.2795 82.962 78.0599 84.4603 78.0599C85.9588 78.0597 87.1784 79.2795 87.1784 80.778ZM6.53989 83.4961C5.04139 83.4961 3.82179 82.2765 3.82179 80.778C3.82179 79.2795 5.04159 78.0599 6.53989 78.0599C8.03838 78.0599 9.25798 79.2795 9.25798 80.778C9.25798 82.2765 8.03838 83.4961 6.53989 83.4961ZM6.53989 61.9714C5.04139 61.9714 3.82179 60.7516 3.82179 59.2417C3.82179 57.7432 5.04159 56.5236 6.53989 56.5236C8.03838 56.5236 9.25798 57.7434 9.25798 59.2417C9.25798 60.7518 8.03838 61.9714 6.53989 61.9714ZM84.4603 56.5236C85.9588 56.5236 87.1784 57.7434 87.1784 59.2417C87.1784 60.7516 85.9588 61.9714 84.4603 61.9714C82.9618 61.9714 81.7422 60.7516 81.7422 59.2417C81.7422 57.7434 82.9618 56.5236 84.4603 56.5236ZM79.1517 60.6241C79.7674 62.9822 81.9163 64.7246 84.4603 64.7246C87.4804 64.7246 89.943 62.262 89.943 59.2419C89.943 56.2218 87.4804 53.7707 84.4603 53.7707C81.9163 53.7707 79.7674 55.5131 79.1517 57.8712H67.8958V52.1444H76.2942C84.4022 52.1444 91 45.5466 91 37.4386C91 29.3306 84.4022 22.7327 76.2942 22.7327C75.969 22.7327 75.6553 22.7444 75.3416 22.7559C75.4345 22.21 75.4694 21.6639 75.4694 21.0948C75.4694 14.0923 68.483 9.31271 62.0179 11.6509C58.0911 4.48582 50.5779 0 42.3637 0C32.4668 0 23.8477 6.41211 20.9668 15.7514C20.0841 15.6119 19.1896 15.554 18.2952 15.554C8.21244 15.554 0 23.7549 0 33.8492C0 43.932 8.21244 52.1444 18.2952 52.1444H23.1042V57.8712H11.8485C11.2328 55.5131 9.08392 53.7707 6.53989 53.7707C3.51976 53.7707 1.05701 56.2218 1.05701 59.2419C1.05701 62.262 3.51956 64.7246 6.53989 64.7246C9.08372 64.7246 11.2328 62.9822 11.8485 60.6241H23.1044V68.1163H14.7409C14.2994 68.1163 13.8812 68.3254 13.6257 68.6856L8.53781 75.6784C4.96835 74.2638 1.05701 76.9171 1.05701 80.7778C1.05701 83.7979 3.51956 86.2606 6.53989 86.2606C11.1527 86.2606 13.7098 80.8609 10.7681 77.3047L15.4379 70.8809H23.1044V71.5546C23.1044 74.0057 25.1023 76.0036 27.5534 76.0036H63.447C65.8979 76.0036 67.8958 74.0057 67.8958 71.5546V70.8809H75.5509L80.2321 77.3047C77.2902 80.8613 79.8477 86.2606 84.4603 86.2606C87.4804 86.2606 89.943 83.7981 89.943 80.7778C89.943 76.9169 86.0319 74.2638 82.4622 75.6784L77.3743 68.6856C77.1071 68.3256 76.7006 68.1163 76.2592 68.1163H67.8956V60.6241H79.1517Z" fill="#1E2F3F"/>
</svg>
