<svg width="71" height="84" viewBox="0 0 71 84" fill="none" xmlns="http://www.w3.org/2000/svg">
<path fill-rule="evenodd" clip-rule="evenodd" d="M2.37551 53.0085H16.4843C17.0432 53.0085 17.5005 53.4657 17.5005 54.0246V81.6291C17.5005 82.1879 17.0432 82.6452 16.4843 82.6452H2.37551C1.81663 82.6452 1.35938 82.1879 1.35938 81.6291V54.0246C1.35954 53.4657 1.81663 53.0085 2.37551 53.0085Z" fill="#8D9CA8"/>
<path fill-rule="evenodd" clip-rule="evenodd" d="M14.7891 53.0085H16.4826C17.0415 53.0085 17.4988 53.4657 17.4988 54.0246V81.6291C17.4988 82.1879 17.0415 82.6452 16.4826 82.6452H14.7891C15.3479 82.6452 15.8052 82.1879 15.8052 81.6291V54.0246C15.8052 53.4657 15.3479 53.0085 14.7891 53.0085Z" fill="#8192A5"/>
<path fill-rule="evenodd" clip-rule="evenodd" d="M6.10156 82.6453H12.7625V74.3995C12.7625 74.0269 12.4576 73.7221 12.0851 73.7221H6.77898C6.4064 73.7221 6.10156 74.0269 6.10156 74.3995V82.6453Z" fill="#ECEFF1"/>
<path fill-rule="evenodd" clip-rule="evenodd" d="M6.10156 82.6453H7.21423V74.3995C7.21423 74.0269 7.51907 73.7221 7.89165 73.7221H6.77898C6.4064 73.7221 6.10156 74.0269 6.10156 74.3995V82.6453Z" fill="#D1D1D6"/>
<path fill-rule="evenodd" clip-rule="evenodd" d="M53.9771 53.0085H68.0859C68.6448 53.0085 69.102 53.4658 69.102 54.0247V81.6291C69.102 82.188 68.6448 82.6453 68.0859 82.6453H53.9771C53.4182 82.6453 52.9609 82.188 52.9609 81.6291V54.0247C52.9609 53.4658 53.4182 53.0085 53.9771 53.0085Z" fill="#8D9CA8"/>
<path fill-rule="evenodd" clip-rule="evenodd" d="M66.3906 53.0085H68.0842C68.6431 53.0085 69.1003 53.4658 69.1003 54.0247V81.6291C69.1003 82.188 68.6431 82.6453 68.0842 82.6453H66.3906C66.9495 82.6453 67.4068 82.188 67.4068 81.6291V54.0247C67.4066 53.4658 66.9495 53.0085 66.3906 53.0085Z" fill="#8192A5"/>
<path fill-rule="evenodd" clip-rule="evenodd" d="M57.7031 82.6453H64.3641V74.3996C64.3641 74.027 64.0592 73.7222 63.6866 73.7222H58.3805C58.008 73.7222 57.7031 74.027 57.7031 74.3996V82.6453Z" fill="#ECEFF1"/>
<path fill-rule="evenodd" clip-rule="evenodd" d="M57.7031 82.6453H58.8158V74.3996C58.8158 74.027 59.1206 73.7222 59.4932 73.7222H58.3805C58.008 73.7222 57.7031 74.027 57.7031 74.3996V82.6453Z" fill="#D1D1D6"/>
<path fill-rule="evenodd" clip-rule="evenodd" d="M15.4693 11.8785H54.9901C55.5489 11.8785 56.0062 12.3358 56.0062 12.8947V34.4756C56.0062 35.0345 55.5491 35.4918 54.9901 35.4918H15.4693C14.9104 35.4918 14.4531 35.0345 14.4531 34.4756V12.8947C14.4531 12.3358 14.9104 11.8785 15.4693 11.8785Z" fill="#8D9CA8"/>
<path fill-rule="evenodd" clip-rule="evenodd" d="M22.9141 11.8787H47.5461V35.4917H22.9141V11.8787Z" fill="#8192A5"/>
<path fill-rule="evenodd" clip-rule="evenodd" d="M25.6177 1.35449H44.8306C45.3894 1.35449 45.8467 1.81175 45.8467 2.37063V35.4918H24.6016V2.37063C24.6016 1.81158 25.0587 1.35449 25.6177 1.35449Z" fill="#9FACBA"/>
<path fill-rule="evenodd" clip-rule="evenodd" d="M43.1484 1.35449H44.842C45.4009 1.35449 45.8581 1.81175 45.8581 2.37063V35.4918H44.1646V2.37063C44.1646 1.81158 43.7073 1.35449 43.1484 1.35449Z" fill="#8D9CA8"/>
<path fill-rule="evenodd" clip-rule="evenodd" d="M30.6719 35.4916H40.0867V25.5286C40.0867 25.156 39.7818 24.8512 39.4093 24.8512H31.3493C30.9767 24.8512 30.6719 25.156 30.6719 25.5286V35.4916Z" fill="#ECEFF1"/>
<path fill-rule="evenodd" clip-rule="evenodd" d="M30.6719 35.4916H31.7849V25.5286C31.7849 25.156 32.0897 24.8512 32.4623 24.8512H31.3493C30.9767 24.8512 30.6719 25.156 30.6719 25.5286V35.4916Z" fill="#D1D1D6"/>
<path fill-rule="evenodd" clip-rule="evenodd" d="M46.002 70.0619C46.002 70.8104 45.3954 71.4171 44.6469 71.4171H30.5175L31.1663 71.8555C31.7841 72.2757 31.9467 73.1191 31.5267 73.7391C31.2644 74.1249 30.8379 74.333 30.4044 74.333C30.1414 74.333 29.8775 74.2573 29.644 74.098L25.3474 71.1835C24.9767 70.9308 24.7528 70.5115 24.7528 70.0619C24.7528 69.6131 24.9769 69.1931 25.3474 68.9411L29.644 66.0243C30.2642 65.6041 31.1067 65.7667 31.5269 66.3853C31.9471 67.0055 31.7843 67.8465 31.1665 68.2665L30.5177 68.7074H44.647C45.3954 68.7077 46.002 69.3135 46.002 70.0619ZM46.002 59.0272C46.002 59.476 45.7804 59.896 45.4074 60.148L41.1109 63.0648C40.8773 63.2218 40.6135 63.2983 40.3505 63.2983C39.9169 63.2983 39.4903 63.0904 39.2297 62.7037C38.8095 62.0844 38.9706 61.2425 39.5908 60.8225L40.2372 60.3825H26.1095C25.361 60.3825 24.7544 59.7759 24.7544 59.0273C24.7544 58.2788 25.361 57.6722 26.1095 57.6722H40.2372L39.5908 57.2337C38.9706 56.8135 38.8095 55.9701 39.2297 55.3501C39.6499 54.7323 40.4916 54.5713 41.1109 54.9914L45.4074 57.9059C45.7804 58.1584 46.002 58.5784 46.002 59.0272ZM6.26074 46.9371C5.83904 46.3186 6.00162 45.4752 6.62028 45.055C7.1822 44.674 7.92753 44.7729 8.3748 45.2582V41.2718C8.3748 40.5232 8.98296 39.9166 9.72914 39.9166H29.3156V38.7281C29.3156 37.9795 29.9214 37.3729 30.6699 37.3729C31.4185 37.3729 32.0251 37.9795 32.0251 38.7281V41.2718C32.0251 42.0203 31.4185 42.627 30.6699 42.627H11.0842V45.2582C11.5314 44.7735 12.2783 44.674 12.8402 45.055C13.4589 45.4752 13.6191 46.3186 13.1997 46.9371L10.8506 50.3982C10.6003 50.7713 10.1801 50.993 9.72897 50.993C9.28102 50.993 8.86085 50.7713 8.60817 50.3982L6.26074 46.9371ZM41.4393 39.9168H61.0257C61.7743 39.9168 62.3801 40.5234 62.3801 41.2719V45.2584C62.8273 44.7737 63.5725 44.6741 64.1353 45.0552C64.7546 45.4753 64.9157 46.3187 64.4957 46.9372L62.1465 50.3983C61.8947 50.7714 61.4745 50.9931 61.0257 50.9931C60.577 50.9931 60.1569 50.7714 59.9049 50.3983L57.5558 46.9372C57.1356 46.3187 57.2967 45.4753 57.9162 45.0552C58.4781 44.6741 59.2235 44.7739 59.6707 45.2584V42.6271H40.0848C39.3362 42.6271 38.7296 42.0205 38.7296 41.2719V38.7282C38.7296 37.9797 39.3362 37.373 40.0848 37.373C40.8333 37.373 41.4391 37.9797 41.4391 38.7282V39.9168H41.4393ZM59.413 69.1341H56.7034V66.4246H59.413V69.1341ZM59.413 59.2878H56.7034V56.5783H59.413V59.2878ZM64.9324 59.2878H62.2229V56.5783H64.9324V59.2878ZM59.413 64.211H56.7034V61.5015H59.413V64.211ZM64.9324 64.211H62.2229V61.5015H64.9324V64.211ZM64.9324 69.1341H62.2229V66.4246H64.9324V69.1341ZM67.7407 81.2905V54.3631H54.3105V81.2905H56.3392V73.7225C56.3392 72.9756 56.9473 72.3673 57.6943 72.3673H64.3568C65.1037 72.3673 65.7111 72.9756 65.7111 73.7225V81.2905H67.7407ZM63.0016 81.2905H59.0495V75.0768H63.0016V81.2905ZM69.095 51.6538H52.9554C52.2069 51.6538 51.6011 52.2612 51.6011 53.0081V82.6457C51.6011 83.3942 52.2069 84 52.9554 84H69.095C69.8436 84 70.4502 83.3942 70.4502 82.6457V53.0081C70.4502 52.2611 69.8436 51.6538 69.095 51.6538ZM7.8144 69.1341H5.10421V66.4246H7.8144V69.1341ZM7.8144 59.2878H5.10421V56.5783H7.8144V59.2878ZM13.3313 59.2878H10.6218V56.5783H13.3313V59.2878ZM7.8144 64.211H5.10421V61.5015H7.8144V64.211ZM13.3313 64.211H10.6218V61.5015H13.3313V64.211ZM13.3313 69.1341H10.6218V66.4246H13.3313V69.1341ZM16.1413 81.2905V54.3631H2.70952V81.2905H4.73975V73.7225C4.73975 72.9756 5.34639 72.3673 6.09494 72.3673H12.7559C13.5044 72.3673 14.111 72.9756 14.111 73.7225V81.2905H16.1413ZM11.4007 81.2905H7.45012V75.0768H11.4007V81.2905ZM17.4965 51.6538H1.35518C0.605954 51.6538 0 52.2612 0 53.0081V82.6457C0 83.3942 0.605784 84 1.35518 84H17.4965C18.2426 84 18.8508 83.3942 18.8508 82.6457V53.0081C18.8508 52.2611 18.2425 51.6538 17.4965 51.6538ZM52.2802 25.0406H49.57V22.331H52.2802V25.0406ZM49.57 30.5583V27.8488H52.2802V30.5583H49.57ZM52.2802 19.522H49.57V16.8118H52.2802V19.522ZM18.17 22.331H20.8795V25.0406H18.17V22.331ZM20.8795 16.8118V19.522H18.17V16.8118H20.8795ZM18.17 27.8488H20.8795V30.5583H18.17V27.8488ZM36.5806 21.9803H33.8713V19.2708H36.5806V21.9803ZM31.0613 21.9803H28.3518V19.2708H31.0613V21.9803ZM42.0984 21.9803H39.3882V19.2708H42.0984V21.9803ZM42.0984 17.0571H39.3882V14.3478H42.0984V17.0571ZM36.5806 17.0571H33.8713V14.3478H36.5806V17.0571ZM31.0613 17.0571H28.3518V14.3478H31.0613V17.0571ZM31.0613 12.1342H28.3518V9.42463H31.0613V12.1342ZM42.0984 12.1342H39.3882V9.42463H42.0984V12.1342ZM36.5806 12.1342H33.8713V9.42463H36.5806V12.1342ZM42.0984 7.21099H39.3882V4.50147H42.0984V7.21099ZM31.0613 7.21099H28.3518V4.50147H31.0613V7.21099ZM36.5806 7.21099H33.8713V4.50147H36.5806V7.21099ZM15.8041 13.2334V34.1367H23.2478V13.2334H15.8041ZM44.4931 2.70952H25.9571V34.1367H29.3154V24.8509C29.3154 24.104 29.9212 23.4966 30.6698 23.4966H40.0848C40.8333 23.4966 41.4391 24.104 41.4391 24.8509V34.1367H44.4929V2.70952H44.4931ZM54.6476 13.2334H47.2024V34.1367H54.6476V13.2334ZM38.7297 34.1367H32.0251V26.2059H38.7297V34.1367ZM14.4498 36.8469H56.002C56.7488 36.8469 57.3572 36.2402 57.3572 35.4917V11.8783C57.3572 11.1321 56.749 10.5239 56.002 10.5239H47.2024V1.35434C47.2024 0.605954 46.5966 0 45.8481 0H24.6021C23.8536 0 23.2478 0.605785 23.2478 1.35434V10.5238H14.4498C13.7005 10.5238 13.0946 11.1319 13.0946 11.8781V35.4917C13.0946 36.2402 13.7004 36.8469 14.4498 36.8469Z" fill="black"/>
</svg>
