<svg width="90" height="75" viewBox="0 0 90 75" fill="none" xmlns="http://www.w3.org/2000/svg">
<path d="M29.7559 18.0137H5.30761C3.48076 18.0137 2 16.5328 2 14.7061V5.30761C2 3.48076 3.48093 2 5.30761 2H29.7559C31.5827 2 33.0635 3.48093 33.0635 5.30761V14.7061C33.0637 16.533 31.5827 18.0137 29.7559 18.0137Z" fill="#E0E7EF"/>
<path d="M37.3462 29.493H32.8857C31.0589 29.493 29.5781 30.974 29.5781 32.8007V42.1992C29.5781 44.026 31.0591 45.5068 32.8857 45.5068H57.334C59.1608 45.5068 60.6416 44.0258 60.6416 42.1992V32.8007C60.6416 30.9738 59.1607 29.493 57.334 29.493H52.7605" fill="#E0E7EF"/>
<path d="M37.3462 29.493H32.8857C31.0589 29.493 29.5781 30.974 29.5781 32.8007V42.1992C29.5781 44.026 31.0591 45.5068 32.8857 45.5068H57.334C59.1608 45.5068 60.6416 44.0258 60.6416 42.1992V32.8007C60.6416 30.9738 59.1607 29.493 57.334 29.493H52.7605" stroke="black" stroke-width="3" stroke-miterlimit="10" stroke-linecap="round" stroke-linejoin="round"/>
<path d="M37.7539 37.4999H52.1721" stroke="black" stroke-width="3" stroke-miterlimit="10" stroke-linecap="round" stroke-linejoin="round"/>
<path d="M29.7559 18.0137H5.30761C3.48076 18.0137 2 16.5328 2 14.7061V5.30761C2 3.48076 3.48093 2 5.30761 2H29.7559C31.5827 2 33.0635 3.48093 33.0635 5.30761V14.7061C33.0637 16.533 31.5827 18.0137 29.7559 18.0137Z" stroke="black" stroke-width="3" stroke-miterlimit="10" stroke-linecap="round" stroke-linejoin="round"/>
<path d="M10.1797 10.007H24.5981" stroke="black" stroke-width="3" stroke-miterlimit="10" stroke-linecap="round" stroke-linejoin="round"/>
<path d="M84.9082 73.0001H60.46C58.6331 73.0001 57.1523 71.5191 57.1523 69.6924V60.2939C57.1523 58.4671 58.6333 56.9863 60.46 56.9863H84.9082C86.7351 56.9863 88.2158 58.4673 88.2158 60.2939V69.6924C88.2158 71.5191 86.7349 73.0001 84.9082 73.0001Z" fill="#E0E7EF"/>
<path d="M84.9082 73.0001H60.46C58.6331 73.0001 57.1523 71.5191 57.1523 69.6924V60.2939C57.1523 58.4671 58.6333 56.9863 60.46 56.9863H84.9082C86.7351 56.9863 88.2158 58.4673 88.2158 60.2939V69.6924C88.2158 71.5191 86.7349 73.0001 84.9082 73.0001Z" stroke="black" stroke-width="3" stroke-miterlimit="10" stroke-linecap="round" stroke-linejoin="round"/>
<path d="M65.332 64.993H79.7502" stroke="black" stroke-width="3" stroke-miterlimit="10" stroke-linecap="round" stroke-linejoin="round"/>
<path d="M11.0117 18.0137V33.9356C11.0117 35.3259 12.1388 36.4529 13.529 36.4529H22.4491" stroke="black" stroke-width="3" stroke-miterlimit="10" stroke-linecap="round" stroke-linejoin="round"/>
<path d="M18.2031 40.6923L22.4421 36.4531L18.2031 32.2141" stroke="black" stroke-width="3" stroke-miterlimit="10" stroke-linecap="round" stroke-linejoin="round"/>
<path d="M60.6367 37.4816H70.8701C72.2604 37.4816 73.3874 38.6087 73.3874 39.9989V50.1456" stroke="black" stroke-width="3" stroke-miterlimit="10" stroke-linecap="round" stroke-linejoin="round"/>
<path d="M77.6305 45.9066L73.3913 50.1456L69.1523 45.9066" stroke="black" stroke-width="3" stroke-miterlimit="10" stroke-linecap="round" stroke-linejoin="round"/>
<ellipse cx="45.3149" cy="29.4929" rx="1.75238" ry="1.75238" fill="black"/>
</svg>
