<svg width="77" height="77" viewBox="0 0 77 77" fill="none" xmlns="http://www.w3.org/2000/svg">
<mask id="mask0_3158_307" style="mask-type:luminance" maskUnits="userSpaceOnUse" x="0" y="0" width="77" height="77">
<path d="M0 0H77V77H0V0Z" fill="white"/>
</mask>
<g mask="url(#mask0_3158_307)">
<path d="M60.267 60.2699C49.0765 71.4602 31.7716 72.0658 19.9005 63.04C19.5298 62.7581 19.494 62.2125 19.8232 61.8833L61.8804 19.8261C62.2098 19.4969 62.7552 19.5327 63.0371 19.9034C72.0634 31.7754 71.4564 49.0801 60.267 60.2699ZM7.71001 38.5C7.71001 21.4849 21.4795 7.71275 38.4971 7.71275C45.3025 7.71275 51.7698 9.9077 57.0938 13.9598C57.4645 14.2418 57.5004 14.7871 57.1711 15.1166L15.1137 57.174C14.7844 57.5033 14.2391 57.4672 13.9569 57.0967C9.90481 51.7727 7.71001 45.3054 7.71001 38.5ZM38.4971 1.1279C17.857 1.1279 1.125 17.8599 1.125 38.5C1.125 59.1399 17.857 75.872 38.4971 75.872C59.137 75.872 75.8691 59.1399 75.8691 38.5C75.8691 17.8599 59.137 1.1279 38.4971 1.1279Z" fill="#FF7043"/>
<path d="M48.038 2.35888C61.7135 7.91265 71.3579 21.327 71.3579 36.9961C71.3579 57.6362 54.6257 74.3682 33.9858 74.3682C30.6882 74.3682 27.491 73.9393 24.4453 73.1374C28.7836 74.8993 33.5267 75.8721 38.4975 75.8721C59.1374 75.8721 75.8696 59.1401 75.8696 38.5C75.8696 21.1576 64.0561 6.57613 48.038 2.35888Z" fill="#E64A19"/>
<path d="M38.4966 61.1445C41.1654 61.1445 43.3291 58.981 43.3291 56.312C43.3291 53.6432 41.1654 51.4795 38.4966 51.4795C35.8276 51.4795 33.6641 53.6432 33.6641 56.312C33.6641 58.981 35.8276 61.1445 38.4966 61.1445Z" fill="#29B6F6"/>
<path d="M39.0179 51.5078C39.8262 52.3717 40.3219 53.5316 40.3219 54.808C40.3219 57.477 38.1584 59.6405 35.4894 59.6405C35.3134 59.6405 35.1399 59.6306 34.9688 59.6122C35.8506 60.5546 37.1047 61.1444 38.4972 61.1444C41.166 61.1444 43.3297 58.9809 43.3297 56.3119C43.3297 53.819 41.4419 51.7676 39.0179 51.5078Z" fill="#0288D1"/>
<path d="M45.2707 48.1911C46.3477 48.9289 47.7925 48.8129 48.7154 47.8897L48.7157 47.8894C49.9008 46.7043 49.7312 44.7289 48.3516 43.7773C46.1571 42.2636 43.5984 41.2436 40.8372 40.8708L35.1298 46.5781C36.1992 46.265 37.3292 46.0952 38.4985 46.0952C41.0087 46.0952 43.3414 46.8691 45.2707 48.1911ZM62.7699 33.8352C63.885 32.7202 63.7992 30.8984 62.6004 29.8735C60.6413 28.1986 58.5051 26.7251 56.2263 25.4818L52.2298 29.478C54.7297 30.682 57.049 32.2038 59.1347 33.9909C60.1952 34.8998 61.7823 34.823 62.7699 33.8352ZM45.2186 27.0705L49.6179 22.6711C46.1056 21.5665 42.3708 20.9687 38.4985 20.9687C29.3087 20.9687 20.8878 24.3239 14.3964 29.8735C13.1977 30.8984 13.112 32.7202 14.227 33.8352C15.2146 34.823 16.8018 34.9 17.8624 33.991C23.4166 29.2315 30.6277 26.353 38.4985 26.353C40.8037 26.353 43.0516 26.6016 45.2186 27.0705ZM38.4985 30.8399C32.0606 30.8399 26.1367 33.0825 21.4669 36.8277C20.211 37.835 20.0952 39.7033 21.2335 40.8419L21.2344 40.8427C22.2064 41.8148 23.7523 41.8945 24.8244 41.0341C27.9382 38.5351 31.7479 36.8701 35.9116 36.3773L41.3045 30.9846C40.3817 30.8897 39.446 30.8399 38.4985 30.8399ZM52.1726 41.034C49.9626 39.2606 47.4024 37.9069 44.6138 37.0942L48.833 32.8747C51.2596 33.8722 53.5122 35.2094 55.5299 36.8276C56.7859 37.835 56.9018 39.7033 55.7634 40.8419L55.7626 40.8427C54.7905 41.8148 53.2446 41.8945 52.1726 41.034Z" fill="#29B6F6"/>
<path d="M62.5987 29.8735C60.6395 28.1985 58.5034 26.725 56.2244 25.4818L55.1133 26.5929C56.6879 27.5765 58.1855 28.6721 59.5909 29.8735C60.7896 30.8983 60.8755 32.7203 59.7604 33.8353C59.636 33.9597 59.502 34.0693 59.3611 34.1646C60.4111 34.8837 61.849 34.7546 62.7682 33.8353C63.8833 32.7203 63.7974 30.8983 62.5987 29.8735Z" fill="#0288D1"/>
<path d="M55.5311 36.8277C53.5133 35.2094 51.2607 33.8724 48.8343 32.8748L47.8828 33.8264C49.533 34.6717 51.0885 35.6771 52.5233 36.8277C53.7793 37.835 53.8951 39.7035 52.7567 40.8419L52.7559 40.8427C52.6324 40.9663 52.4995 41.075 52.3596 41.1696C53.4185 41.8817 54.8463 41.7601 55.7637 40.8427L55.7645 40.8419C56.9029 39.7035 56.7871 37.835 55.5311 36.8277Z" fill="#0288D1"/>
<path d="M48.3504 43.7774C46.1558 42.2637 43.5972 41.2436 40.8359 40.871L40.3125 41.3942C42.1279 41.9181 43.8228 42.729 45.3426 43.7774C46.7221 44.7289 46.8918 46.7045 45.7067 47.8896L45.7064 47.8899C45.5829 48.0135 45.4494 48.1213 45.3092 48.2159C46.3818 48.9245 47.8021 48.8018 48.7142 47.8899L48.7145 47.8896C49.8996 46.7045 49.73 44.7289 48.3504 43.7774Z" fill="#0288D1"/>
<path d="M57.9925 62.3328C46.8328 71.498 30.9941 71.4744 19.9005 63.0399C19.5298 62.7581 19.494 62.2124 19.8232 61.8832L61.8804 19.8261C62.2098 19.4968 62.7552 19.5326 63.0371 19.9034C71.6417 31.2207 71.4922 47.4749 61.7661 58.6626M18.365 53.9225L15.1137 57.1739C14.7844 57.5033 14.2391 57.4672 13.9569 57.0968C9.9048 51.7726 7.71 45.3054 7.71 38.4999C7.71 21.485 21.4795 7.71284 38.4971 7.71284C45.3025 7.71284 51.7698 9.90764 57.0938 13.9599C57.4645 14.2419 57.5004 14.7872 57.1711 15.1166L22.087 50.2006M38.4971 1.12784C17.857 1.12784 1.125 17.8598 1.125 38.4999C1.125 59.14 17.857 75.872 38.4971 75.872C59.137 75.872 75.8691 59.14 75.8691 38.4999C75.8691 17.8598 59.137 1.12784 38.4971 1.12784Z" stroke="black" stroke-width="3" stroke-miterlimit="10" stroke-linecap="round" stroke-linejoin="round"/>
<path d="M38.4966 61.1445C41.1654 61.1445 43.3291 58.981 43.3291 56.312C43.3291 53.6432 41.1654 51.4795 38.4966 51.4795C35.8276 51.4795 33.6641 53.6432 33.6641 56.312C33.6641 58.981 35.8276 61.1445 38.4966 61.1445Z" stroke="black" stroke-width="3" stroke-miterlimit="10" stroke-linecap="round" stroke-linejoin="round"/>
<path d="M35.1297 46.5782C36.1991 46.2651 37.3292 46.0953 38.4984 46.0953C41.0086 46.0953 43.3413 46.8692 45.2707 48.1911C46.3476 48.9289 47.7924 48.8128 48.7154 47.8897L48.7157 47.8894C49.9008 46.7044 49.7311 44.7288 48.3516 43.7773C46.1571 42.2636 43.5983 41.2435 40.8372 40.8709M52.2299 29.478C54.7298 30.682 57.0491 32.2038 59.1346 33.9909C60.1952 34.8999 61.7822 34.823 62.77 33.8353C63.8851 32.7203 63.7991 30.8983 62.6005 29.8735C60.6412 28.1985 58.5051 26.725 56.2262 25.4818M49.6179 22.671C46.1055 21.5664 42.3707 20.9688 38.4984 20.9688C35.6946 20.9688 32.9623 21.281 30.3345 21.8728M25.2606 23.4064C21.2631 24.9367 17.5955 27.1385 14.3964 29.8735C13.1978 30.8983 13.1119 32.7203 14.2269 33.8353C15.2147 34.823 16.8017 34.9 17.8624 33.9911C23.4165 29.2314 30.6276 26.353 38.4984 26.353C40.8036 26.353 43.0515 26.6016 45.2185 27.0704M41.3044 30.9845C40.3816 30.8897 39.4459 30.8399 38.4984 30.8399C32.0605 30.8399 26.1366 33.0826 21.4669 36.8278C20.2109 37.8349 20.0951 39.7034 21.2336 40.8418L21.2344 40.8426C22.2063 41.8147 23.7522 41.8944 24.8243 41.0342C27.9382 38.5351 31.7479 36.87 35.9116 36.3773M48.8331 32.8747C51.2595 33.8723 53.5121 35.2092 55.5299 36.8276C56.7859 37.8349 56.9017 39.7034 55.7633 40.8418L55.7625 40.8426C54.7904 41.8147 53.2447 41.8944 52.1726 41.034C49.9626 39.2606 47.4023 37.907 44.6138 37.0941" stroke="black" stroke-width="3" stroke-miterlimit="10" stroke-linecap="round" stroke-linejoin="round"/>
</g>
</svg>
