<svg width="59" height="128" viewBox="0 0 59 128" fill="none" xmlns="http://www.w3.org/2000/svg">
<path fill-rule="evenodd" clip-rule="evenodd" d="M58.9478 127.385H0.3125V127.355C0.3125 119.242 6.88909 112.666 15.0011 112.666H44.2585C52.3709 112.666 58.9471 119.243 58.9471 127.355L58.9478 127.385Z" fill="#5c4ae4"/>
<path fill-rule="evenodd" clip-rule="evenodd" d="M41.8454 109.461H17.4141L22.3003 80.0234H36.9588L41.8454 109.461Z" fill="#5c4ae4"/>
<path fill-rule="evenodd" clip-rule="evenodd" d="M2.75781 76.8182H56.5065V0.772217H2.75781V76.8182ZM35.1009 57.7209C36.5005 59.1264 37.3661 61.064 37.3661 63.2011C37.3661 65.3382 36.5005 67.2757 35.1009 68.6808C33.6984 70.0889 31.765 70.9598 29.6323 70.9598C27.4997 70.9598 25.5663 70.0885 24.1641 68.6808C22.7642 67.2757 21.8986 65.3382 21.8986 63.2011C21.8986 61.0643 22.7642 59.1264 24.1641 57.7209C25.5663 56.3128 27.5001 55.4424 29.6323 55.4424C31.765 55.442 33.6984 56.3128 35.1009 57.7209ZM14.1332 45.7785V34.265H28.0295V45.7785H14.1332ZM29.6323 48.9838H12.5304C11.6454 48.9838 10.9279 48.266 10.9279 47.381V32.6626C10.9279 31.7772 11.6454 31.0598 12.5304 31.0598H29.6323H46.7343C47.6193 31.0598 48.3368 31.7772 48.3368 32.6626V47.381C48.3368 48.266 47.6193 48.9838 46.7343 48.9838H29.6323ZM31.2352 34.265H45.1319V45.7785H31.2352V34.265ZM14.1332 23.7002V12.1874H28.0295V23.7006H14.1332V23.7002ZM29.6323 26.9058H12.5304C11.6454 26.9058 10.9279 26.188 10.9279 25.303V10.5846C10.9279 9.69961 11.6454 8.98179 12.5304 8.98179H29.6323H46.7343C47.6193 8.98179 48.3368 9.69961 48.3368 10.5846V25.303C48.3368 26.188 47.6193 26.9058 46.7343 26.9058H29.6323ZM31.2352 12.1874H45.1319V23.7006H31.2352V12.1874Z" fill="#5c4ae4"/>
<path d="M34.1582 63.2008C34.1582 61.9379 33.6511 60.7975 32.832 59.9746C32.0151 59.1548 30.8833 58.6473 29.6297 58.6473C28.3761 58.6473 27.2442 59.1548 26.4278 59.9746C25.6083 60.7975 25.1016 61.9379 25.1016 63.2008C25.1016 64.4637 25.6083 65.6041 26.4278 66.4269C27.2442 67.2471 28.3765 67.7542 29.6297 67.7542C30.8833 67.7542 32.0151 67.2471 32.832 66.4269C33.6511 65.6041 34.1582 64.464 34.1582 63.2008Z" fill="#5c4ae4"/>
</svg>
