<svg width="77" height="69" viewBox="0 0 77 69" fill="none" xmlns="http://www.w3.org/2000/svg">
<path fill-rule="evenodd" clip-rule="evenodd" d="M41.1368 42.3568H35.814C34.5961 42.3568 33.6037 41.3644 33.6037 40.1464V36.8535C33.5135 36.8084 33.4233 36.7633 33.3782 36.7182C31.619 37.7557 28.9125 39.966 27.5141 37.5302L24.8527 32.9291C23.4543 30.4933 26.7472 29.2753 28.5065 28.2829V28.0123L25.6646 26.3884C24.6272 25.7569 24.2212 24.4036 24.8527 23.321L27.5141 18.72C28.9125 16.2841 31.619 18.5395 33.3782 19.5319C33.4233 19.4868 33.5135 19.4417 33.6037 19.3966V16.1488C33.6037 14.9309 34.5961 13.9385 35.814 13.9385H41.1368C42.3547 13.9385 43.3471 14.9309 43.3471 16.1488V19.3966C43.4373 19.4417 43.5276 19.4868 43.5727 19.5319C45.377 18.5395 48.0384 16.2841 49.4368 18.72L52.0982 23.321C53.4965 25.802 50.2487 26.9748 48.4895 28.0123V28.2829C50.2487 29.2753 53.4965 30.4933 52.0982 32.9291L49.4368 37.5302C48.0384 40.0111 45.3319 37.7557 43.5727 36.7182C43.5276 36.7633 43.4373 36.8084 43.3471 36.8535V40.1464C43.3471 41.3644 42.3547 42.3568 41.1368 42.3568ZM33.3782 34.7785C33.6037 34.7785 35.4081 35.5003 35.4081 36.3122V40.1464C35.4081 40.372 35.5885 40.5524 35.814 40.5524H41.1368C42.3547 40.5524 40.776 36.1769 42.0841 35.5003C44.114 34.5079 42.7156 34.147 47.3167 36.8084C47.5422 36.8986 47.8129 36.8535 47.9031 36.628C48.2639 36.0416 50.6998 32.072 50.6096 31.7112C50.384 30.9443 46.5949 30.0422 46.64 28.734C46.7754 26.4786 45.8732 27.4259 50.4291 24.8096C50.6096 24.6743 50.6547 24.4036 50.5645 24.2232C50.2487 23.5917 48.0384 19.5319 47.6324 19.4417C46.9107 19.2162 44.1591 22.058 43.0765 21.3363C41.227 20.0732 41.5879 21.3814 41.5879 16.1488C41.5879 15.9232 41.3624 15.6977 41.1368 15.6977H35.814C34.6412 15.6977 36.22 20.1183 34.9119 20.7498C32.882 21.7422 34.2803 22.1031 29.6342 19.4417C29.4538 19.3515 29.1831 19.4417 29.0929 19.6221L26.4315 24.2232C26.2962 24.4036 26.3864 24.6743 26.5668 24.8096C31.1228 27.4259 30.1755 26.4786 30.3108 28.6889C30.401 29.9971 26.6119 30.8992 26.3864 31.7112C26.2511 32.072 28.732 36.0416 29.0478 36.628C29.1831 36.8535 29.4538 36.8986 29.6342 36.8084C30.4461 36.3573 32.882 34.7785 33.3782 34.7785Z" fill="black"/>
<path fill-rule="evenodd" clip-rule="evenodd" d="M38.4739 34.5982C34.9104 34.5982 32.0234 31.7113 32.0234 28.1477C32.0234 24.5841 34.9104 21.6521 38.4739 21.6521C42.0375 21.6521 44.9695 24.5841 44.9695 28.1477C44.9695 31.7113 42.0375 34.5982 38.4739 34.5982ZM38.4739 23.4564C35.9028 23.4564 33.8278 25.5765 33.8278 28.1477C33.8278 30.7189 35.9028 32.7939 38.4739 32.7939C41.0451 32.7939 43.1652 30.7189 43.1652 28.1477C43.1652 25.5765 41.0451 23.4564 38.4739 23.4564Z" fill="black"/>
<path fill-rule="evenodd" clip-rule="evenodd" d="M62.7909 47.454H14.2091C6.36028 47.454 0 41.0937 0 33.2449C0 25.7569 5.68366 19.6673 13.1265 19.0808C14.8407 11.4575 22.4189 6.72115 30.0873 8.43527C33.6508 3.11248 39.56 0 46.0105 0C56.5659 0 65.1816 8.57059 65.1816 19.2613C71.9479 20.389 77 26.2531 77 33.2449C77 41.0937 70.5946 47.454 62.7909 47.454ZM26.9748 9.87874C20.9303 9.87874 15.7879 14.164 14.7504 20.1183C14.6602 20.5243 14.2994 20.8401 13.8934 20.8401C7.12712 21.0205 1.80434 26.4786 1.80434 33.2449C1.80434 40.1014 7.35267 45.6497 14.2091 45.6497H62.7909C69.6022 45.6497 75.1957 40.1014 75.1957 33.2449C75.1957 26.9297 70.4142 21.6069 64.1441 20.9303C63.1517 20.8401 63.3322 19.8026 63.3322 19.1711C63.3322 9.56298 55.5735 1.80434 45.9654 1.80434C39.966 1.80434 34.4628 4.8266 31.2601 9.92384C30.6737 10.8711 29.7264 9.87874 26.9748 9.87874Z" fill="black"/>
<path fill-rule="evenodd" clip-rule="evenodd" d="M62.2064 56.7012H50.0272C49.531 56.7012 49.125 56.2952 49.125 55.799V34.7785C49.125 33.6057 50.9293 33.6057 50.9293 34.7785V54.8969H62.2064C63.4244 54.8969 63.4244 56.7012 62.2064 56.7012Z" fill="black"/>
<path fill-rule="evenodd" clip-rule="evenodd" d="M26.979 56.7012H14.7546C13.5818 56.7012 13.5818 54.8969 14.7546 54.8969H26.0768V34.7785C26.0768 33.6057 27.8812 33.6057 27.8812 34.7785V55.799C27.8812 56.2952 27.4752 56.7012 26.979 56.7012Z" fill="black"/>
<path fill-rule="evenodd" clip-rule="evenodd" d="M38.4803 58.4606C37.9841 58.4606 37.5781 58.0546 37.5781 57.5584V41.4547C37.5781 40.2819 39.3825 40.2368 39.3825 41.4547V57.5584C39.3825 58.0546 38.9765 58.4606 38.4803 58.4606Z" fill="black"/>
<path fill-rule="evenodd" clip-rule="evenodd" d="M67.1254 61.618C63.9227 61.618 61.3516 59.0017 61.3516 55.799C61.3516 52.5963 63.9227 50.0251 67.1254 50.0251C70.3281 50.0251 72.9444 52.5963 72.9444 55.799C72.9444 59.0017 70.3281 61.618 67.1254 61.618ZM67.1254 51.8295C61.8929 51.8295 61.8929 59.7686 67.1254 59.7686C72.358 59.7686 72.358 51.8295 67.1254 51.8295Z" fill="black"/>
<path fill-rule="evenodd" clip-rule="evenodd" d="M38.477 68.2489C35.2743 68.2489 32.7031 65.6326 32.7031 62.475C32.7031 59.2723 35.2743 56.656 38.477 56.656C41.6797 56.656 44.296 59.2723 44.296 62.475C44.296 65.6326 41.6797 68.2489 38.477 68.2489ZM38.477 58.4603C33.2444 58.4603 33.2444 66.4445 38.477 66.4445C43.7547 66.4445 43.7547 58.4603 38.477 58.4603Z" fill="black"/>
<path fill-rule="evenodd" clip-rule="evenodd" d="M9.83637 61.618C6.67879 61.618 4.0625 59.0017 4.0625 55.799C4.0625 52.5963 6.67879 50.0251 9.83637 50.0251C13.0391 50.0251 15.6554 52.5963 15.6554 55.799C15.6554 59.0017 13.0391 61.618 9.83637 61.618ZM9.83637 51.8295C4.6038 51.8295 4.6038 59.7686 9.83637 59.7686C15.1141 59.7686 15.1141 51.8295 9.83637 51.8295Z" fill="black"/>
<path fill-rule="evenodd" clip-rule="evenodd" d="M50.9277 35.0042V45.6498H62.7912C69.6026 45.6498 75.196 40.1015 75.196 33.245C75.196 26.9298 70.4145 21.607 64.1445 20.9304C63.1521 20.8402 63.3325 19.8027 63.3325 19.1712C63.3325 9.56308 55.5739 1.80444 45.9658 1.80444C39.9664 1.80444 34.4632 4.8267 31.2605 9.92395C30.6741 10.8712 29.7268 9.87884 26.9752 9.87884C20.9306 9.87884 15.7883 14.1641 14.7508 20.1184C14.6606 20.5244 14.2997 20.8402 13.8937 20.8402C7.12748 21.0206 1.80469 26.4787 1.80469 33.245C1.80469 40.1015 7.35302 45.6498 14.2095 45.6498H26.073V35.0493L24.8551 32.9292C23.4567 30.4934 26.7496 29.2754 28.5089 28.2831V28.0124L25.667 26.3885C24.6295 25.757 24.2236 24.4037 24.8551 23.3211L27.5165 18.7201C28.9148 16.2842 31.6213 18.5397 33.3806 19.532L33.6061 19.3967V16.1489C33.6061 14.931 34.5985 13.9386 35.8164 13.9386H41.1392C42.3571 13.9386 43.3495 14.931 43.3495 16.1489V19.3967C43.4397 19.4418 43.5299 19.4869 43.5751 19.532C45.3794 18.5397 48.0408 16.2842 49.4391 18.7201L52.1005 23.3211C53.4989 25.8021 50.2511 26.9749 48.4919 28.0124V28.2831C50.2511 29.2754 53.4989 30.4934 52.1005 32.9292L50.9277 35.0042Z" fill="#C2E6F7"/>
<path fill-rule="evenodd" clip-rule="evenodd" d="M67.1197 51.8296C61.8872 51.8296 61.8872 59.7687 67.1197 59.7687C72.3523 59.7687 72.3523 51.8296 67.1197 51.8296Z" fill="#21ABCD"/>
<path fill-rule="evenodd" clip-rule="evenodd" d="M39.375 45.6497H49.1184V38.0264C47.6298 39.6503 45.194 37.6655 43.5701 36.7183L43.3445 36.8536V40.1465C43.3445 41.3644 42.3522 42.3568 41.1342 42.3568H39.375V45.6497Z" fill="#C2E6F7"/>
<path fill-rule="evenodd" clip-rule="evenodd" d="M37.5733 45.6497V42.3568H35.8141C34.5961 42.3568 33.6038 41.3644 33.6038 40.1465V36.8536C33.5135 36.8085 33.4233 36.7634 33.3782 36.7183C31.7543 37.6655 29.3636 39.6503 27.875 38.0264V45.6497H37.5733Z" fill="#C2E6F7"/>
<path fill-rule="evenodd" clip-rule="evenodd" d="M35.8149 40.5525H41.1377C42.3556 40.5525 40.7768 36.177 42.085 35.5003C44.1148 34.5079 42.7165 34.1471 47.3175 36.8085C47.5431 36.8987 47.8137 36.8536 47.9039 36.628C48.0393 36.4025 48.5806 35.5454 49.1219 34.5982C49.167 34.3726 49.2572 34.1922 49.4376 34.102C50.0691 32.9743 50.6555 31.8917 50.6104 31.7112C50.3849 30.9444 46.5958 30.0422 46.6409 28.7341C46.7762 26.4787 45.8741 27.4259 50.43 24.8096C50.6104 24.6743 50.6555 24.4037 50.5653 24.2232C50.2496 23.5917 48.0393 19.532 47.6333 19.4417C46.9115 19.2162 44.1599 22.058 43.0773 21.3363C41.2279 20.0733 41.5888 21.3814 41.5888 16.1488C41.5888 15.9233 41.3632 15.6978 41.1377 15.6978H35.8149C34.6421 15.6978 36.2209 20.1184 34.9127 20.7499C32.8828 21.7423 34.2812 22.1031 29.635 19.4417C29.4546 19.3515 29.184 19.4417 29.0937 19.6222L26.4323 24.2232C26.297 24.4037 26.3872 24.6743 26.5677 24.8096C31.1236 27.4259 30.1763 26.4787 30.3117 28.689C30.4019 29.9971 26.6128 30.8993 26.3872 31.7112C26.297 31.8917 26.9285 32.9743 27.5601 34.102C27.6954 34.1922 27.8307 34.3726 27.8758 34.5982C28.4171 35.5454 28.9133 36.3574 29.0486 36.628C29.184 36.8536 29.4546 36.8987 29.635 36.8085C30.447 36.3574 32.8828 34.7786 33.379 34.7786C33.6046 34.7786 35.4089 35.5003 35.4089 36.3123V40.1465C35.4089 40.372 35.5893 40.5525 35.8149 40.5525ZM38.4763 34.5982C34.9127 34.5982 32.0258 31.7112 32.0258 28.1477C32.0258 24.5841 34.9127 21.6521 38.4763 21.6521C42.0398 21.6521 44.9719 24.5841 44.9719 28.1477C44.9719 31.7112 42.0398 34.5982 38.4763 34.5982Z" fill="#95AFD1"/>
<path fill-rule="evenodd" clip-rule="evenodd" d="M33.8281 28.1476C33.8281 30.7187 35.9031 32.7937 38.4743 32.7937C41.0455 32.7937 43.1656 30.7187 43.1656 28.1476C43.1656 25.5764 41.0455 23.4563 38.4743 23.4563C35.9031 23.4563 33.8281 25.5764 33.8281 28.1476Z" fill="white"/>
<path fill-rule="evenodd" clip-rule="evenodd" d="M38.4791 66.4446C43.7568 66.4446 43.7568 58.4604 38.4791 58.4604C33.2465 58.4604 33.2465 66.4446 38.4791 66.4446Z" fill="#005B94"/>
<path fill-rule="evenodd" clip-rule="evenodd" d="M9.83849 59.7687C15.1162 59.7687 15.1162 51.8296 9.83849 51.8296C4.60592 51.8296 4.60592 59.7687 9.83849 59.7687Z" fill="#57D2A5"/>
</svg>
