<svg xmlns="http://www.w3.org/2000/svg" version="1.1" xmlns:xlink="http://www.w3.org/1999/xlink" xmlns:svgjs="http://svgjs.com/svgjs" width="512" height="512" x="0" y="0" viewBox="0 0 36 36" style="enable-background:new 0 0 512 512" xml:space="preserve" class=""><g><path fill="#006c35" d="M18 36c9.941 0 18-8.059 18-18S27.941 0 18 0 0 8.059 0 18s8.059 18 18 18z" data-original="#006c35" class=""></path><path fill="#f0f0f0" fill-rule="evenodd" d="M9.196 15.652a1.57 1.57 0 0 1-1.565 1.565v2.348a3.92 3.92 0 0 0 3.913-3.913v-5.478H9.196zm16.826 0v-5.478h2.348v5.478a3.92 3.92 0 0 1-3.913 3.913v-2.348a1.57 1.57 0 0 0 1.565-1.565zm-13.5 8.218a2.35 2.35 0 0 1-2.348-2.348h15.653v2.348a1.96 1.96 0 0 1-1.957 1.957h-2.348a1.96 1.96 0 0 1-1.957-1.957zm12.326-13.696H22.5v5.478h2.348zm-5.868 3.13a.392.392 0 1 1-.783 0v-3.13H15.85v3.13a.392.392 0 0 1-.783 0v-3.13h-2.348v3.13a2.75 2.75 0 0 0 2.74 2.74c.582 0 1.12-.183 1.565-.493.444.3.984.493 1.565.493.117 0 .232-.008.346-.023a1.568 1.568 0 0 1-1.52 1.197v2.348a3.92 3.92 0 0 0 3.913-3.913v-5.478H18.98zm-2.74 3.913h-3.522v2.348h3.522z" clip-rule="evenodd" data-original="#f0f0f0"></path></g></svg>