<svg width="77" height="77" viewBox="0 0 77 77" fill="none" xmlns="http://www.w3.org/2000/svg">
<path d="M38.7245 67.785C38.583 67.8398 38.4248 67.8398 38.2833 67.785C30.9117 64.9305 24.6731 60.5654 19.7221 54.7956C16.1229 50.5999 14.1406 45.0427 14.1406 39.1481V18.2152C14.1406 17.9302 14.3247 17.6872 14.5795 17.6305C19.2507 16.5915 23.6488 14.5446 27.4706 12.2407C34.2542 8.15123 42.7538 8.15123 49.5373 12.2407C53.3592 14.5446 57.7572 16.5915 62.4283 17.6305C62.683 17.6872 62.8672 17.9302 62.8672 18.2152V39.1481C62.8672 45.0427 60.8849 50.5999 57.2853 54.7961C52.335 60.5649 46.0955 64.9303 38.7245 67.785Z" fill="#FFD659"/>
<path d="M62.4238 17.6308C61.0393 17.3228 59.6795 16.9245 58.3509 16.4589V38.4084C58.3509 44.6405 56.3686 50.5159 52.769 54.9524C48.5003 60.2118 43.2723 64.3666 37.1875 67.3466C37.5487 67.4961 37.9119 67.643 38.2787 67.785C38.4203 67.8397 38.5785 67.8397 38.72 67.785C46.0909 64.9303 52.3305 60.565 57.2807 54.7962C60.8803 50.6 62.8626 45.0428 62.8626 39.1482V18.2153C62.8626 17.9305 62.6786 17.6873 62.4238 17.6308Z" fill="#FFBD54"/>
<path d="M38.6806 62.9281C38.5657 62.9776 38.4343 62.9776 38.3194 62.9281C32.3395 60.3522 27.2406 56.6341 23.1423 51.8577C20.2445 48.4796 18.6484 43.9658 18.6484 39.1483V21.6507C18.6484 21.3887 18.8181 21.1588 19.0676 21.0786C22.5914 19.9468 26.1862 18.2812 29.796 16.1049C32.4214 14.5222 35.4313 13.6855 38.5 13.6855C41.5689 13.6855 44.5788 14.5222 47.2042 16.1047C50.8141 18.2809 54.4089 19.9466 57.9326 21.0785C58.1821 21.1586 58.3517 21.3886 58.3517 21.6505V39.1482C58.3517 43.9658 56.7555 48.4798 53.857 51.8587C49.759 56.6344 44.6592 60.3528 38.6806 62.9281Z" fill="#4FB1F5"/>
<path d="M57.9296 21.0785C56.5749 20.6434 55.2095 20.1285 53.8369 19.5369V37.8062C53.8369 43.1322 52.2406 48.1228 49.3421 51.8585C45.9719 56.2007 41.9228 59.7504 37.2656 62.4586C37.613 62.619 37.9628 62.7758 38.3164 62.9282C38.4313 62.9776 38.5627 62.9776 38.6776 62.9282C44.6563 60.3529 49.756 56.6345 53.8539 51.8588C56.7523 48.4797 58.3486 43.9657 58.3486 39.1483V21.6506C58.3486 21.3886 58.1789 21.1585 57.9296 21.0785Z" fill="#46A4E6"/>
<path d="M44.5195 47.0723H32.4883C31.6577 47.0723 30.9844 46.399 30.9844 45.5684V36.5449C30.9844 35.7143 31.6577 35.041 32.4883 35.041H44.5195C45.3501 35.041 46.0234 35.7143 46.0234 36.5449V45.5684C46.0234 46.399 45.3501 47.0723 44.5195 47.0723Z" fill="#FF2C5C"/>
<path d="M44.5117 35.041H40C40.8306 35.041 41.5039 35.7143 41.5039 36.5449V45.5684C41.5039 46.399 40.8306 47.0723 40 47.0723H44.5117C45.3423 47.0723 46.0156 46.399 46.0156 45.5684V36.5449C46.0156 35.7143 45.3423 35.041 44.5117 35.041Z" fill="#E62753"/>
<path d="M26.6152 75.8721C27.8611 75.8721 28.8711 74.8621 28.8711 73.6162C28.8711 72.3703 27.8611 71.3604 26.6152 71.3604C25.3694 71.3604 24.3594 72.3703 24.3594 73.6162C24.3594 74.8621 25.3694 75.8721 26.6152 75.8721Z" fill="#FF2C5C"/>
<path d="M55.1934 5.63965C56.4392 5.63965 57.4492 4.62967 57.4492 3.38379C57.4492 2.13791 56.4392 1.12793 55.1934 1.12793C53.9475 1.12793 52.9375 2.13791 52.9375 3.38379C52.9375 4.62967 53.9475 5.63965 55.1934 5.63965Z" fill="#FF2C5C"/>
<path d="M3.38086 28.4238C4.62674 28.4238 5.63672 27.4138 5.63672 26.168C5.63672 24.9221 4.62674 23.9121 3.38086 23.9121C2.13498 23.9121 1.125 24.9221 1.125 26.168C1.125 27.4138 2.13498 28.4238 3.38086 28.4238Z" fill="#FF2C5C"/>
<path d="M6.88086 37.1465C8.12674 37.1465 9.13672 36.1365 9.13672 34.8906C9.13672 33.6447 8.12674 32.6348 6.88086 32.6348C5.63498 32.6348 4.625 33.6447 4.625 34.8906C4.625 36.1365 5.63498 37.1465 6.88086 37.1465Z" fill="#FF2C5C"/>
<path d="M73.6152 38.3496C74.8611 38.3496 75.8711 37.3396 75.8711 36.0938C75.8711 34.8479 74.8611 33.8379 73.6152 33.8379C72.3694 33.8379 71.3594 34.8479 71.3594 36.0938C71.3594 37.3396 72.3694 38.3496 73.6152 38.3496Z" fill="#FF2C5C"/>
<path d="M70.123 47.0723C71.3689 47.0723 72.3789 46.0623 72.3789 44.8164C72.3789 43.5705 71.3689 42.5605 70.123 42.5605C68.8772 42.5605 67.8672 43.5705 67.8672 44.8164C67.8672 46.0623 68.8772 47.0723 70.123 47.0723Z" fill="#FF2C5C"/>
<path d="M38.498 42.1846C39.7439 42.1846 40.7539 41.1746 40.7539 39.9287C40.7539 38.6828 39.7439 37.6729 38.498 37.6729C37.2522 37.6729 36.2422 38.6828 36.2422 39.9287C36.2422 41.1746 37.2522 42.1846 38.498 42.1846Z" fill="#685C79"/>
<path d="M73.6192 32.71C72.1488 32.71 70.895 33.6531 70.4294 34.9658H63.9942V33.6499C63.9942 33.027 63.4893 32.522 62.8662 32.522C62.2432 32.522 61.7383 33.027 61.7383 33.6499V39.1483C61.7383 44.7735 59.8524 50.07 56.4283 54.0618C51.6457 59.6353 45.616 63.873 38.503 66.6606C32.1437 64.1687 26.6337 60.5061 22.1244 55.7724C21.6946 55.3213 20.9806 55.304 20.5296 55.7337C20.0786 56.1634 20.0613 56.8773 20.4908 57.3285C22.0472 58.9622 23.7181 60.4719 25.4942 61.8585V70.4267C24.1814 70.8923 23.2383 72.146 23.2383 73.6165C23.2383 75.4824 24.7564 77.0003 26.6221 77.0003C28.4878 77.0003 30.0059 75.4824 30.0059 73.6165C30.0059 72.1461 29.0628 70.8923 27.75 70.4267V63.5113C30.8455 65.6414 34.2271 67.4245 37.8745 68.837C38.0772 68.9155 38.2902 68.9549 38.5031 68.9549C38.7159 68.9549 38.9286 68.9156 39.131 68.8371C46.6755 65.9152 53.0711 61.4385 58.1404 55.5308C60.4856 52.7969 62.1755 49.5157 63.1198 45.9445H66.9328C67.3984 47.2572 68.6522 48.2003 70.1226 48.2003C71.9883 48.2003 73.5064 46.6825 73.5064 44.8166C73.5064 42.9507 71.9883 41.4328 70.1226 41.4328C68.6522 41.4328 67.3984 42.3759 66.9328 43.6886H63.6105C63.8642 42.208 63.9942 40.6889 63.9942 39.1485V37.2217H70.4294C70.895 38.5344 72.1488 39.4775 73.6192 39.4775C75.4849 39.4775 77.003 37.9596 77.003 36.0938C77.003 34.2279 75.4849 32.71 73.6192 32.71ZM26.6221 74.7441C26.0001 74.7441 25.4942 74.2382 25.4942 73.6162C25.4942 72.9942 26.0001 72.4883 26.6221 72.4883C27.2441 72.4883 27.75 72.9942 27.75 73.6162C27.75 74.2382 27.2441 74.7441 26.6221 74.7441ZM70.1226 43.6885C70.7446 43.6885 71.2505 44.1944 71.2505 44.8164C71.2505 45.4384 70.7446 45.9443 70.1226 45.9443C69.5006 45.9443 68.9947 45.4384 68.9947 44.8164C68.9947 44.1944 69.5006 43.6885 70.1226 43.6885ZM73.6192 37.2217C72.9972 37.2217 72.4912 36.7158 72.4912 36.0938C72.4912 35.4717 72.9972 34.9658 73.6192 34.9658C74.2412 34.9658 74.7471 35.4717 74.7471 36.0938C74.7471 36.7158 74.2412 37.2217 73.6192 37.2217Z" fill="black"/>
<path d="M15.2646 39.1483V18.6298C19.4019 17.6515 23.7004 15.8285 28.0491 13.2069C34.4954 9.32076 42.5045 9.32061 48.9511 13.2069C50.8857 14.3731 52.8104 15.3805 54.7154 16.2265C54.7366 16.2365 54.7581 16.2461 54.7799 16.2547C57.1348 17.2963 59.4595 18.0915 61.7352 18.6298V28.8248C61.7352 29.4477 62.2401 29.9527 62.8631 29.9527C63.4862 29.9527 63.9911 29.4477 63.9911 28.8248V18.2153C63.9911 17.4089 63.4351 16.6998 62.6693 16.5296C60.5978 16.0688 58.4762 15.377 56.3211 14.464V6.57357C57.6339 6.10796 58.577 4.85431 58.577 3.38379C58.5771 1.51789 57.0591 0 55.1934 0C53.3276 0 51.8096 1.51789 51.8096 3.38379C51.8096 4.85416 52.7527 6.10796 54.0654 6.57357V13.4339C52.7579 12.7931 51.4404 12.0734 50.1157 11.2749C42.9508 6.95572 34.0489 6.95587 26.8843 11.2749C22.589 13.8642 18.3653 15.6322 14.3306 16.5297C13.5646 16.7 13.0086 17.4091 13.0086 18.2155V25.04H6.57357C6.10796 23.7273 4.85416 22.7842 3.38379 22.7842C1.51804 22.7842 0 24.3021 0 26.168C0 28.0339 1.51804 29.5518 3.38379 29.5518C4.85416 29.5518 6.10796 28.6087 6.57357 27.2959H13.0088V33.7627H10.0702C9.60455 32.4499 8.35074 31.5068 6.88037 31.5068C5.01463 31.5068 3.49658 33.0247 3.49658 34.8906C3.49658 36.7565 5.01463 38.2744 6.88037 38.2744C8.35074 38.2744 9.60455 37.3313 10.0702 36.0186H13.0088V39.1483C13.0088 44.5546 14.57 49.6248 17.5235 53.8108C17.7432 54.1223 18.0918 54.2886 18.4462 54.2886C18.6708 54.2886 18.8978 54.2217 19.0954 54.0823C19.6043 53.7231 19.7258 53.0193 19.3667 52.5104C16.6831 48.7069 15.2646 44.0864 15.2646 39.1483ZM55.1934 2.25586C55.8154 2.25586 56.3213 2.76177 56.3213 3.38379C56.3213 4.0058 55.8154 4.51172 55.1934 4.51172C54.5713 4.51172 54.0654 4.0058 54.0654 3.38379C54.0654 2.76177 54.5713 2.25586 55.1934 2.25586ZM3.38379 27.2959C2.76177 27.2959 2.25586 26.79 2.25586 26.168C2.25586 25.546 2.76177 25.04 3.38379 25.04C4.0058 25.04 4.51172 25.546 4.51172 26.168C4.51172 26.79 4.0058 27.2959 3.38379 27.2959ZM6.88037 36.0186C6.25836 36.0186 5.75244 35.5126 5.75244 34.8906C5.75244 34.2686 6.25836 33.7627 6.88037 33.7627C7.50239 33.7627 8.0083 34.2686 8.0083 34.8906C8.0083 35.5126 7.50239 36.0186 6.88037 36.0186Z" fill="black"/>
<path d="M26.0945 19.4232C26.6529 19.1471 26.8815 18.4707 26.6054 17.9123C26.3293 17.354 25.653 17.1253 25.0943 17.4012C22.9596 18.457 20.8168 19.3329 18.7254 20.0047C18.0065 20.2357 17.5234 20.8971 17.5234 21.6507V39.1483C17.5234 44.2351 19.2159 49.0096 22.289 52.5922C26.4957 57.4948 31.7399 61.3209 37.8764 63.9643C38.0754 64.0499 38.2891 64.0927 38.5028 64.0927C38.7166 64.0927 38.9305 64.0499 39.1298 63.9641C45.2655 61.321 50.5095 57.4954 54.7159 52.5933C57.7896 49.0099 59.4824 44.2351 59.4824 39.1485V21.6507C59.4824 20.8971 58.9994 20.2357 58.2805 20.0047C54.8441 18.9009 51.3144 17.2636 47.7894 15.1388C44.9885 13.4502 41.7772 12.5576 38.5031 12.5576C35.2289 12.5576 32.0178 13.4502 29.2163 15.1391L28.9764 15.283C28.4413 15.602 28.2661 16.2944 28.5853 16.8295C28.9042 17.3646 29.5963 17.5396 30.1316 17.2206C30.2151 17.1708 30.2982 17.1209 30.3812 17.0708C32.8309 15.594 35.6395 14.8135 38.5031 14.8135C41.3668 14.8135 44.1754 15.594 46.6249 17.0708C50.1755 19.2112 53.7402 20.8798 57.2267 22.0337V39.1482C57.2267 43.6964 55.727 47.9496 53.004 51.1242C49.084 55.6925 44.206 59.2756 38.5031 61.7767C32.7995 59.2753 27.9216 55.6921 24.0014 51.1232C21.2787 47.9493 19.7794 43.6964 19.7794 39.1482V22.0337C21.8606 21.3448 23.9833 20.4674 26.0945 19.4232Z" fill="black"/>
<path d="M38.499 26.3936C35.3892 26.3936 32.8594 28.9234 32.8594 32.0332V33.9131H32.4834C31.0323 33.9131 29.8516 35.0938 29.8516 36.5449V45.5684C29.8516 47.0195 31.0323 48.2002 32.4834 48.2002H44.5146C45.9658 48.2002 47.1465 47.0195 47.1465 45.5684V36.5449C47.1465 35.0938 45.9658 33.9131 44.5146 33.9131H44.1387V32.0332C44.1387 28.9234 41.6088 26.3936 38.499 26.3936ZM35.1152 32.0332C35.1152 30.1673 36.6333 28.6494 38.499 28.6494C40.3648 28.6494 41.8828 30.1673 41.8828 32.0332V33.9131H35.1152V32.0332ZM44.8906 36.5449V45.5684C44.8906 45.7756 44.722 45.9443 44.5146 45.9443H32.4834C32.276 45.9443 32.1074 45.7756 32.1074 45.5684V36.5449C32.1074 36.3377 32.276 36.1689 32.4834 36.1689H44.5146C44.722 36.1689 44.8906 36.3377 44.8906 36.5449Z" fill="black"/>
<path d="M38.501 36.5449C36.6352 36.5449 35.1172 38.0628 35.1172 39.9287C35.1172 41.3991 36.0603 42.6529 37.373 43.1185V44.4404C37.373 45.0633 37.8779 45.5684 38.501 45.5684C39.124 45.5684 39.6289 45.0633 39.6289 44.4404V43.1185C40.9417 42.6529 41.8848 41.3992 41.8848 39.9287C41.8848 38.0628 40.3667 36.5449 38.501 36.5449ZM38.501 41.0566C37.879 41.0566 37.373 40.5507 37.373 39.9287C37.373 39.3067 37.879 38.8008 38.501 38.8008C39.123 38.8008 39.6289 39.3067 39.6289 39.9287C39.6289 40.5507 39.123 41.0566 38.501 41.0566Z" fill="black"/>
</svg>
