<svg width="113" height="114" viewBox="0 0 113 114" fill="none" xmlns="http://www.w3.org/2000/svg">
<path d="M24.1688 109.549L20.8623 104.892C20.1604 103.903 18.7893 103.67 17.8001 104.372C16.8111 105.074 16.5783 106.445 17.2807 107.434L20.5871 112.092C21.0154 112.695 21.6923 113.017 22.3799 113.017C22.8196 113.017 23.2635 112.885 23.6493 112.611C24.6383 111.909 24.8711 110.538 24.1688 109.549Z" fill="#5C4AE4"/>
<path d="M49.5074 110.37L45.9091 93.2198C44.1594 84.8802 39.3013 77.6691 32.2302 72.9144L24.5475 67.7484C21.4669 65.6774 17.3261 66.1228 14.7512 68.7484V42.2845C14.7512 38.8109 12.383 35.8596 8.99196 35.1069C6.80341 34.6207 4.5461 35.1474 2.79767 36.5501C1.04946 37.9528 0.046875 40.043 0.046875 42.2845V76.3377C0.046875 80.799 1.41206 85.0801 3.99463 88.7182L7.91119 94.2354C8.33946 94.8387 9.01634 95.1604 9.70399 95.1604C10.1437 95.1604 10.5875 95.0286 10.9734 94.7548C11.9624 94.0526 12.1952 92.6817 11.4928 91.6926L7.57626 86.1754C5.52409 83.2844 4.43937 79.8827 4.43937 76.3375V42.2845C4.43937 41.3823 4.84304 40.5409 5.54671 39.976C6.25017 39.4114 7.15876 39.1994 8.04033 39.3951C9.4053 39.698 10.3587 40.8861 10.3587 42.2845V69.3018C10.3587 73.1264 11.7638 76.7702 14.3165 79.6051C14.4259 79.7362 14.5384 79.866 14.6572 79.9918C16.1157 81.5373 17.8305 83.3585 19.4457 85.075L21.7067 87.4815C21.7139 87.4892 21.7218 87.4957 21.7293 87.5032C23.6635 89.5604 25.09 91.0796 25.1199 91.1112C25.9498 91.9952 27.3401 92.0391 28.2243 91.2087C29.1085 90.3783 29.1522 88.9885 28.3216 88.1043C28.2816 88.0617 25.7107 85.3241 22.7747 82.2035L17.739 76.844C17.7262 76.8303 17.7146 76.8161 17.7018 76.8024C16.5211 75.3903 16.5358 73.3427 17.7734 71.9454C18.8683 70.7098 20.7272 70.4726 22.097 71.3935L29.7792 76.5595C35.8953 80.672 40.097 86.9089 41.6102 94.1218L45.2087 111.272C45.4259 112.307 46.3389 113.018 47.356 113.018C47.5053 113.018 47.6571 113.002 47.8091 112.97C48.9961 112.721 49.7565 111.557 49.5074 110.37Z" fill="#5C4AE4"/>
<path d="M16.3186 98.4907L16.3045 98.471C15.5995 97.4836 14.2282 97.2543 13.241 97.9588C12.2538 98.6634 12.0245 100.035 12.7288 101.022L12.7429 101.042C13.1716 101.643 13.8469 101.963 14.5326 101.963C14.974 101.963 15.4196 101.83 15.8064 101.554C16.7934 100.85 17.0229 99.478 16.3186 98.4907Z" fill="#5C4AE4"/>
<path d="M109.743 36.5502C107.995 35.1475 105.737 34.6217 103.549 35.1071C100.158 35.8595 97.7898 38.811 97.7898 42.2846V68.7485C95.2152 66.1229 91.0739 65.6775 87.9935 67.7485L80.3108 72.9143C73.2395 77.6688 68.3816 84.8801 66.6319 93.2197L63.0336 110.37C62.7845 111.557 63.5449 112.721 64.7319 112.97C64.8839 113.002 65.0359 113.018 65.185 113.018C66.2023 113.018 67.1151 112.307 67.3323 111.272L70.9306 94.1215C72.444 86.9088 76.6455 80.6717 82.7616 76.5594L90.4443 71.3937C91.8136 70.4726 93.6725 70.7097 94.7678 71.9454C96.0038 73.3409 96.0203 75.3851 94.844 76.7973C94.8299 76.8127 94.8165 76.8285 94.8025 76.8439C94.8025 76.8439 84.2594 88.0621 84.2197 88.1042C83.3893 88.9884 83.433 90.3782 84.317 91.2086C85.2012 92.039 86.5909 91.9953 87.4213 91.1111C87.4512 91.0795 96.4255 81.5375 97.884 79.992C98.0029 79.8661 98.1153 79.7363 98.2247 79.6052C100.777 76.7703 102.183 73.1265 102.183 69.3019V42.2844C102.183 40.886 103.136 39.6979 104.501 39.395C105.382 39.1995 106.291 39.4115 106.995 39.9759C107.698 40.5406 108.102 41.382 108.102 42.2844V76.3376C108.102 79.8828 107.017 83.2846 104.965 86.1755L88.3723 109.549C87.6702 110.538 87.9028 111.91 88.8917 112.612C89.2778 112.886 89.7215 113.017 90.1612 113.017C90.8486 113.017 91.5257 112.695 91.954 112.092L108.547 88.7183C111.129 85.0802 112.495 80.7991 112.495 76.3378V42.2844C112.494 40.0429 111.492 37.953 109.743 36.5502Z" fill="#5C4AE4"/>
<path d="M84.089 42.6626L80.1816 41.7292V41.0286C82.7211 39.2496 84.3863 36.3038 84.3863 32.9747V27.895C84.3863 22.4749 79.9769 18.0655 74.5568 18.0655C72.1245 18.0655 69.8975 18.9554 68.1794 20.4243C66.2664 15.7397 61.6635 12.4291 56.2994 12.4291C50.9287 12.4291 46.321 15.7483 44.4125 20.4419C42.6917 18.9625 40.4566 18.0651 38.0144 18.0651C32.5942 18.0651 28.1848 22.4745 28.1848 27.8946V28.2322V32.9743C28.1848 36.3034 29.85 39.2492 32.3896 41.0282V41.7288L28.4822 42.6622C23.8169 43.7768 20.5586 47.905 20.5586 52.7016V56.8033C20.5586 58.0163 21.5421 58.9996 22.7548 58.9996H32.847C32.8314 59.266 32.8207 59.5337 32.8207 59.8036V67.7009C32.8207 68.9139 33.8042 69.8971 35.0169 69.8971H48.2186C49.4313 69.8971 50.4148 68.9139 50.4148 67.7009C50.4148 66.4879 49.4313 65.5047 48.2186 65.5047H45.9494V60.9661C45.9494 59.7531 44.9659 58.7699 43.7531 58.7699C42.5404 58.7699 41.5569 59.7531 41.5569 60.9661V65.5051H37.2134V59.8041C37.2134 55.5682 40.0905 51.9204 44.2093 50.9334L50.2362 49.4892L54.2697 58.6655C54.6202 59.463 55.4091 59.978 56.2799 59.978H56.2801C57.1511 59.978 57.94 59.4632 58.2905 58.6658L62.3198 49.503L68.3276 50.9383C72.4504 51.9233 75.3299 55.5715 75.3299 59.8104V65.5051H70.9864V60.9661C70.9864 59.7531 70.0029 58.7699 68.7901 58.7699C67.5774 58.7699 66.5939 59.7531 66.5939 60.9661V65.5051H64.1049C62.8921 65.5051 61.9086 66.4883 61.9086 67.7013C61.9086 68.9143 62.8921 69.8976 64.1049 69.8976H77.5264C78.7391 69.8976 79.7226 68.9143 79.7226 67.7013V59.8104C79.7226 59.5383 79.7116 59.2686 79.6958 59H89.8165C91.0293 59 92.0128 58.0168 92.0128 56.8038V52.7021C92.0128 47.9055 88.7544 43.777 84.089 42.6626ZM74.5568 22.4576C77.4343 22.4576 79.7966 24.7046 79.982 27.536H76.9285C74.3616 27.536 71.8354 26.9179 69.5647 25.7412C70.4 23.8111 72.3235 22.4576 74.5568 22.4576ZM69.1198 32.6536C69.1224 32.5467 69.1279 32.4402 69.1279 32.3326V30.3766C71.5923 31.3965 74.2425 31.9284 76.9285 31.9284H79.9938V32.9745C79.9938 35.9724 77.5549 38.4115 74.5568 38.4115C71.5587 38.4115 69.1198 35.9724 69.1198 32.9743V32.6536ZM47.8636 25.2573C47.8636 20.6059 51.6478 16.8216 56.2994 16.8216C60.4949 16.8216 63.9845 19.9003 64.6289 23.9168L60.9315 21.7445C60.0067 21.2011 58.8247 21.4051 58.1357 22.2276C56.3288 24.3839 53.6791 25.6206 50.8657 25.6206H47.8636V25.2573ZM38.0146 22.4576C40.2479 22.4576 42.1712 23.8113 43.0066 25.741C40.7357 26.9177 38.2098 27.5357 35.6429 27.5357H32.5894C32.7748 24.7046 35.1373 22.4576 38.0146 22.4576ZM32.5776 31.9282H35.6429C38.3317 31.9282 40.9848 31.3952 43.4516 30.3731V32.9741C43.4516 35.972 41.0127 38.4111 38.0146 38.4111C35.0165 38.4111 32.5776 35.9724 32.5776 32.9743V31.9282ZM43.1859 46.6617C38.865 47.6971 35.4691 50.7096 33.8529 54.6073H24.9511V52.7019C24.9511 49.9464 26.8227 47.5747 29.5028 46.9345L35.0962 45.5983C36.0847 45.3622 36.7823 44.4787 36.7823 43.4622V42.7239C37.1864 42.7746 37.5971 42.8038 38.0146 42.8038C38.429 42.8038 38.8368 42.775 39.2379 42.725V43.3516C39.2363 43.3843 39.2357 43.417 39.2355 43.4497C39.235 44.1703 39.5893 44.8762 40.2398 45.297C40.4849 45.4558 40.7498 45.559 41.0201 45.6106L44.2963 46.3956L43.1859 46.6617ZM49.3121 43.2523C48.7479 43.0035 48.1597 42.8045 47.5535 42.6593L43.6302 41.7191V41.0347C44.3382 40.5399 44.9784 39.9551 45.5336 39.2958C46.5145 40.8068 47.8032 42.0988 49.3121 43.083V43.2523ZM58.8508 46.4792L56.2808 52.3245L53.7048 46.4643V44.8971C54.5431 45.0699 55.4108 45.161 56.2994 45.161C57.1729 45.161 58.0259 45.0725 58.8508 44.9054V46.4792ZM56.2994 40.7683C51.6478 40.7686 47.8636 36.9842 47.8636 32.3326V30.0129H50.8657C54.3485 30.0129 57.66 28.7178 60.198 26.4077L64.7271 29.0687V32.6539C64.5575 37.1568 60.8435 40.7683 56.2994 40.7683ZM63.2433 43.2593V43.1106C64.7644 42.1272 66.0646 40.8318 67.0531 39.3142C67.6046 39.966 68.2393 40.5445 68.9406 41.0347V41.7191L65.017 42.6593C64.4055 42.806 63.8123 43.0074 63.2433 43.2593ZM87.6201 54.6073H78.688C77.0702 50.7096 73.6719 47.6988 69.3484 46.6659L68.2457 46.4026L71.5394 45.6133C71.8135 45.5623 72.0827 45.4578 72.3311 45.297C72.9806 44.8769 73.3337 44.171 73.3337 43.4504C73.3337 43.4333 73.3335 43.4159 73.3331 43.3988V42.725C73.7343 42.775 74.1419 42.8038 74.5564 42.8038C74.9739 42.8038 75.3846 42.7746 75.7887 42.7239V43.4622C75.7887 44.4787 76.4862 45.3622 77.4747 45.5983L83.0681 46.9345C85.7482 47.5749 87.6201 49.9464 87.6201 52.7019V54.6073Z" fill="#5C4AE4"/>
<path d="M57.823 66.1472C57.4125 65.7387 56.8481 65.5059 56.2705 65.5059C55.6904 65.5059 55.1262 65.7387 54.7177 66.1472C54.307 66.5579 54.0742 67.1223 54.0742 67.7021C54.0742 68.2797 54.307 68.8441 54.7177 69.2548C55.1262 69.6633 55.6907 69.8984 56.2705 69.8984C56.8481 69.8984 57.4125 69.6633 57.823 69.2548C58.2315 68.8441 58.4667 68.2797 58.4667 67.7021C58.4667 67.1223 58.2317 66.5579 57.823 66.1472Z" fill="#5C4AE4"/>
<path d="M56.2685 0.569336C55.0557 0.569336 54.0723 1.5526 54.0723 2.76558V6.05182C54.0723 7.26481 55.0557 8.24807 56.2685 8.24807C57.4813 8.24807 58.4648 7.26481 58.4648 6.05182V2.76558C58.4648 1.5526 57.4815 0.569336 56.2685 0.569336Z" fill="#5C4AE4"/>
<path d="M48.1793 7.73338L45.8754 5.43171C45.0174 4.5743 43.6269 4.57496 42.7695 5.43303C41.9121 6.2911 41.913 7.68177 42.771 8.53896L45.0751 10.8406C45.5038 11.2691 46.0656 11.4832 46.6272 11.4832C47.1897 11.4832 47.7519 11.2685 48.1808 10.8393C49.0378 9.98124 49.0374 8.59057 48.1793 7.73338Z" fill="#5C4AE4"/>
<path d="M69.7161 5.48788C68.858 4.63068 67.4671 4.63112 66.6102 5.48941L64.3241 7.77768C63.4669 8.63576 63.4676 10.0264 64.3256 10.8836C64.7546 11.3121 65.3161 11.5262 65.8779 11.5262C66.4404 11.5262 67.0029 11.3114 67.4316 10.8821L69.7176 8.59381C70.5748 7.73573 70.5742 6.34507 69.7161 5.48788Z" fill="#5C4AE4"/>
</svg>
