<svg width="61" height="106" viewBox="0 0 61 106" fill="none" xmlns="http://www.w3.org/2000/svg">
<path d="M7.8125 0.772217H4.0625C1.99437 0.772217 0.3125 2.45409 0.3125 4.52222V102.022C0.3125 104.09 1.99437 105.772 4.0625 105.772H56.5625C58.6306 105.772 60.3125 104.09 60.3125 102.022V4.52222C60.3125 2.45409 58.6306 0.772217 56.5625 0.772217H52.8125C51.7775 0.772217 50.9375 1.61222 50.9375 2.64722V4.52222C50.9375 7.62347 48.4137 10.1472 45.3125 10.1472H15.3125C12.2113 10.1472 9.6875 7.62347 9.6875 4.52222V2.64722C9.6875 1.61222 8.8475 0.772217 7.8125 0.772217ZM4.0625 73.8972V64.5222C4.0625 63.4853 4.90063 62.6472 5.9375 62.6472C6.97437 62.6472 7.8125 63.4853 7.8125 64.5222V73.8972C7.8125 74.9322 8.6525 75.7722 9.6875 75.7722H19.0625C20.0994 75.7722 20.9375 76.6103 20.9375 77.6472C20.9375 78.6841 20.0994 79.5222 19.0625 79.5222H9.6875C6.58625 79.5222 4.0625 76.9985 4.0625 73.8972ZM39.6875 102.022H20.9375C19.9006 102.022 19.0625 101.184 19.0625 100.147C19.0625 99.1103 19.9006 98.2722 20.9375 98.2722H39.6875C40.7244 98.2722 41.5625 99.1103 41.5625 100.147C41.5625 101.184 40.7244 102.022 39.6875 102.022ZM56.5625 73.8972C56.5625 76.9985 54.0387 79.5222 50.9375 79.5222H41.5625C40.5256 79.5222 39.6875 78.6841 39.6875 77.6472C39.6875 76.6103 40.5256 75.7722 41.5625 75.7722H50.9375C51.9725 75.7722 52.8125 74.9322 52.8125 73.8972V64.5222C52.8125 63.4853 53.6506 62.6472 54.6875 62.6472C55.7244 62.6472 56.5625 63.4853 56.5625 64.5222V73.8972ZM41.5625 27.0222H50.9375C54.0387 27.0222 56.5625 29.546 56.5625 32.6472V42.0222C56.5625 43.0591 55.7244 43.8972 54.6875 43.8972C53.6506 43.8972 52.8125 43.0591 52.8125 42.0222V32.6472C52.8125 31.6122 51.9725 30.7722 50.9375 30.7722H41.5625C40.5256 30.7722 39.6875 29.9341 39.6875 28.8972C39.6875 27.8603 40.5256 27.0222 41.5625 27.0222ZM22.8125 40.1472C23.8494 40.1472 24.6875 40.9853 24.6875 42.0222V51.3972H28.4375V42.0222C28.4375 40.9853 29.2756 40.1472 30.3125 40.1472C31.3494 40.1472 32.1875 40.9853 32.1875 42.0222V51.3972H35.9375V42.0222C35.9375 40.9853 36.7756 40.1472 37.8125 40.1472C38.8494 40.1472 39.6875 40.9853 39.6875 42.0222V51.3972H43.4375V42.0222C43.4375 40.9853 44.2756 40.1472 45.3125 40.1472C46.3494 40.1472 47.1875 40.9853 47.1875 42.0222V51.3972H54.6875C55.7244 51.3972 56.5625 52.2353 56.5625 53.2722C56.5625 54.3091 55.7244 55.1472 54.6875 55.1472H47.1875V64.5222C47.1875 65.5591 46.3494 66.3972 45.3125 66.3972C44.2756 66.3972 43.4375 65.5591 43.4375 64.5222V55.1472H39.6875V60.7722C39.6875 61.8091 38.8494 62.6472 37.8125 62.6472C36.7756 62.6472 35.9375 61.8091 35.9375 60.7722V55.1472H32.1875V64.5222C32.1875 65.5591 31.3494 66.3972 30.3125 66.3972C29.2756 66.3972 28.4375 65.5591 28.4375 64.5222V55.1472H24.6875V60.7722C24.6875 61.8091 23.8494 62.6472 22.8125 62.6472C21.7756 62.6472 20.9375 61.8091 20.9375 60.7722V55.1472H17.1875V64.5222C17.1875 65.5591 16.3494 66.3972 15.3125 66.3972C14.2756 66.3972 13.4375 65.5591 13.4375 64.5222V55.1472H5.9375C4.90063 55.1472 4.0625 54.3091 4.0625 53.2722C4.0625 52.2353 4.90063 51.3972 5.9375 51.3972H13.4375V42.0222C13.4375 40.9853 14.2756 40.1472 15.3125 40.1472C16.3494 40.1472 17.1875 40.9853 17.1875 42.0222V51.3972H20.9375V42.0222C20.9375 40.9853 21.7756 40.1472 22.8125 40.1472ZM19.0625 27.0222C20.0994 27.0222 20.9375 27.8603 20.9375 28.8972C20.9375 29.9341 20.0994 30.7722 19.0625 30.7722H9.6875C8.6525 30.7722 7.8125 31.6122 7.8125 32.6472V42.0222C7.8125 43.0591 6.97437 43.8972 5.9375 43.8972C4.90063 43.8972 4.0625 43.0591 4.0625 42.0222V32.6472C4.0625 29.546 6.58625 27.0222 9.6875 27.0222H19.0625Z" fill="#5c4ae4"/>
<path d="M15.3156 6.39722H45.3156C46.3506 6.39722 47.1906 5.55722 47.1906 4.52222V2.64722C47.1906 1.98722 47.3256 1.36097 47.5356 0.772217H13.0938C13.3038 1.36097 13.4388 1.98722 13.4388 2.64722V4.52222C13.4388 5.55722 14.2806 6.39722 15.3156 6.39722Z" fill="#5c4ae4"/>
</svg>
