<svg width="101" height="101" viewBox="0 0 101 101" fill="none" xmlns="http://www.w3.org/2000/svg">
<path d="M57.5945 32.6692C58.0456 32.6692 58.4886 32.7591 58.91 32.9363C59.4419 33.1606 59.9027 33.5102 60.2677 33.9528L63.2475 23.4965L55.1012 20.9221L51.2305 34.5035L54.1444 35.4241C54.1968 35.292 54.25 35.1573 54.3031 35.0159C54.845 33.5897 56.1368 32.6692 57.5945 32.6692Z" fill="#5c4ae4"/>
<path d="M67.9712 47.0973C68.2001 39.8649 69.3069 35.6073 70.3964 33.2584V47.0973H79.0296C79.2571 46.8081 79.5966 46.62 79.9812 46.62C80.366 46.62 80.7052 46.8081 80.9327 47.0973H89.5663V33.2737C89.7768 33.7274 89.9884 34.248 90.1975 34.8551C91.0594 37.3697 91.8015 41.2792 91.9876 47.0969H97.6587C97.3759 37.6555 95.7712 32.1856 93.6515 28.7754C92.4873 26.9145 91.1257 25.7216 89.8672 25.0607C88.6828 24.4323 87.6401 24.2805 86.9969 24.2659C86.9405 24.2622 86.8845 24.257 86.8268 24.257H85.0168L81.7096 30.0545L80.6347 26.657L81.8846 24.257H78.0762L79.3269 26.657L78.2513 30.0545L74.9441 24.257H73.1348C73.0803 24.257 73.0264 24.2622 72.9725 24.2655C72.3293 24.279 71.2834 24.4297 70.0948 25.0611C68.1885 26.0559 66.1333 28.2336 64.6951 32.0912C63.4143 35.4991 62.5046 40.2467 62.3008 47.0973H67.9712ZM79.9812 33.2491C80.6666 33.2491 81.2216 33.8338 81.2216 34.5551C81.2216 35.2764 80.6666 35.8611 79.9812 35.8611C79.2957 35.8611 78.7408 35.2764 78.7408 34.5551C78.7408 33.8338 79.2957 33.2491 79.9812 33.2491ZM79.9812 39.9344C80.6666 39.9344 81.2216 40.5191 81.2216 41.2404C81.2216 41.9617 80.6666 42.5464 79.9812 42.5464C79.2957 42.5464 78.7408 41.9617 78.7408 41.2404C78.7408 40.5191 79.2957 39.9344 79.9812 39.9344Z" fill="#5c4ae4"/>
<path d="M79.9818 22.1303C84.3863 22.1303 87.9559 18.372 87.9559 13.7345C87.9559 11.9371 87.4175 10.2728 86.5039 8.90712C85.6342 8.53248 83.1148 7.57983 79.9818 7.57983C76.8486 7.57983 74.3295 8.53248 73.4602 8.90712C72.5465 10.2732 72.0078 11.9374 72.0078 13.7345C72.0078 18.3716 75.5781 22.1303 79.9818 22.1303Z" fill="#5c4ae4"/>
<path d="M79.9802 6.78656C83.8786 6.78656 86.8322 8.26347 86.8322 8.26347V1.59347V0.800537H73.1289V1.59347V8.26347C73.1289 8.26347 76.0818 6.78656 79.9802 6.78656Z" fill="#5c4ae4"/>
<path d="M36.1068 28.9936C40.5108 28.9936 44.0809 25.2347 44.0809 20.5978C44.0809 15.961 40.5108 12.202 36.1068 12.202C31.7029 12.202 28.1328 15.961 28.1328 20.5978C28.1328 25.2347 31.7029 28.9936 36.1068 28.9936Z" fill="#5c4ae4"/>
<path d="M2.92843 98.3083V99.308C2.92843 100.132 3.56317 100.801 4.34604 100.801C5.12891 100.801 5.76364 100.132 5.76364 99.308V98.3132H19.4081V99.308C19.4081 100.132 20.0428 100.801 20.8257 100.801C21.6086 100.801 22.2433 100.132 22.2433 99.308V98.3083C23.376 98.2591 24.2811 97.2795 24.2811 96.0743V66.2225C24.2811 64.9863 23.3285 63.9837 22.1547 63.9837H18.4335V58.6977H19.4372V55.961H16.048C17.6776 48.0242 21.1326 43.4244 24.2134 40.6429C25.0204 39.9198 25.8036 39.3276 26.5234 38.8451V96.0933C26.5234 98.6419 28.4857 100.707 30.9049 100.707C33.3247 100.707 35.287 98.6419 35.287 96.0933V62.409H36.9297V96.0933C36.9297 98.6419 38.892 100.707 41.3112 100.707C43.731 100.707 45.6933 98.6419 45.6933 96.0933V43.902V42.8594C46.0495 43.2415 46.4262 43.6132 46.832 43.9621C48.0951 45.0364 49.7176 46.0084 51.7603 46.0248C51.7805 46.0252 51.8004 46.0252 51.8206 46.0252C53.5905 46.0252 55.3777 45.1215 56.711 43.6699C58.0871 42.1964 59.1974 40.2041 60.2273 37.5096C60.8089 35.979 60.1015 34.242 58.6478 33.6293C57.194 33.0169 55.5443 33.7614 54.9627 35.292C54.121 37.5231 53.2768 38.8496 52.686 39.4653C52.0662 40.0843 51.8975 40.0332 51.7607 40.0549C51.6055 40.0702 51.1001 39.928 50.4094 39.3298C49.3805 38.4682 48.2064 36.8051 47.403 35.3916C46.9954 34.6849 46.6658 34.0405 46.444 33.5823C46.333 33.3531 46.2483 33.1714 46.193 33.0505C46.1657 32.9904 46.1459 32.9453 46.1342 32.9181C46.1214 32.8904 46.1214 32.8897 46.1214 32.8897C45.6139 31.7072 44.4653 31.0449 43.3032 31.1464C43.1891 31.1311 43.0732 31.1206 42.9552 31.1206H41.4292H29.2622C28.8075 31.1206 28.3801 31.2389 28.0027 31.4452C26.7548 31.9016 23.791 33.1878 20.5383 36.0961C16.452 39.734 11.9969 46.0196 10.2638 55.9614H5.73387V58.698H6.73825V63.984H3.01703C1.84219 63.984 0.890625 64.987 0.890625 66.2229V96.0747C0.890625 97.2796 1.79541 98.2591 2.92843 98.3083ZM8.39188 58.6977H10.8128C11.2264 59.2264 11.8126 59.6096 12.5036 59.7387C12.6716 59.7701 12.8386 59.7854 13.0034 59.7854C13.8624 59.7854 14.6584 59.3716 15.1865 58.6977H16.7791V63.9837H8.39188V58.6977Z" fill="#5c4ae4"/>
<path d="M48.0859 47.8444H100.892V51.8206H48.0859V47.8444Z" fill="#5c4ae4"/>
</svg>
